<?xml version="1.0" encoding="utf-8"?>
<!-- Generator: Adobe Illustrator 27.5.0, SVG Export Plug-In . SVG Version: 6.00 Build 0)  -->
<svg version="1.1" xmlns="http://www.w3.org/2000/svg" xmlns:xlink="http://www.w3.org/1999/xlink" x="0px" y="0px"
	 viewBox="0 0 750 500" style="enable-background:new 0 0 750 500;" xml:space="preserve">
<g id="BACKGROUND">
</g>
<g id="OBJECTS">
	<g>
		<ellipse cx="384.217" cy="424.457" rx="283.828" ry="35.03"/>
		<ellipse style="fill:#C5A0D9;" cx="384.217" cy="422.457" rx="282.673" ry="35.03"/>
		<ellipse style="fill:#B863A1;" cx="384.217" cy="419.004" rx="202.606" ry="23.189"/>
		<ellipse style="fill:#C5A0D9;" cx="384.217" cy="418.222" rx="118.533" ry="12.706"/>
	</g>
	<g>
		<g>
			<rect x="482.29" y="56.295" style="fill:#543884;" width="71.693" height="85.732"/>
			<rect x="491.011" y="65.138" style="fill:#FFFFFF;" width="54.252" height="68.045"/>
			<path style="fill:#EC4176;" d="M533.958,93.501c-1.035,0.48-1.834,1.401-2.392,2.406c-0.61,1.099-0.976,2.313-1.417,3.49
				c-0.882,2.349-2.207,4.708-4.426,5.88c-6.035,3.188-10.434-3.819-11.461-8.795c-0.486-2.355-0.742-4.782-1.634-7.015
				c-1.424-3.563-5.558-7.07-8.528-2.898c-0.911,1.28-1.549,2.765-2.067,4.276v31.374h32.211c0-9.614-0.022-19.228,0.012-28.842
				C534.153,93.415,534.054,93.456,533.958,93.501z"/>
		</g>
		<g>
			<rect x="482.29" y="157.179" style="fill:#543884;" width="71.693" height="85.732"/>
			<rect x="491.011" y="166.023" style="fill:#FFFFFF;" width="54.252" height="68.045"/>
			<path style="fill:#FFBE3B;" d="M533.994,181.652c-4.936-4.775-10.654,4.158-12.131,7.72c-1.79,4.316-4.614,11.488-10.679,8.91
				c-1.468-0.624-2.789-1.841-4.383-1.771c-2.671,0.118-4.77,3.837-4.77,6.244c0,0.001,0,20.35,0,20.35h32.211V181.91
				C534.16,181.825,534.081,181.736,533.994,181.652z"/>
		</g>
	</g>
	<g>
		<g>
			<path style="fill:#FFBE3B;" d="M174.898,160.88c-0.41,10.69-0.88,21.37-1.4,32.05c-0.27,5.42-0.55,10.84-0.85,16.25
				c-1.41,25.85-3.16,51.64-5.24,77.35c-0.17,2.15-0.39,4.39-0.74,6.56c-0.69,4.37-1.88,8.49-4.22,11.19
				c-0.22,0.26-0.46,0.51-0.71,0.74c-0.38,0.36-0.78,0.68-1.21,0.96c-1.81,1.2-5.25,1.84-8.88,1.8c-0.16,0-0.33-0.01-0.5-0.01
				c-2.76-0.08-5.59-0.54-7.86-1.45c-0.24-0.09-0.47-0.19-0.69-0.29c-1-0.46-1.86-1.02-2.52-1.67c-2.66-2.61-2.63-7.43-2.92-11.27
				c-0.02-0.26-0.04-0.51-0.06-0.75c-0.57-6.07-1.11-12.16-1.6-18.23c-0.03-0.3-0.06-0.59-0.08-0.89
				c-0.53-6.52-1.01-13.05-1.45-19.57c-1.27-18.8-2.16-37.61-2.69-56.39c-0.41-14.38-0.59-28.74-0.56-43.08
				c0.01-4.71,0.1-9.65,1.94-13.53c1.76-3.7,4.67-5.7,8.02-6.76c0.16-0.05,0.3-0.1,0.46-0.14h0.01c3.1-0.9,6.53-1.05,9.72-1.05
				c0.59,0,1.17,0,1.76,0.01h0.31c3.23,0.04,6.47,0.24,9.64,1.31c1.17,0.4,2.34,0.93,3.45,1.6c0.11,0.06,0.22,0.13,0.33,0.2
				c2.43,1.53,4.61,3.72,6.1,6.63C175.247,147.89,175.138,154.64,174.898,160.88z"/>
			<g>
				<path style="fill:#EB913D;" d="M151.638,305.53c0,0.75,0.01,1.5,0.01,2.25c-0.16,0-0.33-0.01-0.5-0.01
					c-0.06-4.89-0.11-9.79-0.16-14.68c-0.04-4.22-0.08-8.45-0.12-12.67c-0.13-13.24-0.21-26.47-0.27-39.71
					c-0.06-13.24-0.11-26.48-0.15-39.72c-0.03-13.17-0.05-26.34-0.06-39.51c-0.01-6.58-0.08-13.16,0-19.73
					c0.03-2.99,0.49-6.62,2.24-9.04h0.31c-0.9,1.18-1.51,2.65-1.84,4.13c-0.76,3.42-0.44,7.13-0.43,10.62
					c0.02,7.27,0.04,14.53,0.07,21.8c0.04,9.94,0.09,19.89,0.15,29.83v0.01c0.01,0.95,0.01,1.9,0.02,2.85v0.01
					c0.09,15.06,0.2,30.12,0.3,45.17c0.09,12.98,0.19,25.96,0.28,38.94c0.02,2.34,0.04,4.68,0.06,7.02
					C151.578,297.23,151.608,301.38,151.638,305.53z"/>
				<path style="fill:#EB913D;" d="M168.678,194.45c-0.12,2.5-0.25,5-0.38,7.5c-0.13,2.38-0.25,4.75-0.39,7.13
					c-0.63,11.57-1.3,23.13-1.96,34.69c-0.79,13.9-1.57,27.79-2.38,41.68c-0.15,2.55-0.3,5.1-0.45,7.64
					c-0.23,3.73-0.45,7.46-0.67,11.19c-0.22,0.26-0.46,0.51-0.71,0.74c0.21-3.98,0.44-7.96,0.67-11.93
					c0.22-3.86,0.44-7.71,0.66-11.57c0.76-13.57,1.57-27.13,2.37-40.7c0.61-10.59,1.27-21.17,1.87-31.75
					c0.18-3.03,0.35-6.05,0.51-9.07c0.1-1.82,0.2-3.65,0.29-5.47c0.58-11.65,0.96-23.33,0.65-35c-0.09-3.39-0.24-6.77-0.46-10.15
					c-0.2-3.12-0.36-6.29-0.93-9.36c-0.29-1.5-0.7-3.02-1.34-4.4c0.11,0.06,0.22,0.13,0.33,0.2c0.7,1.57,1.17,3.28,1.44,4.93
					c0.5,3.03,0.68,6.14,0.88,9.22c0.23,3.44,0.39,6.89,0.5,10.34C169.518,171.7,169.208,183.08,168.678,194.45z"/>
				<path style="fill:#EB913D;" d="M143.288,306.32c-0.24-0.09-0.47-0.19-0.69-0.29c-0.26-4.31-0.52-8.63-0.77-12.94
					c-0.12-2.11-0.25-4.21-0.37-6.32c-0.26-4.34-0.51-8.67-0.76-13.01c-0.34-6-0.68-11.99-1.03-17.99l-0.6-10.68
					c-0.79-13.94-1.61-27.88-2.35-41.82c-0.73-13.87-1.29-27.76-0.87-41.65c0.1-3.45,0.26-6.89,0.49-10.34
					c0.21-3.07,0.38-6.18,0.88-9.22c0.48-2.91,1.56-6,3.46-8.17c0.16-0.05,0.3-0.1,0.46-0.14c-1.98,1.98-2.96,4.8-3.48,7.58
					c-0.58,3.08-0.73,6.25-0.94,9.37c-0.22,3.38-0.37,6.76-0.46,10.14c-0.35,13.5,0.2,27,0.94,40.48
					c0.75,13.61,1.6,27.21,2.39,40.82c0.27,4.71,0.55,9.43,0.83,14.15c0.34,5.76,0.67,11.53,1,17.3c0.18,3.08,0.36,6.17,0.53,9.25
					c0.19,3.42,0.39,6.83,0.58,10.25C142.788,297.5,143.048,301.91,143.288,306.32z"/>
			</g>
			<g>
				<path style="fill:#FFBE3B;" d="M145.698,271.25c-0.08,0.08-0.16,0.17-0.24,0.24c-0.76,0.77-1.82,1.4-3.21,1.86
					c-8.76,2.88-23.59-2.61-30.05-8.23c-9.22-8-11.22-20.74-12.66-32.4c-0.54-4.31-1.07-8.72-0.12-12.95
					c0.95-4.23,3.66-8.34,7.92-9.94c4.34-1.64,9.28-0.21,12.91,2.73c0.15,0.13,0.3,0.25,0.44,0.38c1.42,1.24,2.61,2.71,3.44,4.32
					c2.99,5.76,2.4,12.56,0.71,18.72c-1.26,4.61-2.92,10.04,0.32,13.75c2.9,3.33,8.18,3.37,12.42,4.97c3.72,1.4,7.83,5.85,9.1,10.14
					c0.03,0.07,0.05,0.14,0.06,0.21C147.378,267.34,147.188,269.57,145.698,271.25z"/>
				<path style="fill:#EB913D;" d="M145.698,271.25c-0.08,0.08-0.16,0.17-0.24,0.24c-4.12-0.15-8.23-0.57-12.24-1.54
					c-5.62-1.36-10.97-3.85-15.21-7.83c-4.09-3.83-7.03-8.78-8.86-14.05c-2.05-5.9-2.68-12.17-2.33-18.38
					c0.39-6.86,1.81-13.85,4.13-20.31c0.05-0.13,0.24-0.08,0.2,0.05c-0.92,3.71-1.94,7.38-2.65,11.14
					c-0.72,3.78-1.18,7.63-1.25,11.49c-0.2,11.42,3.46,23.52,12.53,31.02C127.018,269.07,136.448,270.82,145.698,271.25z"/>
				<path style="fill:#EB913D;" d="M146.738,265.05c-3.58-0.06-7.15-0.77-10.48-2.12c-9-3.62-15.7-11.88-17.53-21.4
					c-1.05-5.46-0.38-11.04,0.36-16.5c0.4-2.88,0.81-5.77,1.03-8.68c0.1-1.27,0.14-2.53,0.13-3.79c0.15,0.13,0.3,0.25,0.44,0.38
					c0,1.3-0.07,2.59-0.17,3.87c-0.25,3.05-0.72,6.09-1.14,9.13c-0.74,5.44-1.32,11.02-0.1,16.44c1.05,4.63,3.26,8.98,6.36,12.57
					c5.28,6.12,13.06,9.65,21.04,9.89C146.708,264.91,146.728,264.98,146.738,265.05z"/>
			</g>
			<g>
				<path style="fill:#FFBE3B;" d="M201.728,182.07c-0.53,3.87-1.15,7.9-2.24,11.64c-0.1,0.34-0.2,0.67-0.3,1
					c-1.2,3.73-2.92,7.14-5.6,9.74c-5.95,5.79-14.7,5.81-22.64,5.53c-4.53-0.17-10.12-0.35-13.54-4.24
					c-0.78-0.88-1.33-1.79-1.64-2.67c-0.04-0.11-0.08-0.21-0.11-0.32c-0.56-1.84-0.11-3.59,1.37-4.94c0.1-0.09,0.2-0.17,0.3-0.25
					c0.34-0.28,0.72-0.54,1.14-0.77c4.12-2.25,8.75-0.57,13.03-1.66c4.48-1.13,8.35-4.84,10.03-9.6c1.7-4.8,1.22-10.18,1.81-15.3
					c0.6-5.12,2.94-10.72,7.44-11.9c0.38-0.1,0.77-0.17,1.15-0.2c0.17,0,0.34-0.01,0.5-0.01c4.01,0.03,7.79,3.86,9.17,8.27
					C203.168,171.39,202.458,176.86,201.728,182.07z"/>
				<path style="fill:#EB913D;" d="M193.688,169.37c0.02,5.42-0.7,11.01-2.8,16.03c-1.98,4.71-5.29,8.63-9.86,10.97
					c-7.55,3.87-15.94,3.27-24,1.44c0.1-0.09,0.2-0.17,0.3-0.25c3.44,0.76,6.92,1.28,10.46,1.3c5.04,0.02,10.23-1.06,14.55-3.75
					c4.4-2.76,7.29-7.13,8.89-12.01c1.69-5.12,2.15-10.66,1.91-16.02c-0.14-3.03-0.55-6.01-1.21-8.95c0.17,0,0.34-0.01,0.5-0.01
					C193.268,161.81,193.668,165.62,193.688,169.37z"/>
				<path style="fill:#EB913D;" d="M199.488,193.71c-0.1,0.34-0.2,0.67-0.3,1c-4,4.06-8.88,7.24-14.35,9.14
					c-9.61,3.35-19.52,1.9-29.07-0.78c-0.04-0.11-0.08-0.21-0.11-0.32c4.07,1.16,8.2,2.09,12.42,2.51
					c6.22,0.61,12.46-0.09,18.26-2.47C191.298,200.75,195.798,197.61,199.488,193.71z"/>
			</g>
		</g>
		<g>
			<polygon style="fill:#262254;" points="185.602,312.658 112.038,312.658 117.124,383.586 180.516,383.586 			"/>
			<polygon style="fill:#543884;" points="193.067,314.843 104.573,314.843 102.423,293.088 195.217,293.088 			"/>
		</g>
	</g>
	<g>
		<path style="fill:#BF5656;" d="M201.424,373.284c0,0-25.621-5.649-29.252-3.631s-8.473,36.918-4.842,39.742
			c3.631,2.824,15.332,11.499,22.191,8.675c6.859-2.824-2.824-9.885-2.623-13.516c0.202-3.631,12.104-1.21,12.104-1.21
			S206.468,374.293,201.424,373.284z"/>
		<g>
			<path style="fill:#BF5656;" d="M378.53,255.64c1.126,0.329,7.486,4.882,9.113,4.556c1.627-0.325,19.853-50.446,22.457-53.05
				s13.669,7.486,13.669,7.486s-16.924,76.158-24.41,77.134c-7.486,0.976-31.57-9.764-37.103-15.948
				C356.724,269.635,370.719,253.362,378.53,255.64z"/>
			<path style="fill:#BF5656;" d="M377.634,283.917c0.349-6.354,1.226-12.701,1.918-19.025c0.266-2.428,0.521-5.326,1.3-7.961
				c-1.087-0.66-1.967-1.187-2.323-1.291c-7.811-2.278-21.806,13.995-16.273,20.179c2.461,2.751,8.595,6.402,15.304,9.523
				C377.583,284.861,377.609,284.384,377.634,283.917z"/>
		</g>
		<path style="fill:#EC4176;" d="M313.437,269.309c0,0,35.475,36.126,38.079,35.801c2.604-0.326,34.499-51.749,33.522-54.352
			c-0.976-2.604-68.021-50.772-77.134-50.772C298.792,199.986,281.867,234.485,313.437,269.309z"/>
		<path style="fill:#EB913D;" d="M299.825,286.486c0,0-10.446,18.802-8.953,19.399c1.492,0.597,6.267,2.089,6.566,2.984
			c0.298,0.895-2.984,5.074-2.984,5.074s83.566,45.364,91.326,57.004c7.76,11.639-6.267,32.233-11.341,34.322
			c-5.074,2.089-152.508-47.752-148.628-74.016c3.88-26.264,25.667-71.628,38.201-66.256
			C276.546,270.37,303.407,279.323,299.825,286.486z"/>
		<g>
			<path style="fill:#EC4176;" d="M319.14,282.68c-2.39,1.79-5.67,8.66-8.06,9.55c-2.39,0.9-50.44-14.32-50.44-14.32
				s-21.19-46.56,1.49-67.45c9.69-8.92,17.79-13.43,24.73-15.23c8.73-2.27,15.63-0.26,21.52,2.68c0.41,0.19,0.81,0.4,1.21,0.61
				c10.74,5.67,14.92,29.25,20.29,54.32S321.53,280.89,319.14,282.68z"/>
			<path d="M308.55,222.38c-7.66,1.03-21.57-13.59-21.8-24.96c-0.02-0.8,0.02-1.53,0.11-2.19c8.73-2.27,15.63-0.26,21.52,2.68
				c2.34,2.3,4.12,4.8,4.83,7.09C316.31,215.01,314.75,221.55,308.55,222.38z"/>
			<path d="M323.956,279.884c2.06-1.644,3.779-3.712,4.809-6.109c1.09-2.365,1.654-4.944,1.835-7.539
				c0.17-2.599,0.056-5.214-0.248-7.809c-0.325-2.6-0.865-5.15-1.439-7.734l-3.212-15.494c-0.531-2.582-1.088-5.159-1.681-7.727
				c-0.561-2.576-1.198-5.134-1.848-7.693c1.714,4.997,3.044,10.118,4.28,15.251c1.233,5.135,2.303,10.304,3.438,15.455
				c0.54,2.571,1.065,5.195,1.364,7.837c0.265,2.645,0.404,5.324,0.108,7.985c-0.28,2.654-0.945,5.295-2.16,7.683
				c-0.28,0.608-0.675,1.154-1.017,1.725c-0.405,0.531-0.78,1.083-1.241,1.566C326.067,278.279,325.057,279.155,323.956,279.884z"/>
		</g>
		<g>
			<path style="fill:#BF5656;" d="M327.642,190.652c0,0-10.958,14.22-13.273,16.339c-2.315,2.119-1.679,12.268-7.511,11.312
				c-5.831-0.956-19.069-17.661-16.155-23.325c2.914-5.664,19.724-32.94,19.724-32.94S334.535,166.877,327.642,190.652z"/>
			<path style="fill:#BF5656;" d="M309.807,163.077c-0.195,0.866-0.39,1.731-0.597,2.596c-0.667,2.788-1.111,5.633-1.36,8.488
				c-0.413,4.75-0.733,9.825,0.364,14.317c0.911,3.728,2.678,7.367,5.013,10.199c1.42,1.722,2.906,3.175,4.533,4.456
				c4.054-4.917,9.882-12.481,9.882-12.481c6.894-23.775-17.215-28.614-17.215-28.614S310.203,162.412,309.807,163.077z"/>
			<path d="M312.995,127.992c6.408-1.535,12.601-4.439,17.286-9.072c4.684-4.634,7.729-11.112,7.446-17.695
				c-0.318-7.397-5.056-14.433-11.79-17.51c-6.734-3.077-15.155-2.052-20.954,2.549c-1.839,1.459-3.519,4.015-2.26,5.996
				c0.858,1.35,2.82,1.675,4.281,1.022c1.46-0.652,2.461-2.055,3.078-3.53c2.162-5.165,0.002-11.608-4.531-14.896
				c-4.533-3.287-10.932-3.483-15.953-1.004c-5.021,2.479-8.645,7.361-10.192,12.743c-0.546,1.9-0.835,4.016,0.024,5.796
				c0.86,1.78,3.247,2.912,4.91,1.844c1.644-1.056,1.629-3.671,0.369-5.164c-1.26-1.493-3.321-2.049-5.271-2.169
				c-7.184-0.44-14.141,4.244-17.366,10.679c-3.225,6.435-3.015,14.251-0.443,20.973c2.479,6.478,7.082,12.124,12.929,15.856
				c5.847,3.732,12.906,5.53,19.826,5.051c5.06-0.351,10.58-3.232,13.897-7.069C309.344,131.164,311.415,128.37,312.995,127.992z"/>
			<path d="M357.51,120.98c-0.5,2.11-1.39,4.33-2.49,6.57c-1.18,2.44-2.59,4.91-3.98,7.32c-1.49,2.59-2.95,5.09-4.07,7.39v0.01
				c-0.03,0.06-0.06,0.13-0.09,0.19c-2.95,6.17-7.33,11.82-12.76,16.58c-7.96,6.97-18.44,12.99-30.25,12.84
				c-2.71-0.03-5.38,0.93-7.66,2.1c-4.24,2.19-7.27,5.81-7.7,10.1c-0.08,0.87-1.83,0.77-1.8-0.1c0.2-4.73,3.29-9.13,7.88-11.73
				c1.76-0.99,3.73-1.7,5.77-2.17c-2.26-0.57-4.62-0.84-6.97-0.75c-5.23,0.22-10.59,2.18-14.4,5.25c-0.7,0.56-1.8-0.2-1.15-0.84
				c3.93-3.86,9.14-6.28,15.11-6.8c1.21-0.1,2.44-0.1,3.67-0.04c-2.85-1.59-5.36-3.63-7.31-6.02c-4.27-5.24-5.8-12.05-4.1-18.28
				c0.58-2.13,1.51-4.2,1.65-6.39c0.11-1.82-0.34-3.63-0.51-5.45c-0.8-8.64,5.16-17.09,13.58-21.9c0.23-0.13,0.46-0.26,0.7-0.37
				c3.56-1.95,7.48-3.31,11.57-4.21c5.41-1.19,11.12-1.56,16.71-1.32h0.04c6.72,0.28,17.09,2.29,23.62,6.23l0.01,0.01
				c0.67,0.4,1.3,0.82,1.88,1.27C357.97,113.16,358.49,116.86,357.51,120.98z"/>
			<path style="fill:#BF5656;" d="M304.531,145.4c-3.717,22.089,0.557,40.181,17.045,49.358
				c22.396,12.466,42.297-8.687,46.014-30.776c3.717-22.089-1.929-44.721-23.625-49.813
				C322.269,109.078,308.247,123.311,304.531,145.4z"/>
			<path d="M378.36,154.57c-0.82,3.82-2.35,9.18-7.19,9.29c-3.78,0.08-7.4-2.44-10.1-4.81c-3.04-2.65-5.74-5.74-8.22-9
				c-0.44-0.51-0.86-1.05-1.28-1.59c-0.98-1.25-1.95-2.53-2.87-3.83c-0.56-0.79-1.14-1.58-1.73-2.36v-0.01
				c-1.23-1.64-2.5-3.24-3.8-4.83c-1.97-2.42-3.9-4.85-5.99-7.17c-0.58-0.65-1.17-1.31-1.76-1.98c-0.24,1.27-0.5,2.54-0.81,3.81
				c-0.49,2.01-1.11,4.04-1.87,6.04c-0.35,1.15-0.71,2.28-1.02,3.43c-1.46,5.37-3.91,10.44-9.01,11.66
				c-2.74,0.66-6.5-0.09-9.02-2.57c0.15,2.32,0.23,5.01-0.51,6.82c-0.35,0.87-1.09,1.76-2.32,1.39c-0.62-0.19-1.21-0.68-1.6-1.21
				c-0.39-0.52-0.63-1.09-0.84-1.65c-0.35-0.9-0.67-1.81-0.97-2.72c-2.52-4.41-6.38-8.2-6.41-13.62c-0.03-3.98,1.62-7.64,3.74-10.99
				c1.09-1.71,2.29-3.33,3.46-4.88c3.51-4.64,7.52-8.88,12.33-12.18c0.8-0.55,1.61-1.06,2.45-1.53c2.77-1.57,5.75-2.72,8.86-3.39
				c1.51-0.33,3.05-0.55,4.6-0.64c3.78-0.22,7.83,0.85,11.49,1.76c0.92,0.23,1.83,0.48,2.73,0.76c0.63,0.19,1.25,0.4,1.87,0.62
				l0.01,0.01c1.73,0.6,3.44,1.31,5.1,2.12c4.07,1.96,7.85,4.53,11,7.73c1.68,1.71,3.18,3.6,4.44,5.67
				C378.58,133.68,380.57,144.27,378.36,154.57z"/>
			<g>
				<path d="M339.872,164.103c-0.703,2.723-2.481,4.649-3.99,4.298c-1.532-0.356-2.206-2.915-1.483-5.712
					c0.722-2.797,2.551-4.71,4.064-4.279C339.953,158.834,340.575,161.38,339.872,164.103z"/>
				<path d="M359.88,169.581c-0.591,2.287-1.967,3.933-3.086,3.673c-1.134-0.264-1.574-2.378-0.969-4.721
					c0.605-2.342,2.014-3.98,3.134-3.661C360.064,165.188,360.47,167.294,359.88,169.581z"/>
			</g>
			<path d="M355.446,172.406c-0.818-0.804-2.243-0.532-3.264-0.49c-0.288,0.012-0.577,0.024-0.865,0.036
				c0.321-1.624,0.675-3.248,1.182-4.823c0.285-0.886,0.61-1.761,0.981-2.615c0.368-0.848,0.829-1.656,1.028-2.563
				c0.074-0.336-0.34-0.62-0.6-0.349c-0.679,0.708-1.04,1.6-1.414,2.496c-0.364,0.873-0.688,1.761-0.968,2.665
				c-0.53,1.708-0.902,3.444-1.029,5.224c-0.844,0.035-1.687,0.071-2.53,0.106c-0.678,0.028-0.685,1.053,0,1.058
				c1.215,0.009,2.43,0.019,3.645,0.029c0.596,0.005,1.191,0.008,1.787,0.014c0.295,0.003,0.811-0.033,1.043,0.174
				c0.045,0.04,0.043,0.044,0.034,0.147c-0.022,0.252-0.197,0.526-0.301,0.748c-0.248,0.529-0.495,1.057-0.743,1.586
				c-0.272,0.58-0.573,1.154-0.785,1.758c-0.213,0.606-0.537,1.264-0.159,1.875c0.147,0.237,0.432,0.359,0.704,0.287
				c0.773-0.206,1.046-1.127,1.313-1.794c0.243-0.606,0.42-1.245,0.624-1.865c0.216-0.657,0.449-1.311,0.653-1.973
				C355.966,173.531,355.919,172.871,355.446,172.406z"/>
			<path style="fill:#FFFFFF;" d="M339.665,174.021c-2.526-0.505-5.236,6.323-0.593,10.67c4.643,4.347,12.152,0.494,12.25-1.087
				c0.099-1.581-3.106-1.471-5.829-3.853C341.542,176.294,341.641,174.417,339.665,174.021z"/>
			<path d="M347.738,148.6c-0.464-0.758-1.167-1.376-1.868-1.906c-1.254-0.948-2.744-1.486-4.306-1.614
				c-1.552-0.128-3.143,0.336-4.453,1.163c-1.281,0.809-2.545,2.094-2.623,3.692c-0.029,0.589,0.679,0.963,1.166,0.669
				c0.941-0.569,1.737-1.34,2.753-1.804c0.863-0.394,1.941-0.525,2.82-0.426c0.02,0.008,0.311,0.056,0.305,0.054
				c0.136,0.029,0.271,0.064,0.405,0.102c0.134,0.039,0.266,0.085,0.398,0.129c0.043,0.014,0.069,0.022,0.088,0.028
				c0.004,0.003,0.014,0.009,0.043,0.023c0.252,0.121,0.497,0.252,0.733,0.402c0.097,0.061,0.191,0.127,0.284,0.192
				c0.029,0.023,0.118,0.09,0.165,0.131c0.211,0.183,0.411,0.378,0.599,0.586c0.078,0.086,0.153,0.175,0.226,0.266
				c0.054,0.076,0.19,0.26,0.202,0.275c0.099,0.129,0.203,0.255,0.303,0.384c0.049,0.068,0.192,0.262,0.203,0.277
				c0.179,0.233,0.352,0.391,0.586,0.57c0.038,0.029,0.35,0.269,0.152,0.114c0.403,0.317,0.83,0.501,1.352,0.357
				c0.43-0.118,0.894-0.508,0.971-0.971C348.408,150.297,348.269,149.469,347.738,148.6z"/>
			<g>
				<path style="fill:#BF5656;" d="M308.048,156.517c0.466,3.259,0.536,6.682-0.992,9.389c-1.528,2.707-5.074,4.407-8.318,3.104
					c-2.948-1.185-4.654-4.272-5.855-7.12c-1.35-3.202-2.466-6.57-2.296-9.852c0.17-3.282,1.849-6.477,4.91-7.654
					C302.727,141.604,307.265,151.04,308.048,156.517z"/>
				<path d="M295.628,153.65c0.326-0.669,0.759-1.318,1.287-1.843c0.259-0.258,0.589-0.465,0.901-0.662
					c0.247-0.156,0.455-0.251,0.705-0.289c-0.86-1.055-1.966-1.929-3.36-2.495c-0.208-0.084-0.271-0.364-0.075-0.458
					c1.449-0.695,3.147,0.647,4.099,1.807c1.086,1.323,1.864,2.884,2.328,4.454c0.944,3.196,0.632,6.478-1.181,8.995
					c-0.209,0.29-0.684-0.017-0.528-0.337c1.503-3.103,1.471-7.83-0.715-11.185c-0.008,0.015-0.011,0.032-0.02,0.046
					c-0.086,0.138-0.237,0.247-0.348,0.364c-0.208,0.219-0.38,0.46-0.563,0.699c-0.413,0.538-0.802,1.077-1.075,1.707
					c-0.249,0.576-0.399,1.21-0.561,1.821c-0.168,0.632-0.286,1.318-0.335,1.982c-0.033,0.448-0.67,0.511-0.841,0.034
					c-0.284-0.792-0.403-1.551-0.363-2.352C295.024,155.105,295.275,154.374,295.628,153.65z"/>
			</g>
			<path style="opacity:0.6;fill:#543884;" d="M303.976,109.946c0.934,1.556,1.553,3.308,2.021,5.054
				c0.488,1.818,0.605,3.745,1.283,5.511c0.506,1.318,1.38,2.266,2.972,2.625c2.251,0.508,4.659-0.03,6.948,0.37
				c3.444,0.602,5.416,2.928,7.327,5.628c0.66,0.932,1.349,1.887,2.279,2.568c1.576-0.147,3.09-1.159,3.945-2.533
				c1.12-1.8,1.26-4.06,0.91-6.15c-0.66-4.01-2.99-7.6-5.89-10.45c-0.86-0.84-1.78-1.68-2.75-2.49c-3.22-2.68-7.01-5.02-10.82-5.8
				c-3.472,0.764-6.807,1.885-9.918,3.392C302.915,108.373,303.487,109.132,303.976,109.946z"/>
			<path style="opacity:0.6;fill:#543884;" d="M359.78,120.14c-0.64,0.5-1.45,0.69-2.27,0.84c-1.17,0.21-2.37,0.34-3.18,1.16
				c-1.41,1.43-0.58,3.7,0.69,5.41c0.22,0.28,0.44,0.55,0.67,0.8c1.6,1.72,3.53,3.92,2.65,6.1c-0.63,1.56-2.56,2.27-4.21,1.97
				c-1.15-0.22-2.17-0.81-3.09-1.55c-0.4-0.31-0.79-0.65-1.15-1.01c-4.99-4.88-7.6-11.62-10.95-17.74
				c-1.76-3.22-3.84-6.31-6.48-8.88c-0.19-0.19-0.39-0.37-0.58-0.55c-1.2-1.14-2.42-2.26-2.97-3.73h0.04
				c6.72,0.28,17.09,2.29,23.62,6.23l0.01,0.01c1.73,0.6,3.44,1.31,5.1,2.12c0.35,0.42,0.69,0.85,1.02,1.28
				c0.87,1.12,1.75,2.29,2.11,3.66C361.17,117.63,360.9,119.27,359.78,120.14z"/>
		</g>
		<g>
			<path style="fill:#FFBE3B;" d="M380.11,428.25c-8.66,8.36-62.68,6.57-84.46,6.27c-17.69-0.24-73.33-15.63-96.85-22.53
				c-0.21-0.06-0.41-0.12-0.61-0.18c-5.12-1.51-8.61-2.58-9.69-2.96c-1.58-0.55-2.6-3.49-3.11-7.57c-0.01-0.1-0.03-0.2-0.04-0.3
				c-0.36-3.14-0.44-6.92-0.26-10.79c0-0.18,0.01-0.36,0.02-0.54c0.21-3.78,0.66-7.61,1.33-11.01c0.03-0.14,0.06-0.29,0.09-0.43
				c0.75-3.65,1.76-6.75,3.02-8.67c0.07-0.13,0.15-0.24,0.23-0.35c0.53-0.74,1.1-1.27,1.71-1.53c1.87-0.81,4.7-0.54,7.83,0.29
				c0.15,0.04,0.3,0.08,0.46,0.13c1.78,0.5,3.65,1.17,5.48,1.91c0.23,0.09,0.45,0.18,0.67,0.28c-0.86-0.59-1.67-1.19-2.42-1.81
				c-14.41-11.77-9.82-27.88-2.17-39.59c9.55-14.63,28.94-39.06,29.84-38.8c4.48,1.29,8.44,2.87,11.93,4.65
				c0.15,0.07,0.3,0.15,0.45,0.22c7.12,3.68,12.28,8.15,16,12.49c0.13,0.15,0.25,0.29,0.37,0.44c7.4,8.87,8.86,17.12,8.86,17.12
				c29.84,11.04,107.74,55.21,114.3,61.48C389.66,392.73,388.76,419.89,380.11,428.25z"/>
			<g>
				<path d="M340.42,412.99c-6.08-0.63-12.14-1.5-18.17-2.53c3.02,2.2,5.87,4.61,8.93,6.76c3.08,2.16,6.25,4.17,9.41,6.2
					c0.12,0.08,0.01,0.27-0.12,0.2c-3.36-1.77-6.54-3.83-9.64-6.02c-3.02-2.14-6.14-4.35-8.8-6.93c-0.08-0.08-0.03-0.2,0.05-0.24
					c-1.81-0.31-3.61-0.65-5.41-0.99c0.67,0.79,1.32,1.59,1.93,2.43c0.76,1.02,1.53,2.04,2.18,3.14c0.06,0.11-0.1,0.24-0.19,0.14
					c-0.83-0.93-1.54-1.96-2.28-2.97c-0.65-0.9-1.25-1.82-1.83-2.77c-2.41-0.45-4.81-0.93-7.21-1.43
					c-10.36-2.17-20.63-4.76-30.77-7.77c-10.19-3.02-20.26-6.47-30.17-10.32c-9.8-3.81-19.46-8.02-28.92-12.62
					c-1.33-0.65-2.65-1.3-3.97-1.97c-3-1.5-5.98-3.04-8.93-4.64c-0.42-0.21-0.84-0.43-1.25-0.67c0.23,0.09,0.45,0.18,0.67,0.28
					c-0.86-0.59-1.67-1.19-2.42-1.81c6.47,3.49,13.02,6.81,19.68,9.92c9.6,4.49,19.37,8.61,29.3,12.31
					c9.88,3.69,19.9,6.97,30.03,9.84c10.14,2.88,20.4,5.35,30.73,7.39c10.34,2.04,20.74,3.55,31.15,5.14
					c0.17,0.03,0.13,0.31-0.04,0.29C343.05,413.25,341.74,413.13,340.42,412.99z"/>
				<path d="M359.81,423.09c-1.96,1.91-4.51,0.39-6.62-0.34c-3.06-1.07-6.06,0.27-8.86,1.46c-2.86,1.2-5.67,1.98-8.8,1.93
					c-3.21-0.06-6.37-0.77-9.46-1.62c-3.3-0.9-6.58-1.9-9.87-2.86c-13.23-3.89-26.44-7.86-39.63-11.92
					c-13.24-4.07-26.45-8.22-39.63-12.46c-13.07-4.19-26.11-8.48-39.12-12.84c-0.3,4.77-0.37,9.55-0.18,14.33
					c0.07,1.65,0.18,3.29,0.3,4.93c0.05,0.02,0.09,0.03,0.13,0.04c0.11,0.04,0.1,0.23-0.03,0.22c-0.03,0-0.05-0.01-0.08-0.01
					c0.14,1.78,0.31,3.57,0.51,5.35c0.1,0.9,0.21,1.79,0.33,2.69c-0.21-0.06-0.41-0.12-0.61-0.18c-0.16-1.15-0.3-2.31-0.43-3.47
					c-0.17-1.48-0.29-2.98-0.41-4.47c-0.92-0.14-1.85-0.38-2.76-0.57c-1.13-0.24-2.26-0.48-3.4-0.72c-1.93-0.4-3.88-0.82-5.8-1.3
					c-0.01-0.1-0.03-0.2-0.04-0.3c1.95,0.35,3.89,0.77,5.83,1.19c1.17,0.26,2.34,0.51,3.51,0.77c0.87,0.19,1.77,0.34,2.63,0.58
					c-0.41-5.54-0.49-11.09-0.24-16.63c0.05-0.94,0.11-1.87,0.17-2.8c-0.02-0.08-0.01-0.16,0.02-0.23c0.04-0.55,0.08-1.1,0.12-1.64
					c-0.8-0.14-1.6-0.43-2.37-0.67c-0.84-0.26-1.68-0.52-2.52-0.8c-1.71-0.56-3.41-1.15-5.1-1.76c-0.32-0.12-0.64-0.23-0.96-0.35
					c0.03-0.14,0.06-0.29,0.09-0.43c0.36,0.14,0.73,0.28,1.09,0.41c1.7,0.61,3.4,1.2,5.11,1.77c0.83,0.28,1.67,0.56,2.5,0.83
					c0.72,0.23,1.48,0.43,2.18,0.74c0.16-1.91,0.35-3.82,0.59-5.72c0.17-1.3,0.35-2.6,0.56-3.9c-3.03-0.84-6.02-1.84-9.01-2.8
					c0.07-0.13,0.15-0.24,0.23-0.35c2.95,0.92,5.92,1.8,8.82,2.85c0.05-0.28,0.09-0.57,0.14-0.86c0.18-1.07,0.35-2.15,0.58-3.23
					c0.15,0.04,0.3,0.08,0.46,0.13c-0.19,1.16-0.41,2.32-0.59,3.48c-0.03,0.23-0.06,0.45-0.1,0.68c0.05,0.07,0.04,0.16-0.03,0.2
					c-0.25,1.74-0.49,3.48-0.68,5.23c-0.22,2.03-0.39,4.05-0.53,6.08c3.08,1.03,6.15,2.05,9.23,3.07
					c13.04,4.33,26.11,8.58,39.2,12.75c13.1,4.16,26.22,8.25,39.36,12.26c13.12,4,26.25,7.99,39.43,11.75
					c3.17,0.91,6.41,1.74,9.72,1.9c3.28,0.16,6.24-0.56,9.24-1.82c2.52-1.06,5.22-2.3,8.02-1.85c2.37,0.39,5.83,3.16,7.72,0.39
					c1.27-1.86,0.77-4.58-0.14-6.47c-1.22-2.54-3.06-4.7-5.14-6.58c-2.13-1.94-4.51-3.59-6.9-5.18c-2.54-1.69-5.12-3.32-7.74-4.87
					c-10.57-6.28-21.74-11.49-33.16-16.02c-11.43-4.54-23.12-8.43-34.85-12.13c-5.85-1.85-11.71-3.65-17.57-5.47
					c-5.47-1.69-11.07-3.19-16.29-5.58c-4.9-2.25-9.31-5.5-12.05-10.24c-2.58-4.46-3.58-9.71-3.42-14.83
					c0.26-8.37,3.62-15.92,7.89-22.96c-0.03-0.01-0.05-0.04-0.03-0.08c1.55-2.65,3.24-5.2,5.05-7.68c2.37-3.27,4.96-6.41,7.69-9.39
					c0.15,0.07,0.3,0.15,0.45,0.22c-3.44,3.74-6.62,7.69-9.59,11.83c-0.82,1.24-1.62,2.49-2.4,3.76
					c-6.07,9.96-10.85,21.68-7.46,33.43c1.57,5.45,4.92,9.97,9.69,13.05c4.86,3.13,10.49,4.79,15.96,6.49
					c11.85,3.68,23.74,7.25,35.51,11.19c11.66,3.91,23.21,8.17,34.4,13.27c5.58,2.53,11.07,5.27,16.41,8.27
					c5.25,2.95,10.46,6.09,15.32,9.65c2.22,1.63,4.35,3.41,6.12,5.52c1.54,1.84,3.03,4.05,3.45,6.45
					C361.28,419.59,361.16,421.78,359.81,423.09z"/>
				<path d="M196.68,392.97c-3.9-0.65-7.8-1.57-11.59-2.78c0-0.18,0.01-0.36,0.02-0.54c3.85,1.13,7.72,2.16,11.64,3.06
					C196.92,392.75,196.85,392.99,196.68,392.97z"/>
				<path d="M259.93,307.87c-3.21,3.66-6.77,7.01-10.62,9.99c-3.77,2.93-7.81,5.52-12.08,7.67c-2.12,1.07-4.3,2.04-6.52,2.9
					c-2.24,0.86-4.55,1.72-6.92,2.19c-0.17,0.03-0.23-0.21-0.07-0.26c2.54-0.92,5.13-1.69,7.63-2.71c2.47-1.01,4.89-2.17,7.24-3.45
					c7.91-4.31,15.03-10,20.97-16.77C259.69,307.58,259.81,307.72,259.93,307.87z"/>
			</g>
		</g>
		<g>
			<path style="fill:#BF5656;" d="M237.047,295.524c0,0-4.472,16.513-3.44,18.921c1.032,2.408,71.556,27.177,74.652,28.554
				c3.096,1.376-3.44,3.784,4.472,6.536c7.912,2.752,30.618,12.729,34.402,16.513c3.784,3.784,2.408-8.257-9.632-17.545
				c-12.041-9.288-71.212-48.163-74.308-49.539S239.111,294.492,237.047,295.524z"/>
			<path style="fill:#BF5656;" d="M238.209,308.409c7.654,1.537,15.644,0.614,23.178-1.146c3.497-0.817,6.938-1.854,10.334-3.019
				c-4.7-3.014-7.873-4.99-8.529-5.281c-3.096-1.376-24.081-4.472-26.145-3.44c0,0-1.739,6.422-2.798,11.84
				C235.543,307.784,236.862,308.139,238.209,308.409z"/>
		</g>
		<g>
			<path style="fill:#BF5656;" d="M438.158,168.392c0.392,0.271,13.747,15.068,12.425,17.448
				c-1.322,2.379-18.109-9.385-18.241-13.879C432.21,167.467,436.44,167.203,438.158,168.392z"/>
			<path style="fill:#BF5656;" d="M446.088,194.691c-1.984,2.651-7.141,6.483-11.234,11.766c-0.039,0.048-0.077,0.097-0.116,0.145
				c-4.064,5.215-8.389,8.592-13.895,9.105c-5.554,0.532-12.821-2.903-12.821-2.903s9.512-24.055,15.327-34.369
				c5.825-10.305,9.657-14.804,12.163-14.137c2.516,0.658,11.108,17.049,8.728,18.762c-1.616,1.171,0.726,4.896,1.78,7.992
				c0.01,0.029,0.019,0.058,0.029,0.087C446.523,192.572,446.717,193.859,446.088,194.691z"/>
			<path style="fill:#BF5656;" d="M446.088,194.691c-1.984,2.651-7.141,6.483-11.234,11.766c-0.039,0.048-0.077,0.097-0.116,0.145
				c-1.393,0.619-2.787,1.229-4.17,1.848c-1.258,0.561-2.787,1.103-3.938,0.339c-2.013-1.335-0.377-3.387-0.455-5.119
				c-0.087-1.916-1.48-3.696-1.693-5.68c-0.232-2.235,0.193-4.49,0.706-6.686c1.906-8.176,5.099-16.052,9.405-23.261
				c3.329,6.609,6.647,13.227,9.976,19.836c0.513,1.026,1.045,2.09,1.451,3.174c0.01,0.029,0.019,0.058,0.029,0.087
				C446.523,192.572,446.717,193.859,446.088,194.691z"/>
			<path style="fill:#F5E1DA;" d="M465.681,189.535c-0.729-2.195-2.722-3.835-4.943-4.478c-2.222-0.643-4.633-0.378-6.818,0.38
				c-0.305,0.106-0.623,0.227-0.945,0.36l-22.828-17.136c0.412-3.182-0.086-6.532-1.423-8.841c-1.327-2.291-3.867-3.991-6.507-3.793
				c-2.64,0.197-5.062,2.66-4.744,5.288c0.157,1.297,0.895,2.448,1.242,3.707c0.347,1.26,0.131,2.885-1.048,3.449
				c-1.098,0.525-2.385-0.144-3.6-0.078c-1.942,0.106-3.34,2.257-3.071,4.182c0.27,1.926,1.828,3.481,3.612,4.255
				c2.368,1.028,5.26,1.063,7.803,0.934c0.353-0.018,0.688-0.067,1.016-0.13l23.553,17.681c0.214,2.44,0.926,4.921,1.971,6.871
				c0.719,1.343,1.697,2.629,3.082,3.263c1.385,0.635,3.238,0.427,4.149-0.794c1.216-1.631,0.298-4.126,1.354-5.864
				c1.222-2.012,4.205-1.846,6.185-3.118C465.666,194.424,466.41,191.73,465.681,189.535z"/>
			<path style="fill:#BF5656;" d="M420.049,192.184c0,0,5.948-2.511,9.253-5.551c3.304-3.04,8.592-11.896,10.178-9.385
				c1.586,2.511-1.851,9.649-6.08,17.448c-4.23,7.798-6.345,12.425-12.557,13.879"/>
		</g>
		<g>
			<path style="fill:#EC4176;" d="M280.43,301.53c-2.15,2.06-17.74,4.41-34.38,1.76c-5.71-0.91-10.67-2.33-14.67-3.93
				c-0.11-0.04-0.22-0.08-0.32-0.12c-7.46-3.02-11.51-6.58-10.88-8.3c0.9-2.44,34.38-68.89,37.73-75.12
				c0.03-0.05,0.05-0.09,0.07-0.14c0.04-0.06,0.07-0.13,0.12-0.2c0,0-0.01,0,0-0.01c0-0.01,0-0.01,0-0.01
				c0.02-0.03,0.04-0.06,0.06-0.09v-0.01l0.01-0.01c1.72-3.09,6.88-10.63,14.58-10.5c0.26,0,0.53,0.01,0.8,0.04
				c0.78,0.06,1.59,0.21,2.43,0.45C290.82,209.61,282.59,299.47,280.43,301.53z"/>
			<path d="M282.898,284.442l0.659-14.172c0.19-4.722,0.399-9.443,0.477-14.167c0.158-4.722,0.193-9.445,0.187-14.169
				c0-2.362-0.029-4.724-0.088-7.086l-0.088-3.544l-0.14-3.546c0.622,4.695,0.919,9.429,1.086,14.162
				c0.165,4.735,0.122,9.473,0.042,14.207c-0.162,4.733-0.356,9.464-0.711,14.186C283.969,275.035,283.529,279.75,282.898,284.442z"
				/>
			<path d="M288.65,199.01c-0.96,0.22-1.92,0.44-2.88,0.68c-3.81,0.94-7.49,2.43-10.89,4.4c-0.45,0.26-0.89,0.53-1.33,0.8
				c-1.27,0.8-2.51,1.67-3.69,2.61c-0.34,0.27-0.65,0.53-1.03,0.73c-0.38,0.2-0.75,0.42-1.1,0.67c-0.7,0.5-1.33,1.1-1.91,1.74
				c-2.47,2.81-3.87,6.49-5.38,9.86c-1.81,4.02-3.57,8.06-5.29,12.11c-3.46,8.17-6.74,16.42-9.84,24.73
				c-3.06,8.22-5.94,16.5-8.64,24.85c-1.85,5.7-3.59,11.43-5.29,17.17c-0.11-0.04-0.22-0.08-0.32-0.12
				c1.96-6.94,4.14-13.82,6.39-20.66c2.79-8.48,5.77-16.9,8.94-25.25c3.16-8.32,6.51-16.58,10.03-24.76c1.74-4.02,3.49-8.03,5.33-12
				c1.43-3.06,3.11-6.28,5.99-8.2c0.38-0.26,0.79-0.45,1.17-0.7c0.43-0.27,0.81-0.64,1.21-0.95c0.74-0.57,1.5-1.13,2.28-1.65
				c0.12-0.08,0.23-0.15,0.35-0.22c1.53-1.01,3.14-1.91,4.79-2.7c3.47-1.66,7.24-2.99,11.07-3.44
				C288.78,198.69,288.81,198.97,288.65,199.01z"/>
		</g>
	</g>
	<g>
		<path style="fill:#F5E1DA;" d="M480.663,363.335c-14.889,18.21-36.684,31.713-61.208,37.919c-3.55,1.021-6.751,2.368-6.234,3.619
			c0.541,1.309,2.859,0.844,4.289,0.391c-0.997,0.123-2.031,0.259-2.853,0.755c-0.822,0.496-1.365,1.464-0.986,2.318
			c0.491,1.104,2.103,1.199,3.412,1.19c1.383-0.009,2.193-0.285,3.839-0.46c-1.916,0.749-4.711,1.378-4.308,2.544
			c0.579,1.676,8.391,0.518,12.788-0.394c24.048-4.987,50.305-16.54,62.871-35.266"/>
		<path style="fill:#F5E1DA;" d="M480.663,363.335c-3.734,4.568-7.904,8.838-12.442,12.772c-0.002,0.101-0.004,0.202-0.006,0.303
			c-0.083,3.822-0.425,7.607-0.97,11.391c-0.56,3.881-1.538,7.63-2.806,11.296c11.435-5.902,21.421-13.587,27.835-23.147
			L480.663,363.335z"/>
		<path style="fill:#F5E1DA;" d="M635.66,307.3c-4.33,5.22-9.58,9.64-15.4,13.13c-0.21-0.25-0.43-0.49-0.64-0.74
			c-3.85-4.77-7.93-10.45-10.51-16.47c12.76-5.76,21.69-19.06,22.62-32.98c0.14-1.96,0.12-3.94-0.08-5.91
			c-1.65-16.34-14.94-30.81-31.08-33.85c10.36-1.02,21.59-0.58,30.7,3.92c2.73,1.34,5.27,3.05,7.53,5.19
			c7.31,6.94,10.45,17.36,10.74,27.44C649.97,281.54,644.93,296.14,635.66,307.3z"/>
		<path style="fill:#F5E1DA;" d="M628.95,348.22c-2.93,5.19-7.13,9.6-10.58,14.48c-1.66,2.35-3.16,4.89-4.2,7.56
			c-1.14,2.88-1.75,5.9-1.46,8.97c0.36,3.83,2.1,7.39,3.05,11.11c1.95,7.81,0.26,16.4-4.55,22.93c-0.53,0.71-1.1,1.4-1.69,2.06
			c-0.8,1.97-2.03,3.78-3.47,5.37c-3.38,3.74-7.89,6.34-12.66,7.97c-0.57,0.2-1.15,0.38-1.75,0.34c-0.6-0.03-1.22-0.33-1.47-0.87
			c-0.2-0.43-0.08-1,0.27-1.29c-0.73,0.39-1.49,0.76-2.31,0.82c-0.94,0.07-1.99-0.38-2.31-1.27c-0.26-0.76,0.11-1.61,0.74-2.12
			c-0.49,0.12-1.13-0.19-1.34-0.7c-0.27-0.68,0.02-1.47,0.43-2.08c1.44-2.15,4.13-2.98,6.49-4.05c2.67-1.21,5.1-2.91,7.18-4.97
			c1.37-2.47,2.47-5.05,3.14-7.79c1.87-7.65-0.62-16.91-7.81-20.55c-1.91-0.96-4.02-1.48-5.99-2.34
			c-4.53-1.95-7.99-5.66-10.07-10.03c-1.01,1.27-2.03,2.55-3.09,3.79c-4.84,5.68-10.12,10.85-15.49,16.05
			c-0.05,0.06-0.12,0.12-0.18,0.18c-13.42,12.97-30.36,21.01-49.67,19.2c-6.23-0.58-12.42-2.17-17.87-5.15
			c-8.23-4.52-13.89-11.76-19.39-19.01c-3.33-4.4-11.67-23.47-8.08-27.88c5.11-6.26,11.76-11.34,19.39-16.02
			c8.92-5.47,18.01-10.69,27.26-15.65c15.79-8.49,32.02-16.19,48.61-23.08c2.7-1.12,5.46-2.22,8.26-3.25
			c12.96-4.75,26.77-7.89,39.7-3.8c10.24,3.25,18.83,11.07,22.81,20.78c1.45,3.53,2.28,7.29,2.49,11.08
			C633.72,335.64,632.23,342.39,628.95,348.22z"/>
		<path style="fill:#543884;" d="M568.826,301.297c-0.165-0.121-0.319-0.242-0.484-0.352c-2.803,1.033-5.561,2.132-8.265,3.253
			c-16.585,6.891-32.818,14.596-48.612,23.08c-1.84,4.782-2.758,9.945-2.629,15.018c0.048,0.086,0.085,0.172,0.138,0.258
			c1.613,2.618,5.034,3.647,7.416,5.416c2.982,2.215,5.688,5.273,7.28,8.654c1.587,3.37,1.403,9.982,5.135,11.947
			c0.604,0.318,1.292,0.431,1.97,0.512c11.377,1.357,22.89-5.737,26.456-16.691c1.934-5.968,1.594-12.661,4.616-18.157
			c3.407-6.199,10.65-9.969,12.815-16.695C576.542,311.694,573.728,304.979,568.826,301.297z"/>
		<path style="fill:#F5E1DA;" d="M473.035,384.036c0,0-17.991-20.324-34.317-32.318c-16.326-11.994-21.323-16.326-16.326-31.985
			c4.998-15.659,18.324-9.329,41.647-8.329c23.322,0.999,39.314,5.331,43.979,6.997c0,0,25.654-6.33,27.32-1.999
			c1.666,4.331-13.66,11.994-13.66,11.994l3.998,5.997c0,0,31.651,2.332,31.985,6.997c0.333,4.664-17.759,13.518-32.752,17.849
			c0,0-4.441,5.307-11.551,8.398"/>
		<path style="fill:#543884;" d="M479.139,344.967c-3.428-2.424-6.215-6.096-6.564-10.28c-0.36-4.319,2.002-8.595,5.483-11.176
			c3.481-2.581,7.931-3.613,12.265-3.573c9.937,0.091,19.623,5.892,24.392,14.611c1.485,2.715,2.422,6.338,0.434,8.71
			c-0.949,1.133-2.38,1.722-3.753,2.271c-3.579,1.429-7.158,2.859-10.737,4.288C493.684,352.603,485.093,349.178,479.139,344.967z"
			/>
		<path style="fill:#F5E1DA;" d="M527.55,388.62c-4.34,7.56-9.49,13.73-15.13,18.76c-11.1,9.93-24.05,15.5-36.24,18.84
			c-14.55,4-28.02,4.8-35.93,6.05c-6.05,0.95-16.18,1.94-16.88,0.09c-0.49-1.28,3.33-2.13,5.96-3.06c-2.24,0.27-3.35,0.62-5.22,0.7
			c-1.78,0.08-3.95,0.05-4.57-1.16c-0.47-0.94,0.31-2.05,1.45-2.65c0.28-0.14,0.57-0.26,0.87-0.37c-1.27,0.12-2.39-0.05-2.76-0.84
			c-0.64-1.37,3.76-3.04,8.62-4.37c33.51-8.18,52.67-11.96,77.02-43.04L527.55,388.62z"/>
		<path style="fill:#FF7FA1;" d="M463.188,346.867c-1.771-3.86-4.24-7.344-6.945-10.631c-1.967,0.867-4.412,1.2-6.245,1.325
			c-3.261,0.222-7.357,0.764-10.134-0.908c2.738,8.145,4.234,16.708,4.417,25.299c0.048,2.274,0.009,4.576,0.555,6.784
			c0.545,2.208,1.77,4.359,3.759,5.461c2.081,1.153,4.681,0.982,6.919,0.176c5.04-1.814,8.657-6.633,9.816-11.863
			C466.49,357.28,465.421,351.736,463.188,346.867z"/>
		<g>
			<path d="M496.997,332.358c0.502,2.382-2.885,5.113-7.565,6.1c-4.68,0.987-8.882-0.143-9.384-2.525
				c-0.502-2.382,2.885-5.113,7.565-6.1C492.293,328.846,496.494,329.976,496.997,332.358z"/>
			<path style="fill:#FFFFFF;" d="M494.417,333.319c0,1.23-1.095,2.227-2.446,2.227c-1.351,0-2.446-0.997-2.446-2.227
				c0-1.23,1.095-2.227,2.446-2.227C493.322,331.092,494.417,332.089,494.417,333.319z"/>
			<ellipse style="fill:#FFFFFF;" cx="487.298" cy="333.282" rx="0.986" ry="0.949"/>
		</g>
		<path style="fill:#543884;" d="M512.42,407.38c-11.1,9.93-24.05,15.5-36.24,18.84c1.71-2.88,2.63-6.2,4.02-9.25
			c1.54-3.39,4.03-6.71,7.63-7.63c2.73-0.69,5.76,0.1,8.34-1.04c2.32-1.03,3.71-3.37,5.29-5.36c1.57-2,3.88-3.89,6.38-3.41
			c3.04,0.58,4.33,4.22,4.55,7.31C512.4,407.02,512.41,407.2,512.42,407.38z"/>
		<path style="fill:#543884;" d="M628.95,348.22c-2.93,5.19-7.13,9.6-10.58,14.48c-1.66,2.35-3.16,4.89-4.2,7.56
			c-2.52-1.15-4.83-3.18-6.22-5.17c-2.93-4.19-3.49-9.93-1.41-14.6c1.4-3.17,3.92-5.87,4.67-9.25c1.13-5.08-1.94-10.58-0.13-15.45
			c1.39-3.75,5.56-6.03,9.55-5.87c4,0.15,7.7,2.42,10.28,5.47c0.95,1.11,1.76,2.33,2.43,3.62
			C633.72,335.64,632.23,342.39,628.95,348.22z"/>
		<path style="fill:#543884;" d="M638.04,263.04c-0.24,3.48-2.92,7.01-6.31,7.2c0.14-1.96,0.12-3.94-0.08-5.91
			c-1.65-16.34-14.94-30.81-31.08-33.85c10.36-1.02,21.59-0.58,30.7,3.92c-0.06,2.64-0.71,5.26-0.51,7.89
			c0.29,3.69,2.25,7.02,4.03,10.27C636.58,255.81,638.3,259.34,638.04,263.04z"/>
		<g>
			<path d="M465.555,331.461c0.234-0.239-0.069-0.658-0.364-0.472c-6.997,4.396-15.258,6.806-23.496,5.048
				c-3.878-0.828-7.819-2.577-10.528-5.551c-1.641-1.802-2.733-4.11-3.069-6.508c0.046-0.394,0.055-0.793,0.01-1.194
				c-0.01-0.085-0.058-0.158-0.12-0.22c-0.014-1.228,0.178-2.459,0.609-3.638c0.61,0.485,1.303,0.876,2,1.17
				c0.789,0.333,1.646,0.606,2.516,0.519c1.188-0.118,2.277-0.651,2.911-1.705c0.757-1.259,0.52-2.742-0.393-3.833
				c-0.065-0.077-0.145-0.14-0.217-0.21c-0.356-0.572-0.864-1.059-1.477-1.385c-0.41-0.218-0.845-0.361-1.288-0.478
				c-0.21-0.095-0.423-0.183-0.642-0.262c-1.332-0.48-2.946-0.464-4.289-0.042c-0.813,0.256-1.459,0.854-1.689,1.69
				c-0.115,0.429-0.115,0.857,0,1.286c0.035,0.126,0.096,0.236,0.148,0.352c0.089,0.451,0.308,0.88,0.634,1.255
				c0.293,0.337,0.643,0.633,1.012,0.907c0.089,0.1,0.177,0.199,0.273,0.293c-0.042,0.027-0.081,0.062-0.107,0.116
				c-0.843,1.715-1.176,3.479-1.122,5.21c-0.514,0.937-1.125,1.804-1.951,2.523c-0.467,0.407-1.16,0.882-1.805,0.92
				c-0.501,0.029-0.625-0.318-0.74-0.748c-0.384-1.433-0.133-3.107,0.132-4.542c0.328-1.778,0.97-3.413,1.852-4.989
				c0.164-0.293-0.258-0.53-0.445-0.26c-0.954,1.375-1.73,2.876-2.387,4.414c-0.633,1.483-1.16,3.07-1.336,4.68
				c-0.167,1.53,0.475,3.129,2.044,3.618c1.651,0.516,3.227-0.589,4.226-1.806c0.298-0.363,0.567-0.757,0.801-1.17
				c0.977,3.694,3.651,7.01,7.02,9.036c4.684,2.816,10.493,3.658,15.975,3.013c0.042,0.064,0.086,0.13,0.122,0.191
				c0.372,0.622,0.73,1.249,1.077,1.885c0.722,1.324,1.326,2.712,1.803,4.143c0.948,2.846,1.287,5.748,1.493,8.722
				c0.029,0.413,0.704,0.573,0.776,0.105c0.469-3.049-0.028-6.272-1.015-9.173c-0.497-1.461-1.13-2.871-1.896-4.211
				c-0.361-0.631-0.771-1.237-1.211-1.816c1.306-0.205,2.587-0.492,3.823-0.859C459.154,336.321,462.679,334.399,465.555,331.461z"
				/>
			<path d="M551.114,341.486c-3.635-1.478-8.089-1.278-11.934-1.005c-3.802,0.27-7.988,0.788-11.438,2.499
				c-0.452,0.224-0.103,0.804,0.314,0.745c1.96-0.273,3.893-0.779,5.848-1.109c1.89-0.32,3.784-0.559,5.698-0.667
				c1.836-0.103,3.676-0.104,5.512-0.002c1.966,0.109,3.923,0.387,5.896,0.298C551.469,342.225,551.507,341.646,551.114,341.486z"/>
			<path d="M530.363,345.06c-0.118-0.066-0.229-0.143-0.368-0.153c-0.095-0.007-0.191-0.001-0.286-0.001
				c-0.214,0.001-0.429,0.002-0.643,0.003c-0.421,0.002-0.841,0.005-1.262,0.007c-0.128,0.001-0.236,0.108-0.236,0.236
				c0,0.14,0.109,0.222,0.236,0.236c0.421,0.047,0.841,0.095,1.262,0.142c0.206,0.023,0.413,0.047,0.619,0.07
				c0.1,0.011,0.208,0.035,0.309,0.033c0.124-0.003,0.254-0.08,0.368-0.128C530.546,345.428,530.517,345.146,530.363,345.06z"/>
			<path d="M530.352,347.482c-0.084-0.1-0.161-0.197-0.278-0.258c-0.103-0.053-0.22-0.092-0.328-0.133
				c-0.22-0.082-0.444-0.15-0.672-0.205c-0.465-0.111-0.944-0.168-1.422-0.169c-0.359-0.001-0.36,0.557,0,0.558
				c0.438,0.001,0.87,0.05,1.296,0.154c0.213,0.052,0.422,0.116,0.628,0.191c0.098,0.036,0.194,0.084,0.293,0.118
				c0.116,0.039,0.241,0.031,0.362,0.036C530.391,347.783,530.441,347.588,530.352,347.482z"/>
			<g>
				<path d="M578.586,371.769c-2.309-5.1-3.697-10.616-4.312-16.206c-0.66-5.593-0.298-11.309,0.955-16.818
					c0.637-2.755,1.62-5.421,2.754-8.007c1.227-2.539,2.568-5.075,4.479-7.198c1.845-2.151,4.075-4.014,6.646-5.229
					c1.275-0.623,2.65-1.02,4.033-1.281c1.385-0.257,2.814-0.309,4.195-0.079c-2.792-0.191-5.576,0.539-7.989,1.842
					c-2.442,1.274-4.529,3.142-6.235,5.286c-3.436,4.302-5.539,9.572-6.815,14.92c-1.312,5.365-1.657,10.959-1.185,16.484
					c0.183,2.769,0.623,5.521,1.205,8.241C576.881,366.45,577.619,369.146,578.586,371.769z"/>
				<path d="M614.616,299.89c2.643,1.272,5.003,3.041,7.152,5.027c1.054,1.018,2.058,2.095,2.944,3.269
					c0.882,1.177,1.635,2.46,2.172,3.823c-0.909-1.151-1.863-2.216-2.828-3.27c-0.993-1.03-2.001-2.042-3.043-3.023
					C618.933,303.746,616.766,301.872,614.616,299.89z"/>
			</g>
			<path d="M530.326,316.03c-3.209,0.584-6.313,1.552-9.563,1.946c-3.193,0.387-6.395,0.412-9.605,0.297
				c-0.26-0.009-0.33,0.425-0.063,0.464c3.281,0.481,6.632,0.443,9.922,0.061c3.193-0.37,6.581-0.91,9.468-2.391
				C530.705,316.294,530.542,315.991,530.326,316.03z"/>
			<path d="M524.91,359.239c-0.695,0.367-1.29,0.997-1.889,1.501c-0.604,0.509-1.215,1.012-1.828,1.509
				c-1.347,1.093-2.738,2.138-4.173,3.114c-2.763,1.878-5.682,3.557-8.638,5.108c-0.191,0.1-0.059,0.429,0.149,0.353
				c3.232-1.172,6.23-2.77,9.056-4.725c1.394-0.964,2.741-1.991,4.025-3.097c0.627-0.541,1.234-1.099,1.821-1.683
				c0.287-0.286,0.605-0.581,0.898-0.895c-1.013,2.691-2.182,5.265-3.833,7.653c-1.819,2.631-4.12,4.925-6.588,6.947
				c-0.214,0.175,0.061,0.514,0.291,0.378c2.846-1.689,5.173-4.049,7.047-6.762c1.857-2.688,3.342-5.857,3.823-9.107
				c0.004-0.029-0.01-0.048-0.015-0.072c0.009-0.015,0.021-0.029,0.029-0.044C525.147,359.301,525.025,359.179,524.91,359.239z"/>
		</g>
	</g>
</g>
</svg>
