<?xml version="1.0" encoding="utf-8"?>
<!-- Generator: Adobe Illustrator 27.5.0, SVG Export Plug-In . SVG Version: 6.00 Build 0)  -->
<svg version="1.1" xmlns="http://www.w3.org/2000/svg" xmlns:xlink="http://www.w3.org/1999/xlink" x="0px" y="0px"
	 viewBox="0 0 500 500" style="enable-background:new 0 0 500 500;" xml:space="preserve">
<g id="BACKGROUND">
	<rect y="-0.005" style="fill:#FEDCA1;" width="500" height="500"/>
</g>
<g id="OBJECTS">
	<g>
		<g>
			<g>
				<path style="fill:#FEEFD5;" d="M123.01,170.693L0.5,168.133v-71.13c10.54-3.52,23.32-4.21,36.98,2.91
					c34.84,18.14,29.67,34.86,29.51,35.38c0.59-0.56,23.05-21.53,38.33,21.39C105.32,156.683,120.8,151.523,123.01,170.693z"/>
			</g>
		</g>
		<g>
			<g>
				<path style="fill:#FEEFD5;" d="M499.5,274.413v45.61l-112.92-3.37c0,0,10.89-16.15,31.74-8.58c0,0-8.74-11.05,16.54-12.75
					c19.69-1.32,25.82,4.36,27.57,6.94c-2.53-5.22-10.22-25.74,22.3-29.62C490.69,271.933,495.55,272.673,499.5,274.413z"/>
			</g>
		</g>
	</g>
	<g>
		<g>
			<path style="fill:#FFFFFF;" d="M162.816,147.506c-22.114,0-40.106-18.219-40.106-40.614s17.992-40.614,40.106-40.614
				c22.114,0,40.106,18.219,40.106,40.614S184.93,147.506,162.816,147.506z M162.816,67.278c-21.563,0-39.106,17.771-39.106,39.614
				c0,21.843,17.543,39.614,39.106,39.614c21.563,0,39.106-17.771,39.106-39.614C201.922,85.049,184.379,67.278,162.816,67.278z"/>
		</g>
		<g>
			<path style="fill:#FFFFFF;" d="M424.055,423.521c-8.729,0-15.83-7.101-15.83-15.829c0-8.729,7.102-15.829,15.83-15.829
				c8.728,0,15.829,7.101,15.829,15.829C439.884,416.42,432.784,423.521,424.055,423.521z M424.055,392.863
				c-8.178,0-14.83,6.652-14.83,14.829c0,8.177,6.652,14.829,14.83,14.829c8.177,0,14.829-6.652,14.829-14.829
				C438.884,399.515,432.232,392.863,424.055,392.863z"/>
		</g>
		<g>
			<path style="fill:#FFFFFF;" d="M434.9,499.995c-1.06-1.36-2.14-2.7-3.23-4.01c-3.66-4.78-6.96-9.83-8.3-15.66
				c-0.55-2.41-0.94-5.16,0.36-7.27c2.03-3.26,6.9-3.22,10.64-2.62c22.99,3.74,43.3,16.42,61.57,29.56h1.7
				c-18.64-13.5-39.42-26.7-63.11-30.54c-5.8-0.95-9.82,0.12-11.65,3.08c-1.5,2.43-1.05,5.56-0.48,8.01
				c0.78,3.38,2.18,6.49,3.92,9.43c-9.18-9.7-19.49-17.63-30.34-23.28c-16.6-8.64-35.15-12.23-52.22-10.1
				c-2.78,0.35-6.16,1.09-7.7,3.78c-1.05,1.82-0.91,4.02-0.69,5.94c1.34,11.99,5.45,23.54,11.82,33.68h1.19
				c-6.48-10.14-10.67-21.74-12.02-33.79c-0.2-1.76-0.33-3.77,0.57-5.33c1.32-2.31,4.41-2.97,6.95-3.28
				c16.88-2.11,35.21,1.44,51.64,9.99c12.89,6.71,25.01,16.67,35.36,29.02c0.88,1.15,1.78,2.27,2.67,3.39H434.9z"/>
		</g>
		<g>
			<path style="fill:#FFFFFF;" d="M136.73-0.005c-15.18,10.4-31.8,19.45-50.3,22.8c-5.77,1.04-9.82,0.04-11.7-2.88
				c-1.55-2.41-1.15-5.54-0.62-8c0.71-3.4,2.06-6.53,3.75-9.5c-9.01,9.86-19.17,17.97-29.92,23.81
				c-13.8,7.5-29.03,11.46-43.69,11.46c-1.43,0-2.84-0.04-4.25-0.11v-1.01c15.77,0.86,32.46-3.07,47.46-11.22
				c11.28-6.13,21.91-14.78,31.22-25.35h1.85c-2.48,3.75-4.52,7.73-5.45,12.12c-0.51,2.42-0.85,5.17,0.5,7.26
				c2.07,3.23,6.95,3.1,10.67,2.43c17.83-3.22,33.93-11.81,48.69-21.81H136.73z"/>
		</g>
	</g>
	<g>
		<path style="fill:#E0DEE7;" d="M427.325,239.525c0,36.4-10.96,70.23-29.78,98.38c0,0.01,0,0.01,0,0.01
			c-0.42,0.63-0.85,1.26-1.29,1.89c-14.67,21.36-33.9,39.35-56.3,52.55c-2.02,1.2-4.07,2.35-6.14,3.46c-4,2.16-8.1,4.16-12.28,6
			c-4.08,1.8-8.23,3.45-12.47,4.94c-11.29,4-23.11,6.88-35.33,8.51c-7.76,1.04-15.69,1.58-23.74,1.58
			c-59.77,0-112.64-29.58-144.76-74.9c-7.13-10.05-13.23-20.88-18.16-32.33c-3.78-8.75-6.87-17.87-9.21-27.28
			c-3.39-13.71-5.19-28.05-5.19-42.81c0-97.94,79.39-177.33,177.32-177.33C347.935,62.195,427.325,141.585,427.325,239.525z"/>
		<g>
			<g>
				<g>
					<path style="fill:#FF6E44;" d="M210.565,269.372c0,0-17.003-13.293-13.293-41.735c0,0,4.946-18.24,40.189-18.858
						c0,0,17.003-10.202,37.098,2.164c20.094,12.366,20.713,30.915,20.713,30.915S250.136,276.173,210.565,269.372z"/>
				</g>
				<g>
					<path style="fill:#FF6E44;" d="M325.975,367.605v0.53c0.06,7.35-0.39,14.54-1.52,21.35c-0.02,0.17-0.05,0.34-0.08,0.5
						c-0.69,4.09-1.63,8.05-2.84,11.83c-9.07,4.01-18.53,7.27-28.32,9.72c-0.17,0.05-0.35,0.09-0.53,0.13
						c-13.67,3.39-27.97,5.18-42.69,5.18c-19.21,0-37.71-3.06-55.04-8.71c-0.16-0.05-0.32-0.1-0.48-0.15
						c-10.76-3.55-21.07-8.1-30.81-13.55c-0.15-0.07-0.29-0.15-0.44-0.24c-5.3-2.98-10.43-6.22-15.37-9.72
						c-0.16-0.1-0.32-0.21-0.47-0.33c-9.98-7.09-19.2-15.19-27.5-24.15c-0.22-0.23-0.43-0.47-0.64-0.71l-0.01-0.01
						c-13.32-14.53-24.25-31.29-32.16-49.66c11.41-13.06,27.18-25.18,40.79-34.37c0.15-0.11,0.3-0.21,0.45-0.3
						c9.37-6.33,17.67-11.26,22.75-14.15c0.42-0.24,0.81-0.46,1.18-0.67c2.56-1.45,4.04-2.23,4.04-2.23
						c1.71-3.29,3.56-6.19,5.52-8.74c0.13-0.16,0.25-0.32,0.37-0.47c4.23-5.37,8.95-9.17,13.87-11.78c0.15-0.08,0.31-0.16,0.46-0.24
						c3.67-1.89,7.44-3.13,11.19-3.88c0.17-0.03,0.34-0.06,0.51-0.09c19.75-3.7,38.72,6.06,38.72,6.06
						c55.15-16.87,72.01,15.95,72.01,15.95s1.04,2.38,2.7,6.61c0.07,0.17,0.14,0.35,0.21,0.53c5.43,13.8,16.96,45.73,21.86,78.91
						c0.03,0.2,0.06,0.4,0.09,0.61c0.91,6.26,1.58,12.57,1.93,18.8c0.01,0.17,0.01,0.34,0.02,0.5
						C325.875,362.995,325.945,365.305,325.975,367.605z"/>
				</g>
				<g>
					<g>
						<path style="fill:#B0331F;" d="M157.525,287.215l-0.2-0.53c-3.28-8.51-4.99-17.51-5.08-26.56c-0.37,0.21-0.76,0.43-1.18,0.67
							c0.17,8.97,1.89,17.89,5.14,26.32l0.21,0.53c0.62,1.61,1.26,3.27,1.37,4.959c-0.678-0.045-1.407-0.505-2.058-0.985
							c-2.704-1.991-5.333-4.142-7.816-6.39l-0.806,0.889c2.513,2.276,5.174,4.452,7.91,6.468c0.827,0.609,1.778,1.185,2.78,1.219
							c-0.12,1.49-0.6,2.99-1.06,4.43c-4.41,13.83-8.62,27.85-12.58,41.91c-0.06,0.17-0.11,0.34-0.15,0.52
							c-2.88,10.21-5.63,20.45-8.24,30.66l1.16,0.3c2.76-10.8,5.68-21.63,8.74-32.42c0.1-0.38,0.21-0.76,0.32-1.14
							c3.76-13.24,7.74-26.43,11.89-39.46c0.59-1.85,1.2-3.77,1.13-5.78C158.945,290.845,158.225,288.995,157.525,287.215z"/>
					</g>
					<g>
						<g>
							<path style="fill:#FFFFFF;" d="M306.205,359.545c-0.19-0.03-0.39-0.06-0.58-0.09c-12.59-1.72-24.51-5.88-34.69-12.33
								c-3.96-2.51-7.76-5.4-11.43-8.2c-4.26-3.24-8.66-6.59-13.34-9.37c-22.83-13.56-53.05-12.82-75.2,1.84
								c-12.41,8.21-20.67,19.84-22.64,31.9c-0.64,3.94-0.65,8-0.65,11.92c-0.01,2.94-0.02,5.96-0.29,8.93
								c0.15,0.12,0.31,0.23,0.47,0.33c0.3-3.08,0.31-6.21,0.32-9.26c0-3.9,0.01-7.94,0.65-11.84
								c1.94-11.92,10.12-23.43,22.42-31.57c21.99-14.55,51.99-15.28,74.67-1.82c4.65,2.76,9.04,6.1,13.29,9.34
								c3.68,2.8,7.49,5.71,11.47,8.23c10.32,6.54,22.41,10.73,35.17,12.44c0.2,0.03,0.4,0.05,0.59,0.07L306.205,359.545z"/>
						</g>
					</g>
					<g>
						<g>
							<path style="fill:#FFFFFF;" d="M324.455,389.485c-0.02,0.17-0.05,0.34-0.08,0.5c-12.75-5.09-24.71-12.31-36.37-19.34
								c-1.6-0.96-3.2-1.93-4.8-2.88c-16.78-10.06-34.84-20.09-54.92-22.52c-22.01-2.68-42.64,5.55-52.53,20.94
								c-3.29,5.12-5.4,10.97-7.45,16.63c-0.97,2.71-1.99,5.51-3.12,8.21c-0.48,1.15-0.99,2.29-1.52,3.41
								c-0.15-0.07-0.29-0.15-0.44-0.24c0.52-1.11,1.02-2.23,1.5-3.37c1.13-2.68,2.14-5.47,3.11-8.18
								c2.06-5.68,4.18-11.56,7.5-16.73c5.12-7.96,13.11-14.13,23.12-17.83c9.14-3.38,19.76-4.57,29.89-3.34
								c20.17,2.45,38.29,12.5,55.12,22.59c1.6,0.95,3.2,1.92,4.8,2.88C299.875,377.225,311.785,384.405,324.455,389.485z"/>
						</g>
					</g>
					<g>
						<g>
							<path style="fill:#FFFFFF;" d="M293.215,411.535c-0.17,0.05-0.35,0.09-0.53,0.13c-2.29-2.74-4.63-5.49-7.05-8.11
								c-11.55-12.53-22.79-19.48-34.36-21.22c-5.79-0.87-12.1-0.51-19.29,1.12c-11.51,2.61-21.5,7.66-28.9,14.6
								c-3.23,3.03-5.96,6.44-8.13,10.08c-0.16-0.05-0.32-0.1-0.48-0.15c2.2-3.72,4.99-7.2,8.27-10.29
								c7.46-7,17.54-12.1,29.13-14.72c7.25-1.65,13.62-2.02,19.47-1.14c11.69,1.77,23.03,8.76,34.66,21.39
								C288.475,405.915,290.885,408.725,293.215,411.535z"/>
						</g>
					</g>
					<g>
						<g>
							<path style="fill:#FFFFFF;" d="M320.915,368.195c-4.18,0.06-7.74-0.92-10.3-2.81c-1.91-1.42-3.24-3.24-4.18-5.32
								c-0.08-0.17-0.16-0.34-0.23-0.52c-1.51-3.6-1.96-7.88-2.41-12.07c-0.29-2.68-0.58-5.45-1.14-8.01
								c-0.08-0.36-0.17-0.72-0.26-1.08c-0.04-0.17-0.09-0.33-0.14-0.49c-3.11-11.11-12.85-20.14-24.23-22.23
								c-2.96-0.55-6.14-0.7-9.21-0.85c-7.03-0.35-13.67-0.67-18.4-5.23c-6.59-6.35-5.06-17.57-0.14-25.37
								c8.03-12.75,22.15-19.05,32.58-22.08c2.79-0.81,5.95-1.19,9.33-1.19c3.08,0,6.34,0.31,9.66,0.9
								c-0.07-0.18-0.14-0.36-0.21-0.53c-3.26-0.56-6.46-0.86-9.49-0.86c-3.42,0-6.62,0.38-9.43,1.2
								c-10.51,3.06-24.75,9.41-32.86,22.29c-5.03,7.97-6.57,19.46,0.21,26c4.87,4.69,11.92,5.03,18.73,5.37
								c3.05,0.15,6.21,0.3,9.14,0.84c11.16,2.06,20.74,10.91,23.82,21.8c0.05,0.17,0.1,0.33,0.14,0.49
								c0.1,0.38,0.19,0.75,0.27,1.13c0.55,2.53,0.85,5.29,1.13,7.95c0.44,4.13,0.89,8.33,2.33,11.93c0.07,0.18,0.14,0.36,0.22,0.54
								c0.98,2.25,2.38,4.24,4.47,5.79c2.57,1.91,6.11,2.91,10.25,2.91h0.36c1.71-0.02,3.4-0.21,5.05-0.56v-0.53
								C324.315,367.965,322.625,368.175,320.915,368.195z"/>
						</g>
					</g>
					<g>
						<g>
							<path style="fill:#FFFFFF;" d="M166.185,295.745c-2.93,16.5-10.01,31.48-20.52,43.46c-0.48,0.55-0.97,1.1-1.47,1.64
								l-0.19-0.18l-0.18-0.16c0.11-0.12,0.22-0.24,0.33-0.36c0.62-0.68,1.23-1.37,1.83-2.08c20.34-23.86,26.68-59.5,15.82-88.91
								c0.13-0.16,0.25-0.32,0.37-0.47C167.675,263.335,169.055,279.535,166.185,295.745z"/>
						</g>
					</g>
					<g>
						<g>
							<path style="fill:#FFFFFF;" d="M137.285,299.145c-1.15,8.55-5.23,16.41-9.17,24c-0.35,0.69-0.71,1.37-1.06,2.05
								c-4.03,7.83-8.32,16.97-8.19,26.4c0.04,2.8,0.46,5.61,1.02,8.4c-0.22-0.23-0.43-0.47-0.64-0.71l-0.01-0.01
								c-0.49-2.54-0.84-5.11-0.87-7.67c-0.13-9.55,4.19-18.76,8.24-26.63c0.36-0.69,0.71-1.37,1.07-2.06
								c3.92-7.56,7.97-15.37,9.12-23.83c1.12-8.3-1.23-18.73-8.93-23.84c-0.25-0.17-0.51-0.33-0.78-0.49l0.26-0.43
								c0.33,0.2,0.65,0.4,0.97,0.62C136.055,280.215,138.425,290.755,137.285,299.145z"/>
						</g>
					</g>
					<g>
						<g>
							<path style="fill:#FFFFFF;" d="M161.805,331.245l-0.43-0.26c16.55-28.2,21.81-62.23,14.67-94.08
								c0.15-0.08,0.31-0.16,0.46-0.24C183.705,268.675,178.445,302.885,161.805,331.245z"/>
						</g>
					</g>
					<g>
						<g>
							<path style="fill:#FFFFFF;" d="M302.255,337.895c-0.17,0.02-0.33,0.04-0.5,0.06c-0.33,0.04-0.66,0.08-0.99,0.12
								c-1.54,0.18-3.13,0.37-4.69,0.5c-12.49,1.04-25.58-1.58-36.86-7.37c-8.14-4.18-11.67-9.32-15.77-15.28
								c-1.84-2.69-3.75-5.47-6.25-8.45c-4.72-5.62-11.28-9.24-17.63-12.73c-4.51-2.49-9.17-5.06-13.16-8.34
								c-7.59-6.23-13.34-15.66-16.19-26.55c-2.11-8.06-2.77-16.98-2.01-27.16c-0.17,0.03-0.34,0.06-0.51,0.09
								c-0.76,10.17-0.08,19.11,2.04,27.2c2.87,10.99,8.68,20.51,16.35,26.81c4.03,3.3,8.71,5.89,13.24,8.38
								c6.31,3.48,12.83,7.07,17.48,12.62c2.49,2.96,4.39,5.73,6.23,8.41c4.13,6.02,7.7,11.21,15.95,15.44
								c11.37,5.84,24.56,8.48,37.13,7.43c1.57-0.13,3.17-0.32,4.71-0.5c0.35-0.04,0.71-0.08,1.07-0.13
								c0.16-0.02,0.33-0.04,0.5-0.06L302.255,337.895z"/>
						</g>
					</g>
				</g>
				<g>
					<g>
						<path style="fill:#B0331F;" d="M200.584,246.827c-1.681-4.996-3.419-10.162-3.187-15.494
							c0.252-5.78,3.168-10.756,7.429-12.678l-0.493-1.094c-4.671,2.105-7.864,7.491-8.135,13.72
							c-0.241,5.555,1.613,11.066,3.248,15.929c3.402,10.114,7.152,19.59,15.556,24.38l0.595-1.043
							C207.56,265.966,203.909,256.713,200.584,246.827z"/>
					</g>
					<g>
						<path style="fill:#B0331F;" d="M212.156,271.879c-0.003-0.124-0.013-0.248-0.031-0.372c-0.101-0.686-0.53-1.54-1.407-1.692
							c-0.619-0.109-1.153,0.306-1.371,0.768c-0.007,0.016-0.015,0.031-0.021,0.048c-0.213,0.017-0.42,0.055-0.615,0.111
							c-1.011,0.296-1.609,1.071-1.561,2.022c0.034,0.656,0.396,1.263,0.994,1.666c0.655,0.441,1.462,0.559,2.155,0.318
							c0.492-0.171,0.915-0.501,1.232-0.924c0.073,1.113-0.357,2.365-0.8,3.504c-8.012,20.642-15.587,41.767-22.514,62.79
							l1.14,0.375c6.921-21.003,14.489-42.109,22.493-62.731c0.718-1.849,1.398-3.973,0.367-5.779
							C212.198,271.947,212.177,271.912,212.156,271.879z M209.906,273.614c-0.337,0.115-0.754,0.049-1.092-0.181
							c-0.282-0.189-0.452-0.456-0.466-0.73c-0.025-0.492,0.366-0.712,0.699-0.809c0.152-0.045,0.318-0.07,0.489-0.075
							c0.015,0.015,0.031,0.029,0.048,0.043l0.039-0.045c0.474,0.003,0.973,0.154,1.307,0.456
							C210.824,272.886,210.431,273.431,209.906,273.614z"/>
					</g>
					<g>
						<path style="fill:#B0331F;" d="M227.69,277.024c-0.169-0.113-0.355-0.211-0.554-0.291c-0.002-0.017-0.004-0.034-0.006-0.051
							c-0.059-0.431-0.363-0.88-0.829-1.059c11.813-0.847,23.386-3.441,34.426-7.765l-0.438-1.117
							c-11.601,4.544-23.792,7.183-36.234,7.843l0.064,1.199c0.344-0.018,0.686-0.054,1.03-0.075
							c-0.432,0.229-0.759,0.639-0.946,1.026c-0.055,0.112-0.102,0.228-0.142,0.346c-0.03,0.025-0.06,0.052-0.089,0.079
							c-1.523,1.416-1.509,3.645-1.377,5.625c1.474,22.07,2.387,44.474,2.713,66.587l1.2-0.017
							c-0.327-22.135-1.24-44.559-2.716-66.65c-0.081-1.219-0.118-2.542,0.285-3.583c0.176,0.499,0.481,0.941,0.899,1.25
							c0.593,0.438,1.398,0.568,2.154,0.34c0.691-0.205,1.218-0.677,1.445-1.292C228.905,278.526,228.566,277.608,227.69,277.024z
							 M227.449,279.002c-0.096,0.258-0.337,0.461-0.663,0.559c-0.391,0.114-0.813,0.057-1.097-0.155
							c-0.447-0.33-0.659-0.968-0.576-1.584c0.41-0.186,0.93-0.184,1.383-0.045l0.023,0.055c0.02-0.009,0.04-0.018,0.059-0.027
							c0.161,0.056,0.312,0.13,0.444,0.218C227.312,278.214,227.62,278.54,227.449,279.002z"/>
					</g>
				</g>
			</g>
			<g>
				<g>
					<g>
						<path style="fill:#E89A5C;" d="M255.715,196.315c-0.96,19.99-1.92,39.98-2.89,59.98c-1.92,1.69-10.16,8.61-22.4,8.31
							c-9.15-0.23-15.6-4.37-18.07-6.15l0.29-9.5l1.52-49.03c0.55-0.61,1.96-2.14,4.2-3.83c3.58-2.72,9.25-5.86,16.76-6.29
							C246.175,189.175,253.835,194.835,255.715,196.315z"/>
					</g>
					<g>
						<path style="fill:#BF6924;" d="M253.367,212.43c0.25,0.75-6.202,33.785-38.622,36.775l-2.1-0.25l1.52-49.03
							c0.55-0.61,1.96-2.14,4.2-3.83l38.549-0.954L253.367,212.43z"/>
					</g>
				</g>
				<g>
					<g>
						<path style="fill:#E89A5C;" d="M263.993,132.725c0,0-39.013-10.195-51.038,8c-7.5,6.91-9.94,12.86-10.7,17.19
							c-0.05,0.22-0.08,0.44-0.11,0.65c-0.15,1.04-0.44,5.19-1.02,13.51c-0.44,6.4-1.02,14.72-1.16,18.3
							c-0.27,7.05,0.33,17.78,4.81,32.34c2.19,1.75,7.09,5.2,14.12,5.97c3.6,0.39,7.78,0.1,12.39-1.5
							c15.83-5.51,23.75-23.41,23.75-23.41s3.53-5.85,7.05-12.77c0.5-0.98,0.99-1.97,1.48-2.99
							c-0.097,0.128-0.222,0.181-0.368,0.179C267.408,183.61,293.543,151.921,263.993,132.725z"/>
					</g>
					<g>
						<g>
							<path style="fill:#3E1B39;" d="M265.595,185.245c-0.64,0.9-1.32,1.82-2.03,2.77c-1.16,1.54-2.42,3.14-3.77,4.81
								c-0.39-0.28-1.69-1.28-2.21-3.16c-0.5-1.79,0.03-3.27,0.21-3.72c1.06-3.17-0.44-4.98-1.39-5.76
								c-0.52-0.43-0.9-1.02-1.07-1.67c-0.48-1.76-1.06-5.19,0.35-8.49c0.01-0.03,0.03-0.06,0.04-0.09
								c2.07-4.75-13.64-23.13-13.64-23.13s-21.39-12.46-27.91-5.91c-0.06,0.06-0.12,0.12-0.18,0.17c-0.37-0.13-0.7-0.24-1.04-0.34
								c-7.5,6.91-9.94,12.86-10.7,17.19c-0.89-1.24-6.75-10.31,2.95-19.77c0.49-0.47,1.02-0.95,1.59-1.43
								c6.96-5.83,20.56-12.36,34.37-12.36c11.47,0,23.09,4.51,31.16,17.7c0,0,3.68,11.26,4.2,13.05
								C277.975,160.125,277.255,168.955,265.595,185.245z"/>
						</g>
						<g>
							<g>
								<path style="fill:#FF42B3;" d="M274.135,184.525c-0.27,0.3-0.52,0.58-0.77,0.86c-2.63,2.89-4.46,4.54-4.46,4.54l-3.12-4.4
									l-0.19-0.28l-0.04-0.05l-0.02-0.02l-0.41-0.58l-2.26-3.18c-1.02-1.88-2.05-3.65-3.1-5.33c-0.18-0.29-0.35-0.58-0.53-0.86
									c-1.18-1.85-2.37-3.59-3.55-5.2c-0.97-1.35-1.95-2.61-2.9-3.79c-0.21-0.27-0.42-0.53-0.63-0.79
									c-2.64-3.2-5.12-5.79-7.23-7.83c-0.12-0.11-0.24-0.23-0.35-0.34c-0.25-0.24-0.49-0.47-0.72-0.69
									c-2.66-2.56-4.87-4.61-7.55-6.4c-0.28-0.19-0.57-0.37-0.86-0.55c-0.87-0.55-1.79-1.07-2.79-1.58
									c-2.01-1.01-3.66-1.63-6.79-2.73c-0.21-0.07-0.43-0.15-0.65-0.23c-2.2-0.77-5.09-1.79-9.19-3.29
									c-0.88-0.33-1.5-0.55-2.03-0.74c-0.37-0.13-0.7-0.24-1.04-0.34c-0.26-0.07-0.52-0.15-0.82-0.22
									c-0.52-0.13-2.59-0.63-4.6-1.18c-0.22-0.06-0.75-0.21-1.37-0.54c-0.27-0.14-0.56-0.32-0.84-0.54
									c-0.04-0.03-0.08-0.06-0.12-0.1c-0.04-0.02-0.08-0.05-0.12-0.09c-0.26-0.22-0.4-0.33-0.48-0.48
									c-0.73-1.36,1.52-3.84,2.32-4.5c1.97-1.63,4-3.21,6.08-4.71l1.04-0.74c4.86-3.41,10.03-6.37,15.52-8.64
									c13.17-5.45,27.84-6.14,41.02-0.4c4.01,1.75,7.81,4,11.24,6.71c1.25,0.99,2.97,2.13,3.88,3.48
									C300.205,150.365,283.345,174.105,274.135,184.525z"/>
							</g>
							<g>
								<g>
									<g>
										<path style="fill:#D43695;" d="M274.135,184.525c-0.27,0.3-0.52,0.58-0.77,0.86c-0.34-0.98-0.69-1.93-1.04-2.87
											c-0.11-0.32-0.23-0.63-0.35-0.94c-1.47-3.9-2.99-7.46-4.57-10.76c-0.15-0.31-0.29-0.61-0.44-0.9
											c-1.48-3.03-3.02-5.83-4.65-8.47c-0.48-0.77-0.96-1.53-1.46-2.28c-0.18-0.28-0.37-0.56-0.56-0.84
											c-2.06-3.04-4.25-5.83-6.57-8.37c-0.23-0.25-0.46-0.5-0.69-0.74c-2.51-2.69-5.16-5.08-7.95-7.17
											c-0.27-0.22-0.54-0.42-0.82-0.62c-1.03-0.75-2.08-1.46-3.15-2.13c-1.76-1.1-3.58-2.1-5.44-3c-0.33-0.17-0.66-0.33-1-0.48
											c-3.15-1.49-6.41-2.74-9.71-3.85c-0.37-0.13-0.74-0.26-1.11-0.37c-2.32-0.77-4.67-1.47-7.01-2.14
											c-0.45-0.13-0.9-0.26-1.34-0.38c-0.84-0.24-1.67-0.48-2.5-0.71l1.04-0.74c0.88,0.25,1.76,0.49,2.65,0.75h0.01l1.38,0.4
											c8.13,2.37,16.28,5.13,23.56,9.68c4.38,2.74,8.48,6.16,12.24,10.21c0.24,0.25,0.47,0.5,0.7,0.75
											c2.29,2.53,4.45,5.3,6.5,8.3l0.55,0.83c0.52,0.78,1.03,1.57,1.53,2.38c1.63,2.64,3.19,5.45,4.67,8.48v0.01
											c0.15,0.3,0.3,0.59,0.45,0.9C270.325,174.575,272.255,179.265,274.135,184.525z"/>
									</g>
								</g>
								<g>
									<g>
										<path style="fill:#D43695;" d="M218.085,128.775c-0.42,0.22-0.83,0.44-1.24,0.68c-4.14,2.34-7.8,5.54-10.68,9.33
											c-0.27-0.14-0.56-0.32-0.84-0.54c2.77-3.66,6.25-6.8,10.18-9.17c0.39-0.24,0.79-0.47,1.19-0.7h0.01L218.085,128.775z"/>
									</g>
								</g>
								<g>
									<g>
										<path style="fill:#D43695;" d="M215.121,141.428l-0.738-0.674c3.177-3.481,6.619-6.781,10.229-9.807l0.643,0.767
											C221.678,134.711,218.269,137.979,215.121,141.428z"/>
									</g>
								</g>
								<g>
									<g>
										<path style="fill:#D43695;" d="M225.683,145.523l-0.74-0.673c3.22-3.542,6.785-6.809,10.595-9.708l0.605,0.796
											C232.382,138.801,228.862,142.025,225.683,145.523z"/>
									</g>
								</g>
								<g>
									<g>
										<path style="fill:#D43695;" d="M245.475,141.735c-0.13,0.1-0.26,0.21-0.39,0.31c-3.12,2.48-6.08,5.21-8.78,8.14
											c-0.28-0.19-0.57-0.37-0.86-0.55c2.72-2.95,5.68-5.71,8.82-8.21c0.19-0.17,0.39-0.32,0.59-0.48L245.475,141.735z"/>
									</g>
								</g>
								<g>
									<g>
										<path style="fill:#D43695;" d="M254.585,149.415c-0.29,0.17-0.57,0.36-0.86,0.54c-3.26,2.16-6.33,4.61-9.15,7.32
											c-0.25-0.24-0.49-0.47-0.72-0.69c2.83-2.73,5.91-5.2,9.18-7.37c0.28-0.19,0.56-0.38,0.85-0.55
											C254.125,148.915,254.355,149.165,254.585,149.415z"/>
									</g>
								</g>
								<g>
									<g>
										<path style="fill:#D43695;" d="M261.635,158.545c-0.26,0.2-0.52,0.41-0.78,0.62c-2.82,2.2-5.52,4.57-8.07,7.07
											c-0.21-0.27-0.42-0.53-0.63-0.79c2.57-2.51,5.3-4.9,8.14-7.12c0.26-0.21,0.53-0.42,0.79-0.61L261.635,158.545z"/>
									</g>
								</g>
								<g>
									<g>
										<path style="fill:#D43695;" d="M268.285,170.315c-0.3,0.16-0.59,0.33-0.88,0.5c-2.67,1.57-5.24,3.34-7.64,5.27
											c-0.18-0.29-0.35-0.58-0.53-0.86c2.44-1.95,5.03-3.73,7.73-5.31c0.29-0.17,0.58-0.34,0.87-0.5
											C267.985,169.715,268.135,170.005,268.285,170.315z"/>
									</g>
								</g>
								<g>
									<g>
										<path style="fill:#D43695;" d="M272.775,182.305l-0.45,0.21l-3.37,1.55c-0.1-0.32-0.21-0.64-0.34-0.94l3.36-1.55
											l0.39-0.18L272.775,182.305z"/>
									</g>
								</g>
							</g>
						</g>
					</g>
					<g>
						<g>
							<g>
								<g>
									<g>
										<g>
											<path style="fill:#E89A5C;" d="M268.955,184.065c-0.1-0.32-0.21-0.64-0.34-0.94c-0.76-1.87-1.92-3.29-3.42-4
												c-4.24-1.99-9.63,2.42-12.04,9.84c-2.41,7.43-0.92,15.06,3.32,17.05c4.24,1.99,9.63-2.41,12.04-9.84
												C269.935,191.815,270.005,187.385,268.955,184.065z M264.705,192.655c-0.85-0.15-1.49-0.71-2.41-0.7
												c-0.74,0.01-1.48,0.18-2.1,0.58c-0.51,1.05-0.51,1.87,0.05,3.1c0.18,0.38-0.06,0.81-0.48,0.84
												c-1.98,0.16-1.64-2.82-1.19-3.97c0.95-2.41,2.75-4.27,5.11-5.24c0.55-0.23,0.64,0.61,0.3,0.88
												c-0.93,0.75-1.85,1.61-2.62,2.57c0.23-0.08,0.47-0.13,0.72-0.16c1.09-0.12,2.78,0.13,3.23,1.29
												C265.475,192.275,265.185,192.745,264.705,192.655z"/>
										</g>
										<g>
											<path style="fill:#E89A5C;" d="M264.705,192.655c-0.85-0.15-1.49-0.71-2.41-0.7c-0.74,0.01-1.48,0.18-2.1,0.58
												c-0.51,1.05-0.51,1.87,0.05,3.1c0.18,0.38-0.06,0.81-0.48,0.84c-1.98,0.16-1.64-2.82-1.19-3.97
												c0.95-2.41,2.75-4.27,5.11-5.24c0.55-0.23,0.64,0.61,0.3,0.88c-0.93,0.75-1.85,1.61-2.62,2.57
												c0.23-0.08,0.47-0.13,0.72-0.16c1.09-0.12,2.78,0.13,3.23,1.29C265.475,192.275,265.185,192.745,264.705,192.655z"/>
										</g>
									</g>
								</g>
							</g>
							<g>
								<g>
									<g>
										<g>
											<g>
												<path style="fill:#B0331F;" d="M263.985,188.145c-0.93,0.75-1.85,1.61-2.62,2.57c-0.29,0.36-0.56,0.74-0.79,1.13
													c-0.15,0.25-0.28,0.47-0.38,0.69c-0.51,1.05-0.51,1.87,0.05,3.1c0.18,0.38-0.06,0.81-0.48,0.84
													c-1.98,0.16-1.64-2.82-1.19-3.97c0.95-2.41,2.75-4.27,5.11-5.24C264.235,187.035,264.325,187.875,263.985,188.145z"/>
											</g>
										</g>
									</g>
								</g>
							</g>
							<g>
								<g>
									<g>
										<g>
											<g>
												<path style="fill:#B0331F;" d="M264.705,192.655c-0.85-0.15-1.49-0.71-2.41-0.7c-0.74,0.01-1.48,0.18-2.1,0.58
													c-0.19,0.11-0.37,0.25-0.53,0.41c-0.31,0.31-0.8-0.12-0.55-0.48c0.58-0.81,1.33-1.46,2.25-1.75
													c0.23-0.08,0.47-0.13,0.72-0.16c1.09-0.12,2.78,0.13,3.23,1.29C265.475,192.275,265.185,192.745,264.705,192.655z"/>
											</g>
										</g>
									</g>
								</g>
							</g>
						</g>
						<g>
							<path style="fill:#FFFFFF;" d="M261.561,202.46c0,1.233-0.999,2.232-2.232,2.232c-1.233,0-2.232-0.999-2.232-2.232
								s0.999-2.232,2.232-2.232C260.562,200.228,261.561,201.227,261.561,202.46z"/>
						</g>
					</g>
					<g>
						<g>
							<g>
								<g>
									<g>
										<g>
											<g>
												<path style="fill:#131428;" d="M211.524,172.594c-0.203,2.315-1.144,4.123-2.101,4.039
													c-0.957-0.084-1.569-2.029-1.366-4.344c0.203-2.315,1.144-4.123,2.101-4.039
													C211.115,168.335,211.727,170.279,211.524,172.594z"/>
											</g>
										</g>
									</g>
								</g>
							</g>
							<g>
								<g>
									<g>
										<g>
											<g>
												<path style="fill:#131428;" d="M238.503,178.239c-0.203,2.315-1.144,4.123-2.101,4.039
													c-0.958-0.084-1.569-2.029-1.366-4.343c0.203-2.315,1.144-4.123,2.101-4.039
													C238.094,173.98,238.706,175.924,238.503,178.239z"/>
											</g>
										</g>
									</g>
								</g>
							</g>
						</g>
						<g>
							<g>
								<path style="fill:#B0331F;" d="M218.56,194.461l-4.779-0.105c-1.958-0.042-4.332-0.331-5.311-2.203
									c-1.238-2.369,0.921-4.986,1.959-6.245c2.713-3.289,4.973-6.93,6.714-10.821c0.376-0.839,0.737-1.73,0.673-2.594
									l1.197-0.088c0.083,1.143-0.337,2.193-0.775,3.172c-1.786,3.99-4.103,7.722-6.884,11.094
									c-1.331,1.613-2.587,3.459-1.821,4.925c0.687,1.314,2.645,1.523,4.274,1.559l4.779,0.104L218.56,194.461z"/>
							</g>
						</g>
						<g>
							<g>
								<path style="fill:#3E1B39;" d="M261.771,179.634l-1.152-1.635l-16.3,11.493c-1.34-2.265-4.242-4.615-7.989-6.211
									c-4.71-2.007-9.344-2.219-11.735-0.777c-1.233-1.098-2.692-1.939-4.29-2.419c-2.498-0.749-5.2-0.599-7.599,0.383
									c-1.012-2.352-3.75-4.816-7.433-6.385c-5.466-2.329-10.925-1.804-12.194,1.173c-1.269,2.977,2.134,7.279,7.6,9.608
									c5.466,2.329,10.925,1.804,12.194-1.173c0.165-0.388,0.247-0.8,0.26-1.226c2.044-0.923,4.456-1.105,6.597-0.463
									c1.281,0.384,2.475,1.073,3.49,1.965c-0.013,0.027-0.032,0.051-0.044,0.079c-1.269,2.977,2.564,7.462,8.56,10.017
									c5.996,2.555,11.885,2.213,13.154-0.764c0.247-0.579,0.295-1.217,0.177-1.885L261.771,179.634z"/>
							</g>
						</g>
						<g>
							<g>
								<g>
									<g>
										<path style="fill:#3E1B39;" d="M217.493,163.785c1.441-1.24-0.068-3.573-0.976-4.712c-0.925-1.16-2.167-2.152-3.515-2.774
											c-1.553-0.716-3.244-1.041-4.955-0.891c-1.726,0.151-3.934,0.642-4.929,2.187c-0.563,0.875,0.19,2.2,1.208,2.18
											c0.738-0.014,1.443-0.423,2.139-0.646c0.616-0.198,1.231-0.311,1.877-0.342c1.19-0.058,2.511,0.188,3.512,0.65
											c1.12,0.517,1.94,1.213,2.735,2.142c0.388,0.454,0.648,0.876,0.975,1.38C215.905,163.488,216.806,164.375,217.493,163.785
											L217.493,163.785z"/>
									</g>
								</g>
							</g>
							<g>
								<g>
									<g>
										<path style="fill:#3E1B39;" d="M230.486,163.489c0.801,0.336,1.708,0.468,2.551,0.669
											c0.805,0.191,1.607,0.392,2.407,0.602c1.603,0.421,3.238,0.83,4.79,1.416c1.197,0.451,2.202,1.139,2.979,2.166
											c0.849,1.123,1.342,2.466,2.073,3.66c0.916,1.496,3.012,0.358,2.542-1.251c-0.929-3.189-3.023-6.145-6.14-7.458
											c-1.623-0.684-3.406-1.038-5.116-1.436c-0.906-0.21-1.814-0.409-2.726-0.596c-1.004-0.205-2.067-0.488-3.095-0.472
											c-0.657,0.011-1.144,0.599-1.196,1.219C229.496,162.703,229.854,163.223,230.486,163.489L230.486,163.489z"/>
									</g>
								</g>
							</g>
						</g>
						<g>
							<g>
								<path style="fill:#B92E17;" d="M241.605,202.055c-2.23,2.9-7.3,8.62-15.21,10.85c-5.53,1.57-9.02,0.46-9.92,0.14
									c-1.43-0.5-4.19-1.46-5.04-3.77c-0.61-1.68,0.34-2.56-0.56-4.2c-0.83-1.51-2.07-1.54-2.93-3.21
									c-0.54-1.05-0.59-2.1-0.56-2.8c0.6,0.1,1.21,0.19,1.82,0.29c5.31,0.81,10.99,1.49,17,1.97c2.61,0.21,5.16,0.37,7.64,0.48
									c2.43,0.12,4.8,0.2,7.1,0.24C241.165,202.045,241.385,202.055,241.605,202.055z"/>
							</g>
							<g>
								<path style="fill:#B92E17;" d="M241.605,202.055c-2.23,2.9-7.3,8.62-15.21,10.85c-5.53,1.57-9.02,0.46-9.92,0.14
									c-1.43-0.5-4.19-1.46-5.04-3.77c2.57-6.95,19.19-7.44,22.41-7.47c2.43,0.12,4.8,0.2,7.1,0.24
									C241.165,202.045,241.385,202.055,241.605,202.055z"/>
							</g>
							<g>
								<path style="fill:#FFFFFF;" d="M240.945,202.045c-3.61,1.92-9.44,4-17.34,3.58c-8.96-0.47-12.79-3.84-14.4-6.27
									c5.31,0.81,10.99,1.49,17,1.97C231.355,201.735,236.285,201.965,240.945,202.045z"/>
							</g>
						</g>
					</g>
				</g>
			</g>
			<g>
				<g>
					<g>
						<g>
							<g>
								<g>
									<path style="fill:#3E1B39;" d="M176.541,172.162l-20.29,64.038c-1.792,5.656-7.898,8.81-13.554,7.017l-20.785-6.573
										c-0.89-0.293-1.706-0.673-2.465-1.144c-4.063-2.559-6.09-7.651-4.572-12.413l20.29-64.038
										c1.792-5.656,7.898-8.81,13.554-7.017l4.196,1.322c0,0,0.02,0.003,0.039,0.007l16.55,5.245
										C175.16,160.397,178.333,166.506,176.541,172.162z"/>
								</g>
							</g>
						</g>
						<g>
							<g>
								<g>
									<path style="fill:#FF6E44;" d="M169.873,172.861l-9.426-2.779c-1.016-0.3-1.603-1.376-1.303-2.393l1.059-3.594
										c0.3-1.016,1.376-1.603,2.393-1.303l9.426,2.778c1.016,0.3,1.603,1.376,1.303,2.393l-1.059,3.594
										C171.966,172.574,170.89,173.161,169.873,172.861z"/>
								</g>
							</g>
						</g>
					</g>
					<g>
						<g>
							<g>
								<path style="fill:#FFFFFF;" d="M172.092,171.017c-1.245,1.497-3.468,1.701-4.965,0.456s-1.701-3.468-0.456-4.965
									c1.245-1.497,3.468-1.701,4.965-0.456C173.133,167.297,173.337,169.52,172.092,171.017z"/>
							</g>
						</g>
					</g>
				</g>
				<g>
					<g>
						<g>
							<g>
								<g>
									
										<rect x="168.139" y="139.826" transform="matrix(0.9877 -0.1565 0.1565 0.9877 -20.8826 28.277)" style="fill:#FFFFFF;" width="1.973" height="13.846"/>
								</g>
							</g>
						</g>
					</g>
					<g>
						<g>
							<g>
								<g>
									
										<rect x="175.927" y="148.43" transform="matrix(0.5151 -0.8572 0.8572 0.5151 -39.4 229.1899)" style="fill:#FFFFFF;" width="13.847" height="1.972"/>
								</g>
							</g>
						</g>
					</g>
					<g>
						<g>
							<g>
								<g>
									
										<rect x="184.728" y="159.294" transform="matrix(0.9454 -0.3258 0.3258 0.9454 -41.7646 71.19)" style="fill:#FFFFFF;" width="13.846" height="1.973"/>
								</g>
							</g>
						</g>
					</g>
					<g>
						<g>
							<g>
								<g>
									
										<rect x="190.422" y="167.338" transform="matrix(0.3583 -0.9336 0.9336 0.3583 -39.8669 290.5201)" style="fill:#FFFFFF;" width="1.972" height="13.847"/>
								</g>
							</g>
						</g>
					</g>
					<g>
						<g>
							<g>
								<g>
									
										<rect x="181.249" y="177.891" transform="matrix(0.8746 -0.4848 0.4848 0.8746 -66.7529 111.5273)" style="fill:#FFFFFF;" width="1.973" height="13.846"/>
								</g>
							</g>
						</g>
					</g>
				</g>
			</g>
			<g>
				<g>
					<g>
						<g>
							<g>
								<path style="fill:#E89A5C;" d="M117.085,226.425c-1.23,0.2-0.101-0.075-0.101-0.075l0.431,2.135c0,0,0.82-0.07,2.21-0.19
									c1.01-0.08,2.33-0.19,3.85-0.32c8.91-0.71,24.63-1.86,25.88-1.24c1.74,0.87,3.14,3.14,0,4.89
									c-3.14,1.74-23.04,4.19-26.7,6.98c-3.67,2.79-8.03,18.85-18.67,26.17c-10.65,7.33-21.29-3.49-20.42-8.2l13.61-52.7
									l50.78-9.95c4.031-1.598,7.367-1.19,8.09,0.25c0.447,0.89-0.003,2.377-0.438,3.242c-0.147,0.293-0.64,1.204-1.702,1.998
									c-4.886,3.655-28.929,10.178-30.21,10.57c-0.49,0.15-0.97,0.31-1.46,0.46c-0.46,0.15-0.93,0.29-1.39,0.44
									c-0.96,0.3-1.91,0.6-2.87,0.91c-0.72,0.22-1.45,0.45-2.17,0.68c-0.51,0.16,0.028,0.046-0.482,0.206l0.642,0.774l0.06,0.02
									l1.55-0.15l5.37-0.5l1-0.09l30.99-2.93c0,0,5.41,5.24-5.06,9.25c-6.18,2.37-17.15,4.62-25.11,6.06
									c-0.25,0.04-0.49,0.09-0.73,0.13c-2.05,0.37-3.88,0.68-5.33,0.92C118.095,226.265,117.555,226.345,117.085,226.425z"/>
							</g>
						</g>
					</g>
					<g>
						<g>
							<g>
								<path style="fill:#E89A5C;" d="M132.508,163.079c0,0,3.467,8.362-7.751,20.192l-7.751,9.586l-4.691,10.402l-15.909,3.059
									l3.263-10.81l29.574-31.41C129.245,164.099,130.876,162.263,132.508,163.079z"/>
							</g>
						</g>
					</g>
					<g>
						<g>
							<g>
								<path style="fill:#E89A5C;" d="M109.705,342.005l-4.47-0.06c-7.13-10.05-13.23-20.88-18.16-32.33
									c-3.78-8.75-6.87-17.87-9.21-27.28l5.14-24.56c0.16-0.21,0.33-0.41,0.51-0.6c2.94-3.25,7.35-4.74,11.57-3.85
									c4.82,1.02,8.57,4.98,9.44,9.95c0.04,0.18,0.07,0.36,0.09,0.54c0.01,0.16,0.02,0.32,0.03,0.48
									c0.01,0.13,0.02,0.25,0.03,0.38C106.355,290.445,108.035,316.235,109.705,342.005z"/>
							</g>
						</g>
					</g>
					<g>
						<g>
							<g>
								<path style="fill:#FFFFFF;" d="M121.583,225.428c-0.091-3.5-0.327-8.57-0.66-12.42l-4.189,0.65l-0.036-0.02
									c0.333,3.69,0.599,9.26,0.678,12.97L121.583,225.428z"/>
							</g>
						</g>
					</g>
				</g>
				<g>
					<g>
						<path style="fill:#B0331F;" d="M115.453,212.835l-0.288-1.165c11.386-2.811,22.785-6.154,33.881-9.936
							c2.412-0.822,3.903-1.988,4.987-3.899l1.044,0.592c-1.225,2.16-2.966,3.531-5.644,4.443
							C138.304,206.663,126.871,210.015,115.453,212.835z"/>
					</g>
				</g>
				<g>
					<g>
						<g>
							<path style="fill:#B0331F;" d="M117.427,226.734l-0.218-1.18l14.882-2.752c7.14-1.321,15.233-2.818,21.491-7.38l0.707,0.97
								c-6.479,4.723-14.714,6.246-21.98,7.59L117.427,226.734z"/>
						</g>
					</g>
				</g>
				<g>
					<g>
						<g>
							<path style="fill:#B0331F;" d="M119.444,234.172c-1.146-1.539-1.641-2.478-2.461-4.034l-0.215-0.408
								c-4.59-8.689-6.284-18.821-4.769-28.528l1.186,0.185c-1.476,9.454,0.174,19.321,4.644,27.783l0.216,0.409
								c0.82,1.556,1.271,2.413,2.362,3.877L119.444,234.172z"/>
						</g>
					</g>
				</g>
				<g>
					<g>
						<path style="fill:#B0331F;" d="M99.671,266.601l-0.083-1.197c3.598-0.25,6.453-3.232,8.771-6.117
							c3.757-4.676,7.164-9.691,10.125-14.907c0.365-0.641,0.689-1.329,1.002-1.993c0.653-1.385,1.329-2.818,2.431-4
							c1.29-1.383,3.075-1.579,4.802-1.768c0.715-0.079,1.454-0.159,2.138-0.326l20.193-4.914l0.284,1.166l-20.193,4.914
							c-0.759,0.185-1.538,0.27-2.291,0.353c-1.579,0.172-3.069,0.336-4.055,1.393c-0.975,1.045-1.581,2.332-2.224,3.694
							c-0.323,0.685-0.657,1.393-1.044,2.074c-2.993,5.271-6.436,10.34-10.233,15.066
							C106.814,263.125,103.73,266.319,99.671,266.601z"/>
					</g>
				</g>
				<g>
					<g>
						<path style="fill:#B0331F;" d="M113.438,201.949l-1.11-0.454c2.094-5.122,4.904-9.914,8.354-14.242
							c0.968-1.214,1.998-2.405,2.994-3.557c1.76-2.036,3.58-4.141,5.079-6.404c1.874-2.831,3.986-7.159,3.405-11.707
							c-0.046-0.366-0.188-0.754-0.337-1.165c-0.135-0.37-0.274-0.753-0.354-1.151l1.177-0.235c0.061,0.309,0.18,0.633,0.305,0.976
							c0.165,0.455,0.336,0.924,0.399,1.423c0.628,4.913-1.608,9.52-3.594,12.52c-1.541,2.328-3.387,4.463-5.172,6.527
							c-0.988,1.143-2.01,2.325-2.963,3.52C118.241,192.24,115.488,196.932,113.438,201.949z"/>
					</g>
				</g>
			</g>
			<g>
				<g>
					<g>
						<path style="fill:#FFFFFF;" d="M371.615,287.715c0,0-0.12-0.99-0.32-2.72c-0.23-2-0.58-5-0.98-8.63
							c-1.94-17.36-5.29-49.28-4.55-56.46c1.04-9.98,2.07-39.24-17.21-54.38c0,0-13.02,18.51-15.13,33.29
							c0-1.555-5.085-2.644-10.061-3.308c-0.426-1.328-0.855-2.654-1.31-3.972c-1.266-2.162-2.381-4.414-3.827-6.451
							c-1.929-2.717-4.314-5.129-7.119-6.942c-3.299-2.132-7.222-3.613-10.941-4.846c-1.169-0.388-2.492-0.667-3.517-0.317
							c-1.025,0.35-1.384,1.027-1.765,1.864c-2.739,6.006-5.72,11.725-9.03,17.398c-0.849,1.455,0,3.14,2.157,2.656
							c4.897-1.099,10.746-2.855,15.831-4.096c-1.232,2.484-3.451,5.112-3.98,7.796c-4.055,1.987-7.819,4.611-11.156,7.628
							c-3.54,3.2-6.65,6.88-9.26,10.87c-0.37,0.58-5.89,11.28-4.29,11.75c-1.77-0.07-27.66-1.03-33.65,8.27
							c0,0-0.34,20.31,2.41,24.44c2.76,4.13,23.75,8.95,31.33,10.67c7.57,1.72,13.42,5.85,13.42,5.85s-0.99,3.79-2.46,9.53
							c-0.6,2.3-1.27,4.93-1.98,7.74c-4.28,16.9-10.15,40.85-10.36,46.07c-0.35,8.26-3.79,67.46-3.44,72.63
							c0.03,0.53,1.21,0.94,3.31,1.22c16.8-2.24,32.84-6.84,47.8-13.45c31.02-13.68,57.37-36,76.01-63.9c0,0,0,0,0-0.01
							C388.205,312.185,371.615,287.715,371.615,287.715z"/>
					</g>
					<g>
						<g>
							<path style="fill:#3E1B39;" d="M371.295,284.995c-17.25,9.48-36.98,14.36-56.68,14.36c-10.26,0-20.5-1.32-30.39-4.01
								c0.71-2.81,1.38-5.44,1.98-7.74c27.99,7.66,59.14,3.56,84.11-11.24C370.715,279.995,371.065,282.995,371.295,284.995z"/>
						</g>
					</g>
				</g>
				<g>
					<g>
						<g>
							<path style="fill:#FFFFFF;" d="M339.955,392.355c-2.02,1.2-4.07,2.35-6.14,3.46c-4,2.16-8.1,4.16-12.28,6
								c-4.08,1.8-8.23,3.45-12.47,4.94c-9.76-1.16-17.91-4.54-17.91-4.54s-21.91-6.89-26.54-14.59s-58.04-49.16-58.04-49.16
								l-15.69,5.75l-18.43,4.98c0,0-6.96,0.66-13.61-2.46c-1.27-0.6-2.28-1.27-3.08-1.95l-0.78-0.75
								c-2.59-2.74-2.34-5.57-2.34-5.57c-0.01,0-0.01-0.01-0.02-0.01l-0.84-0.62c-2.59-2.2-4.94-6.78-4.94-6.78l36.08-7.77
								l20.87-3.47l67.79,19.4l42.44-5.81c16.35,5.77,25.25,15.37,28.89,26.03C346.605,370.265,344.865,382.205,339.955,392.355z"/>
						</g>
					</g>
					<g>
						<g>
							<path style="fill:#3E1B39;" d="M154.985,344.035c0.8-1.77,2.71-2.93,4.71-3.92l10.62-5.25c0.25-0.12,0.55-0.02,0.67,0.23
								c0.13,0.25,0.02,0.54-0.22,0.67l-10.63,5.24c-1.95,0.97-3.82,2.1-4.37,3.78L154.985,344.035z"/>
						</g>
					</g>
					<g>
						<g>
							<path style="fill:#3E1B39;" d="M151.785,337.835c4.02-2.84,8.35-5.22,12.89-7.1c0.25-0.11,0.54,0.02,0.65,0.27
								c0.1,0.26-0.02,0.55-0.27,0.65c-4.37,1.81-8.55,4.09-12.43,6.8L151.785,337.835z"/>
						</g>
					</g>
				</g>
				<g>
					<path style="fill:#B0331F;" d="M396.255,339.805c-14.67,21.36-33.9,39.35-56.3,52.55c-2.02,1.2-4.07,2.35-6.14,3.46
						c-3.97-6.74-1.94-18.66,0.25-24.98c2.07-6.01,5.08-9.36,8.85-11.4c5.12-2.79,11.62-3.18,19.01-4.55
						c1.16-0.21,2.34-0.5,3.27-1.23c1.35-1.04,1.91-2.78,2.31-4.44c1.59-6.63,1.68-13.73,4.77-19.81
						c3.1-6.07,10.89-10.65,16.76-7.18c4.15,2.45,5.54,7.7,6.4,12.44C395.745,336.355,396.025,338.075,396.255,339.805z"/>
				</g>
				<g>
					<g>
						<g>
							<path style="fill:#FF42B3;" d="M240.679,277.867c0.797,0.393,1.756,0.523,2.657,0.47c5.38-0.317,10.842-2.777,13.121-7.921
								c4.208-9.499,0.559-10.345,0.559-10.345s-9.034-9.391-9.034-9.392c0.412,0.428-5.99,13.06-6.433,14.217
								c-1.164,3.043-4.408,8.875-2.035,12.026C239.822,277.333,240.225,277.643,240.679,277.867z"/>
						</g>
						<g>
							<g>
								<path style="fill:#D43695;" d="M247.68,265.263l-0.926-0.379c1.8-4.404,2.061-9.347,0.736-13.915l0.961-0.278
									C249.84,255.475,249.565,260.65,247.68,265.263z"/>
							</g>
						</g>
					</g>
					<g>
						<g>
							<g>
								<g>
									<g>
										<g>
											<path style="fill:#131428;" d="M280.208,222.655c-0.689,2.219-1.833,3.826-2.554,3.591
												c-0.721-0.236-0.747-2.225-0.057-4.444c0.689-2.219,1.833-3.826,2.554-3.591
												C280.872,218.447,280.898,220.436,280.208,222.655z"/>
										</g>
									</g>
								</g>
							</g>
							<g>
								<ellipse style="fill:#B0331F;" cx="314.02" cy="230.214" rx="15.772" ry="18.748"/>
							</g>
							<g>
								<g>
									<g>
										<g>
											<path style="fill:#131428;" d="M313.448,229.869c-0.203,2.315-1.144,4.123-2.101,4.039
												c-0.958-0.084-1.569-2.029-1.366-4.343s1.144-4.123,2.101-4.039C313.039,225.609,313.651,227.554,313.448,229.869z"/>
										</g>
									</g>
								</g>
							</g>
						</g>
						<g>
							<path style="fill:#3E1B39;" d="M291.307,251.078c-0.477-0.282-1.09-0.125-1.371,0.348
								c-4.05,6.808-11.779,11.037-20.17,11.037c-10.027,0-17.796-5.64-20.532-14.587l11.757-6.75c0,0,1.155-5.083-4.621-7.856
								c-5.777-2.773-15.019,1.849-14.863,3.849c0.102,1.311,3.072,5.688,5.112,8.559c-0.078,2.036-0.281,4.071-0.625,6.078
								c-0.235,1.367-0.567,2.954-1.25,4.353c-0.496,1.015-1.158,1.86-1.915,2.461c-0.313-0.121-0.682-0.084-0.971,0.137
								c-0.292,0.223-0.481,0.565-0.52,0.94c-0.039,0.374,0.077,0.749,0.317,1.027c0.195,0.226,0.474,0.346,0.757,0.346
								c0.152,0,0.305-0.034,0.448-0.106c1.929-0.968,3.066-2.67,3.681-3.928c0.793-1.625,1.165-3.384,1.424-4.892
								c0.074-0.433,0.13-0.87,0.192-1.305c3.551,8.453,11.539,13.674,21.609,13.674c9.093,0,17.479-4.603,21.889-12.014
								C291.937,251.975,291.782,251.361,291.307,251.078z"/>
						</g>
					</g>
				</g>
			</g>
			<g>
				<g>
					<g>
						<path style="fill:#E89A5C;" d="M404.785,317.325l-9.78,34.64c0,0-0.99,3.27-4.67,5.12c-3.52,1.77-2.52-3.43-4.28-2.12h-0.01
							c-0.08,0.06-0.16,0.13-0.25,0.22c-0.45,0.43-0.89,0.7-1.36,0.85c-1.44,0.44-3.09-0.35-5.69-1.84c-0.33-0.2-0.68-0.4-1.05-0.62
							c-0.27-0.15-0.56-0.32-0.85-0.49c-1.18-0.69-2.54-2.26-3.95-4.37c1.04-6.53,2.73-11.53,4.11-14.93
							c0.4-0.99,3.56-8.71,6.13-16.75c0.29-0.91,0.81-1.86,1.09-2.64c0.26-0.73,0.31-1.31-0.21-1.6c-0.36-0.21-1.53-1.17-1.53-1.17
							s-0.03,0.08-0.08,0.22c-0.06,0.16-0.15,0.41-0.27,0.74c-1.11,2.96-4.58,12.07-7.26,17.38c-2.15,4.27-4.61,13.77-7.41,16.14
							c-1.4,1.18-2.89,0.59-4.46-3.33c-2.36-5.86,1.82-19.58,6.61-31.87c1.57-4.05,3.22-7.96,4.71-11.37
							c0.08-0.17,0.15-0.33,0.23-0.5c0.06-0.15,0.13-0.29,0.2-0.43v-0.01c2.37-5.37,4.31-9.37,4.91-10.59
							c0.12-0.26,0.19-0.39,0.19-0.39c0.29,0.16,0.59,0.31,0.87,0.49C396.895,297.195,404.785,317.325,404.785,317.325z"/>
					</g>
				</g>
				<g>
					<path style="fill:#E89A5C;" d="M375.266,299.084c-0.015-0.001-0.029-0.002-0.044-0.003c-3.338-0.248-6.676-0.496-10.015-0.744
						c-0.534-0.04-1.111-0.07-1.553,0.187c-4.855,2.83-11.148,3.665-16.833,2.235c-1.392-0.35-2.656-1.251-3.189-2.452
						c3.271-1.402,6.542-2.804,9.813-4.207c0.761-0.326,1.522-0.652,2.283-0.979c3.517-1.508,7.036-3.016,10.651-4.336
						c3.348-1.222,6.976-2.298,10.579-1.688c3.603,0.61,7.03,3.486,6.677,6.716C383.274,297.117,378.993,299.361,375.266,299.084z"
						/>
				</g>
				<g>
					<g>
						<path style="fill:#B0331F;" d="M397.895,330.765l-1.08,0.51c-0.56-1.18-1.16-2.33-1.81-3.46c-0.26-0.46-0.53-0.92-0.81-1.37
							c-1.15-1.9-2.43-3.73-3.81-5.48c-0.29-0.37-0.59-0.74-0.89-1.1c-1.63-1.94-3.39-3.78-5.27-5.47c-0.54-0.5-1.1-0.98-1.66-1.45
							c-0.14-0.12-0.29-0.24-0.43-0.36c-0.18-0.14-0.36-0.29-0.54-0.43c-0.63-0.5-1.27-0.99-1.92-1.46l0.71-0.97
							C387.865,315.145,393.915,322.425,397.895,330.765z"/>
					</g>
				</g>
				<g>
					<g>
						<path style="fill:#B0331F;" d="M390.745,319.905c-0.12,0.35-0.23,0.71-0.36,1.06c-3.68,11.09-7.59,22.25-11.64,33.23
							c-0.33-0.2-0.68-0.4-1.05-0.62c4.11-11.14,8.07-22.46,11.8-33.71c0.04-0.11,0.07-0.23,0.11-0.34L390.745,319.905z"/>
					</g>
				</g>
				<g>
					<g>
						<polygon style="fill:#B0331F;" points="386.045,354.965 386.055,354.965 395.005,327.815 395.495,326.335 394.355,325.965 
							394.195,326.445 384.435,356.035 						"/>
					</g>
				</g>
				<g>
					<g>
						<path style="fill:#B0331F;" d="M353.653,302.28c-3.946,0-7.903-1.082-10.532-2.951l0.695-0.978
							c4.873,3.466,14.619,4.051,19.414-0.421l0.221-0.206l0.296,0.055c2.405,0.438,4.638,0.456,7.003,0.475
							c1.291,0.011,2.627,0.021,4.014,0.105l-0.072,1.197c-1.355-0.081-2.675-0.092-3.951-0.103
							c-2.323-0.018-4.523-0.037-6.916-0.444C361.243,301.276,357.453,302.28,353.653,302.28z"/>
					</g>
				</g>
				<g>
					<g>
						<path style="fill:#B0331F;" d="M370.246,311.125l-1.133-0.398c3.475-9.882,7.098-17.8,10.771-23.535l1.01,0.646
							C377.271,293.495,373.688,301.33,370.246,311.125z"/>
					</g>
				</g>
				<g>
					<g>
						<path style="fill:#B0331F;" d="M382.935,312.065l-0.37,0.88c-0.14-0.12-0.29-0.24-0.43-0.36c-1.11,2.96-4.58,12.07-7.26,17.38
							c-2.15,4.27-4.61,13.77-7.41,16.14l14.13-33.95l0.23-0.55l0.58,0.24L382.935,312.065z"/>
					</g>
				</g>
			</g>
		</g>
	</g>
	<g>
		<g>
			<g>
				<g>
					<g>
						<g>
							<g>
								<path style="fill:#E89A5C;" d="M459,66.259v87.1c0,9.64-7.81,17.45-17.45,17.45h-63.1c-9.64,0-17.45-7.81-17.45-17.45v-87.1
									c0-9.64,7.81-17.45,17.45-17.45h63.1C451.19,48.808,459,56.618,459,66.259z"/>
							</g>
						</g>
					</g>
				</g>
			</g>
			<g>
				<g>
					<g>
						<g>
							<g>
								<path style="fill:#FB43B2;" d="M385.853,156.573L385.853,156.573c-0.156,0.682-0.433,1.346-0.807,1.993
									c-0.077,0.133-0.156,0.264-0.238,0.392c-0.011,0.018-0.022,0.036-0.034,0.054c-0.543,0.852-1.182,1.615-1.874,2.323
									c-0.02,0.021-0.041,0.041-0.061,0.062c-0.53,0.537-1.091,1.042-1.665,1.529c-0.294,0.25-0.592,0.493-0.893,0.732
									c-0.048,0.038-0.097,0.077-0.145,0.115c-0.866,0.684-1.752,1.34-2.621,2.019c-0.008,0.006-0.015,0.012-0.023,0.018h-0.423
									c-0.919-0.652-1.822-1.324-2.696-2.036c-0.047-0.038-0.093-0.076-0.14-0.115c-0.859-0.708-1.689-1.456-2.475-2.262
									c-0.02-0.02-0.04-0.041-0.06-0.062c-0.145-0.149-0.287-0.299-0.428-0.452c-0.482-0.522-0.943-1.063-1.346-1.65
									c-0.05-0.072-0.099-0.146-0.147-0.22c-0.012-0.018-0.023-0.036-0.034-0.054c-0.017-0.027-0.034-0.053-0.05-0.08
									c-0.075-0.119-0.148-0.241-0.217-0.365c-0.069-0.124-0.136-0.25-0.199-0.378c-0.055-0.112-0.108-0.225-0.158-0.341
									c-0.037-0.085-0.072-0.169-0.105-0.254c-0.054-0.139-0.103-0.278-0.148-0.417c-0.046-0.145-0.087-0.289-0.122-0.434
									c-0.009-0.038-0.019-0.076-0.027-0.114v0c-0.025-0.113-0.048-0.226-0.066-0.339c-0.109-0.654-0.112-1.307-0.001-1.938
									c0.009-0.054,0.02-0.107,0.031-0.161c0.167-0.808,0.52-1.578,1.07-2.264c0.004-0.005,0.007-0.009,0.01-0.013
									c0.057-0.072,0.117-0.142,0.179-0.212c1.866-2.1,5.149-2.132,7.05-0.053c0.076,0.084,0.155,0.165,0.25,0.265
									c0.004,0.004,0.009,0.009,0.013,0.013c0.014,0.014,0.027,0.028,0.041,0.043c0.012-0.014,0.024-0.029,0.036-0.043
									c0.004-0.005,0.007-0.009,0.011-0.013c0.558-0.66,1.203-1.136,1.956-1.464c1.747-0.759,3.788-0.254,5.142,1.055
									c0.104,0.1,0.203,0.205,0.298,0.315c0.027,0.031,0.054,0.062,0.08,0.094c0.003,0.005,0.007,0.009,0.011,0.013
									c0.06,0.073,0.118,0.148,0.174,0.225c0.083,0.113,0.161,0.23,0.234,0.351c0.109,0.179,0.206,0.366,0.291,0.561
									c0.053,0.12,0.101,0.243,0.144,0.369c0.003,0.01,0.007,0.019,0.009,0.028c0.047,0.139,0.089,0.276,0.125,0.414
									c0.028,0.105,0.053,0.21,0.075,0.315c0.008,0.038,0.015,0.076,0.022,0.113c0.003,0.016,0.006,0.032,0.009,0.048
									C386.05,155.078,386.022,155.836,385.853,156.573z"/>
							</g>
						</g>
					</g>
				</g>
			</g>
			<g>
				<g>
					<g>
						<g>
							<g>
								<path style="fill:#FFFFFF;" d="M459,66.259v79.05h-98v-79.05c0-9.64,7.81-17.45,17.45-17.45h63.1
									C451.19,48.808,459,56.618,459,66.259z"/>
							</g>
						</g>
					</g>
				</g>
			</g>
			<g style="opacity:0.49;">
				<g>
					<g>
						<g>
							<path style="fill:#C0BCCF;" d="M443.31,140.23h-67.097c-4.479,0-8.111-3.631-8.111-8.111V65.891
								c0-4.479,3.631-8.111,8.111-8.111h67.097c4.479,0,8.111,3.631,8.111,8.111v66.229
								C451.421,136.599,447.79,140.23,443.31,140.23z"/>
						</g>
					</g>
				</g>
			</g>
		</g>
		<g>
			<defs>
				<path id="SVGID_1_" d="M443.389,140.112h-67.097c-4.479,0-8.111-3.631-8.111-8.111V65.772c0-4.479,3.631-8.111,8.111-8.111
					h67.097c4.479,0,8.111,3.631,8.111,8.111v66.229C451.5,136.48,447.869,140.112,443.389,140.112z"/>
			</defs>
			<clipPath id="SVGID_00000064315210677199423460000008199292052884700347_">
				<use xlink:href="#SVGID_1_"  style="overflow:visible;"/>
			</clipPath>
			<g style="clip-path:url(#SVGID_00000064315210677199423460000008199292052884700347_);">
				<g>
					<g>
						<path style="fill:#FF6E44;" d="M421.02,112.259c0,0,8.394-3.058,10.573-14.728c0,0,0.387-7.813-13.408-12.566
							c0,0-5.388-6.192-14.881-3.895c-9.493,2.297-12.109,9.52-12.109,9.52S404.572,109.873,421.02,112.259z"/>
					</g>
					<g>
						<path style="fill:#FF6E44;" d="M372.59,129.26l-0.068,0.209c-0.964,2.886-1.707,5.774-2.133,8.599
							c-0.014,0.069-0.024,0.14-0.033,0.207c-0.252,1.698-0.388,3.377-0.396,5.02c3.057,2.739,6.364,5.233,9.905,7.45
							c0.06,0.041,0.126,0.08,0.192,0.119c4.948,3.084,10.348,5.618,16.142,7.502c7.562,2.458,15.236,3.62,22.782,3.614
							c0.069,0.001,0.139,0.002,0.208,0.002c4.69-0.021,9.331-0.493,13.862-1.392c0.068-0.008,0.133-0.022,0.204-0.038
							c2.468-0.495,4.902-1.114,7.294-1.86c0.076-0.019,0.153-0.042,0.227-0.07c4.836-1.514,9.502-3.523,13.916-5.988
							c0.116-0.062,0.229-0.13,0.343-0.198l0.005-0.003c7.103-4.016,13.55-9.215,19.014-15.434
							c-2.821-6.601-7.478-13.39-11.66-18.749c-0.045-0.063-0.091-0.121-0.139-0.176c-2.879-3.691-5.515-6.694-7.145-8.481
							c-0.135-0.148-0.26-0.285-0.379-0.415c-0.822-0.898-1.305-1.395-1.305-1.395c-0.252-1.514-0.609-2.892-1.055-4.147
							c-0.031-0.08-0.057-0.158-0.086-0.232c-0.978-2.655-2.35-4.755-3.953-6.412c-0.049-0.051-0.102-0.103-0.15-0.153
							c-1.203-1.214-2.528-2.184-3.909-2.959c-0.063-0.034-0.126-0.067-0.189-0.101c-7.301-3.984-16.018-2.569-16.018-2.569
							c-19.552-13.698-30.388-2.935-30.388-2.935s-0.714,0.804-1.909,2.257c-0.049,0.058-0.1,0.12-0.15,0.182
							c-3.903,4.738-12.528,15.832-18.702,28.267c-0.037,0.075-0.075,0.15-0.113,0.229c-1.159,2.348-2.23,4.746-3.165,7.154
							c-0.026,0.066-0.047,0.132-0.072,0.194C373.219,127.458,372.896,128.359,372.59,129.26z"/>
					</g>
					<g>
						<g>
							<path style="fill:#B0331F;" d="M449.188,119.168l0.146-0.183c2.38-2.93,4.205-6.255,5.398-9.806
								c0.119,0.13,0.244,0.267,0.379,0.415c-1.215,3.509-3.033,6.801-5.391,9.703l-0.151,0.182
								c-0.45,0.554-0.914,1.126-1.174,1.777c0.272,0.069,0.618-0.019,0.936-0.124c1.319-0.438,2.629-0.948,3.894-1.515l0.203,0.453
								c-1.28,0.575-2.606,1.091-3.941,1.534c-0.404,0.134-0.852,0.239-1.25,0.124c-0.143,0.602-0.146,1.254-0.149,1.879
								c-0.034,6.009-0.17,12.066-0.41,18.108c0.002,0.075,0,0.148-0.008,0.224c-0.173,4.388-0.4,8.771-0.679,13.124l-0.495-0.03
								c0.295-4.605,0.532-9.242,0.708-13.881c0.009-0.162,0.014-0.326,0.02-0.49c0.214-5.693,0.335-11.395,0.368-17.055
								c0.004-0.804,0.01-1.638,0.295-2.42C448.164,120.415,448.685,119.779,449.188,119.168z"/>
						</g>
						<g>
							<g>
								<path style="fill:#FFFFFF;" d="M381.247,128.792c0.077,0.016,0.159,0.034,0.241,0.048c5.242,0.96,10.537,0.857,15.437-0.397
									c1.889-0.483,3.761-1.141,5.568-1.772c2.088-0.732,4.243-1.485,6.427-1.976c10.65-2.397,22.367,1.729,29.162,10.271
									c3.801,4.778,5.548,10.356,4.786,15.297c-0.247,1.617-0.76,3.209-1.259,4.744c-0.386,1.202-0.783,2.435-1.059,3.686
									c0.076-0.019,0.153-0.042,0.227-0.07c0.274-1.204,0.656-2.394,1.028-3.552c0.502-1.543,1.017-3.143,1.269-4.776
									c0.768-5-0.996-10.635-4.831-15.455c-6.844-8.605-18.645-12.763-29.368-10.347c-2.198,0.496-4.359,1.251-6.45,1.982
									c-1.803,0.633-3.669,1.284-5.549,1.765c-4.833,1.237-10.057,1.349-15.234,0.415c-0.079-0.012-0.161-0.026-0.24-0.039
									L381.247,128.792z"/>
							</g>
						</g>
						<g>
							<g>
								<path style="fill:#FFFFFF;" d="M370.389,138.068c-0.014,0.069-0.024,0.14-0.033,0.207c5.67-0.372,11.302-1.684,16.792-2.96
									c0.753-0.173,1.507-0.35,2.258-0.52c7.893-1.813,16.286-3.451,24.501-1.838c9.007,1.761,16.076,7.641,18,14.965
									c0.64,2.436,0.722,5.009,0.805,7.5c0.035,1.191,0.078,2.424,0.178,3.631c0.042,0.514,0.097,1.028,0.162,1.537
									c0.068-0.008,0.133-0.022,0.204-0.038c-0.063-0.503-0.116-1.008-0.159-1.519c-0.102-1.2-0.143-2.427-0.178-3.618
									c-0.084-2.5-0.166-5.086-0.812-7.546c-0.997-3.789-3.353-7.24-6.82-9.977c-3.166-2.5-7.194-4.327-11.339-5.139
									c-8.254-1.616-16.673,0.021-24.589,1.84c-0.751,0.169-1.505,0.346-2.258,0.52
									C381.633,136.387,376.026,137.689,370.389,138.068z"/>
							</g>
						</g>
						<g>
							<g>
								<path style="fill:#FFFFFF;" d="M379.865,150.746c0.06,0.041,0.126,0.08,0.192,0.119c1.252-0.786,2.525-1.569,3.813-2.29
									c6.15-3.455,11.464-4.752,16.241-3.957c2.391,0.398,4.829,1.348,7.45,2.909c4.197,2.5,7.483,5.766,9.509,9.445
									c0.884,1.606,1.522,3.298,1.911,5.008c0.069,0.001,0.139,0.002,0.208,0.002c-0.39-1.746-1.043-3.473-1.939-5.109
									c-2.041-3.71-5.357-7.008-9.584-9.522c-2.643-1.577-5.103-2.538-7.519-2.94c-4.828-0.799-10.187,0.502-16.381,3.986
									C382.45,149.14,381.142,149.938,379.865,150.746z"/>
							</g>
						</g>
						<g>
							<g>
								<path style="fill:#FFFFFF;" d="M372.59,129.26l-0.068,0.209c0.605,0.349,1.246,0.64,1.916,0.867l0.142,0.046
									c1.63,0.53,3.151,0.589,4.407,0.166c1.021-0.343,1.827-0.947,2.501-1.707c0.054-0.061,0.105-0.123,0.156-0.184
									c1.028-1.233,1.742-2.829,2.444-4.398c0.451-1.011,0.922-2.059,1.462-2.985c0.08-0.139,0.163-0.273,0.251-0.41
									c0.036-0.058,0.076-0.114,0.118-0.175c2.606-3.893,7.51-6.151,12.166-5.534c1.223,0.162,2.486,0.508,3.706,0.839
									c2.724,0.738,5.543,1.506,8.06,0.283c3.506-1.707,4.37-6.427,3.409-10.208c-1.544-6.108-6.338-10.43-10.083-12.979
									c-1.001-0.682-2.212-1.241-3.559-1.679c-1.193-0.388-2.491-0.679-3.846-0.876c-0.049,0.058-0.1,0.12-0.15,0.182
									c1.382,0.193,2.705,0.488,3.918,0.882c1.331,0.433,2.526,0.986,3.521,1.662c3.718,2.527,8.471,6.814,10,12.861
									c0.939,3.7,0.105,8.313-3.301,9.969c-2.445,1.19-5.1,0.466-7.912-0.295c-1.228-0.334-2.499-0.682-3.734-0.844
									c-4.747-0.633-9.737,1.675-12.383,5.651c-0.04,0.057-0.08,0.113-0.118,0.175c-0.081,0.13-0.163,0.26-0.241,0.392
									c-0.548,0.936-1.016,1.989-1.474,3.007c-0.713,1.592-1.438,3.219-2.493,4.443c-0.051,0.062-0.104,0.118-0.157,0.175
									c-0.636,0.699-1.393,1.245-2.326,1.559c-1.25,0.416-2.776,0.347-4.414-0.212C373.836,129.913,373.197,129.615,372.59,129.26
									z"/>
							</g>
						</g>
						<g>
							<g>
								<path style="fill:#FFFFFF;" d="M444.687,121.418c-0.958,6.87-0.087,13.673,2.517,19.734
									c0.118,0.278,0.241,0.557,0.369,0.834l0.098-0.046l0.091-0.04c-0.028-0.061-0.056-0.123-0.084-0.184
									c-0.157-0.347-0.309-0.697-0.454-1.053c-4.954-11.995-2.889-26.837,5.149-37.024c-0.031-0.08-0.057-0.158-0.086-0.232
									C448.248,108.469,445.632,114.669,444.687,121.418z"/>
							</g>
						</g>
						<g>
							<g>
								<path style="fill:#FFFFFF;" d="M455.629,126.454c-0.641,3.513-0.041,7.129,0.539,10.621c0.049,0.316,0.104,0.63,0.155,0.943
									c0.585,3.598,1.104,7.745-0.154,11.44c-0.374,1.097-0.899,2.15-1.476,3.176c0.116-0.062,0.229-0.13,0.343-0.198l0.005-0.003
									c0.518-0.937,0.985-1.904,1.324-2.908c1.273-3.743,0.751-7.921,0.164-11.538c-0.053-0.318-0.104-0.63-0.158-0.948
									c-0.576-3.478-1.171-7.07-0.541-10.548c0.621-3.411,2.881-7.216,6.566-8.242c0.12-0.035,0.243-0.065,0.37-0.093
									l-0.047-0.203c-0.156,0.037-0.307,0.074-0.461,0.12C458.535,119.159,456.254,123.005,455.629,126.454z"/>
							</g>
						</g>
						<g>
							<g>
								<path style="fill:#FFFFFF;" d="M441.869,135.953l0.203-0.047c-2.907-13.219-0.623-27.288,6.263-38.912
									c-0.049-0.051-0.102-0.103-0.15-0.153C441.254,108.52,438.948,122.66,441.869,135.953z"/>
							</g>
						</g>
						<g>
							<g>
								<path style="fill:#FFFFFF;" d="M385.611,120.775c0.064,0.03,0.129,0.059,0.189,0.088c0.135,0.066,0.272,0.128,0.405,0.188
									c0.583,0.268,1.189,0.547,1.79,0.799c4.814,2.022,10.344,2.67,15.567,1.826c3.789-0.61,5.858-2.196,8.255-4.037
									c1.067-0.82,2.17-1.667,3.529-2.514c2.541-1.59,5.567-2.169,8.496-2.731c2.102-0.401,4.276-0.821,6.284-1.605
									c3.826-1.499,7.331-4.503,9.867-8.462c1.87-2.914,3.281-6.346,4.283-10.447c-0.063-0.034-0.126-0.067-0.189-0.101
									c-1.003,4.105-2.404,7.532-4.266,10.435c-2.515,3.922-5.985,6.899-9.771,8.38c-1.99,0.781-4.154,1.196-6.248,1.599
									c-2.946,0.561-5.992,1.147-8.569,2.756c-1.365,0.853-2.473,1.703-3.542,2.527c-2.377,1.822-4.424,3.393-8.163,3.997
									c-5.181,0.836-10.67,0.192-15.453-1.815c-0.598-0.251-1.199-0.529-1.782-0.797c-0.125-0.058-0.25-0.116-0.374-0.174
									c-0.064-0.03-0.125-0.058-0.189-0.088L385.611,120.775z"/>
							</g>
						</g>
					</g>
					<g>
						<g>
							<path style="fill:#B0331F;" d="M425.514,101.802c0.72-2.06,1.464-4.19,1.393-6.398c-0.076-2.394-1.259-4.467-3.014-5.283
								l0.209-0.45c1.923,0.894,3.219,3.139,3.301,5.718c0.073,2.3-0.721,4.572-1.421,6.577c-1.457,4.17-3.054,8.074-6.556,10.016
								l-0.241-0.435C422.535,109.69,424.09,105.878,425.514,101.802z"/>
						</g>
						<g>
							<path style="fill:#B0331F;" d="M420.578,112.158c-0.435,0.743-0.164,1.625,0.124,2.394
								c3.214,8.574,6.245,17.346,9.009,26.073l0.474-0.15c-2.766-8.735-5.8-17.515-9.017-26.097
								c-0.178-0.473-0.35-0.994-0.314-1.454c0.13,0.176,0.303,0.315,0.506,0.388c0.286,0.103,0.621,0.058,0.894-0.121
								c0.25-0.164,0.402-0.413,0.419-0.685c0.025-0.393-0.219-0.717-0.636-0.844c-0.08-0.024-0.166-0.041-0.254-0.049
								c-0.003-0.007-0.005-0.013-0.008-0.02c-0.088-0.192-0.307-0.367-0.564-0.324c-0.364,0.059-0.546,0.41-0.591,0.694
								c-0.008,0.051-0.013,0.103-0.015,0.154C420.595,112.129,420.586,112.143,420.578,112.158z M421.11,112.285
								c0.14-0.123,0.347-0.184,0.543-0.183l0.016,0.019c0.007-0.006,0.014-0.012,0.02-0.018c0.071,0.003,0.139,0.014,0.202,0.034
								c0.137,0.042,0.298,0.134,0.286,0.338c-0.007,0.114-0.079,0.223-0.196,0.3c-0.141,0.093-0.314,0.119-0.453,0.069
								C421.31,112.766,421.15,112.539,421.11,112.285z"/>
						</g>
						<g>
							<path style="fill:#B0331F;" d="M413.772,115.157c0.091,0.256,0.307,0.453,0.592,0.542c0.312,0.098,0.646,0.048,0.893-0.13
								c0.174-0.126,0.303-0.307,0.378-0.513c0.162,0.433,0.14,0.98,0.101,1.484c-0.717,9.136-1.203,18.413-1.444,27.573
								l0.497,0.013c0.241-9.151,0.727-18.42,1.443-27.548c0.064-0.819,0.081-1.741-0.543-2.335
								c-0.012-0.012-0.024-0.022-0.037-0.033c-0.016-0.049-0.035-0.097-0.057-0.144c-0.076-0.161-0.209-0.333-0.387-0.429
								c0.142,0.01,0.284,0.027,0.426,0.036l0.032-0.496c-5.147-0.333-10.18-1.484-14.96-3.42l-0.186,0.46
								c4.549,1.843,9.327,2.972,14.212,3.38c-0.194,0.072-0.322,0.256-0.348,0.434c-0.001,0.007-0.002,0.014-0.003,0.021
								c-0.083,0.032-0.16,0.072-0.231,0.118C413.784,114.408,413.639,114.786,413.772,115.157z M414.421,114.587
								c0.055-0.036,0.118-0.066,0.185-0.088c0.008,0.004,0.016,0.008,0.024,0.012l0.01-0.022c0.188-0.055,0.403-0.054,0.572,0.025
								c0.031,0.256-0.06,0.518-0.246,0.653c-0.119,0.086-0.293,0.108-0.455,0.059c-0.134-0.042-0.233-0.127-0.272-0.234
								C414.171,114.799,414.3,114.665,414.421,114.587z"/>
						</g>
					</g>
				</g>
				<g>
					<g>
						<g>
							<path style="fill:#E89A5C;" d="M422.285,109.955c1.017-0.271,1.985-0.619,2.902-1.035l-2.822-14.807
								c-0.252-0.204-0.897-0.714-1.876-1.234c-1.565-0.84-3.972-1.714-6.929-1.417c-4.351,0.438-6.989,3.121-7.631,3.815
								c1.096,5.261,2.192,10.523,3.29,15.785C413.395,111.944,418.64,110.927,422.285,109.955z"/>
						</g>
						<g>
							<path style="fill:#BF6924;" d="M415.782,111.222c2.348-0.262,4.637-0.77,6.503-1.268c1.017-0.271,1.985-0.619,2.902-1.035
								l-2.822-14.807c-0.252-0.204-0.897-0.714-1.876-1.234l-15.1,2.014l2.454,6.526
								C407.807,101.634,410.037,107.82,415.782,111.222z"/>
						</g>
					</g>
					<g>
						<g>
							<path style="fill:#E89A5C;" d="M404.314,85.016c0.754,1.2,0.74,2.575,0.662,3.291c-0.026,0.264-0.138,0.518-0.314,0.718
								c-0.322,0.363-0.796,1.162-0.186,2.333c0.098,0.164,0.396,0.709,0.312,1.438c-0.086,0.766-0.532,1.236-0.667,1.37
								c-0.63-0.568-1.221-1.114-1.769-1.643c0.254,0.368,0.507,0.724,0.763,1.075c1.802,2.482,3.541,4.546,3.541,4.546
								s4.198,6.494,10.716,7.664c1.898,0.339,3.547,0.193,4.927-0.182c2.695-0.736,4.394-2.385,5.14-3.203
								c0.847-5.958,0.417-10.182-0.125-12.916c-0.276-1.388-1.018-4.599-1.585-7.069c-0.741-3.21-1.111-4.812-1.234-5.208
								c-0.025-0.08-0.05-0.164-0.083-0.247c-0.565-1.642-1.885-3.813-5.239-6.045c-0.127,0.06-0.248,0.123-0.385,0.197
								c-0.195,0.107-7.577-1.113-7.9-0.93c0,0-9.629,4.317-9.026,8.942S404.314,85.016,404.314,85.016z"/>
						</g>
						<g>
							<path style="fill:#E89A5C;" d="M407.859,79.354"/>
						</g>
						<g>
							<g>
								<path style="fill:#3E1B39;" d="M401.389,91.568c0.305,0.312,0.628,0.628,0.964,0.955c0.548,0.529,1.139,1.075,1.769,1.643
									c0.135-0.133,0.58-0.604,0.667-1.37c0.084-0.729-0.214-1.274-0.312-1.438c-0.61-1.171-0.137-1.97,0.186-2.333
									c0.176-0.2,0.288-0.454,0.314-0.718c0.078-0.716,0.092-2.091-0.662-3.291c-0.006-0.011-0.015-0.022-0.021-0.033
									c-1.102-1.725,3.89-9.869,3.89-9.869s7.575-6.186,10.524-4.034c0.027,0.02,0.054,0.039,0.081,0.055
									c0.136-0.074,0.258-0.137,0.385-0.197c3.354,2.232,4.674,4.402,5.239,6.045c0.271-0.539,1.996-4.441-2.375-7.531
									c-0.22-0.153-0.457-0.308-0.709-0.46c-3.077-1.844-8.787-3.55-14.176-2.695c-4.475,0.71-8.73,3.189-11.063,8.835
									c0,0-0.739,4.621-0.831,5.352C395.004,82.533,395.831,85.934,401.389,91.568z"/>
							</g>
							<g>
								<g>
									<path style="fill:#FF42B3;" d="M396.658,88.162c0.108,0.117,0.208,0.227,0.308,0.336c1.052,1.13,1.782,1.774,1.782,1.774
										l1.213-1.752l0.074-0.111l0.016-0.02l0.008-0.008l0.159-0.231l0.879-1.266c0.394-0.747,0.793-1.451,1.201-2.119
										c0.07-0.115,0.136-0.231,0.206-0.342c0.458-0.736,0.92-1.429,1.379-2.07c0.377-0.538,0.759-1.04,1.129-1.51
										c0.082-0.108,0.164-0.211,0.245-0.315c1.029-1.276,1.997-2.31,2.821-3.125c0.047-0.044,0.094-0.092,0.137-0.136
										c0.098-0.096,0.191-0.188,0.281-0.276c1.039-1.023,1.903-1.843,2.954-2.562c0.11-0.076,0.224-0.149,0.337-0.221
										c0.341-0.221,0.702-0.431,1.095-0.637c0.79-0.408,1.439-0.66,2.67-1.109c0.083-0.029,0.169-0.061,0.256-0.094
										c0.866-0.314,2.003-0.73,3.616-1.341c0.346-0.134,0.59-0.224,0.799-0.301c0.146-0.053,0.275-0.098,0.409-0.139
										c0.102-0.029,0.205-0.062,0.323-0.09c0.205-0.054,1.02-0.26,1.812-0.487c0.087-0.025,0.295-0.086,0.539-0.219
										c0.106-0.057,0.22-0.129,0.329-0.217c0.016-0.012,0.031-0.024,0.047-0.04c0.016-0.008,0.031-0.02,0.047-0.036
										c0.102-0.088,0.156-0.132,0.188-0.192c0.282-0.54-0.618-1.51-0.937-1.767c-0.786-0.635-1.595-1.25-2.423-1.833
										l-0.414-0.288c-1.935-1.325-3.991-2.472-6.169-3.344c-5.227-2.094-11.025-2.301-16.206,0.025
										c-1.576,0.709-3.067,1.615-4.41,2.701c-0.489,0.397-1.164,0.855-1.517,1.392C386.206,74.784,392.973,84.087,396.658,88.162
										z"/>
								</g>
								<g>
									<g>
										<g>
											<path style="fill:#D43695;" d="M396.658,88.162c0.108,0.117,0.208,0.227,0.308,0.336c0.13-0.389,0.264-0.765,0.398-1.138
												c0.042-0.127,0.088-0.25,0.134-0.373c0.563-1.547,1.148-2.96,1.757-4.271c0.058-0.123,0.112-0.242,0.17-0.358
												c0.571-1.204,1.167-2.317,1.799-3.367c0.186-0.306,0.372-0.609,0.567-0.907c0.07-0.111,0.144-0.223,0.217-0.334
												c0.8-1.21,1.653-2.322,2.558-3.336c0.09-0.1,0.179-0.2,0.269-0.295c0.979-1.074,2.016-2.03,3.108-2.868
												c0.106-0.088,0.211-0.168,0.321-0.249c0.404-0.301,0.815-0.586,1.235-0.856c0.69-0.442,1.405-0.846,2.136-1.209
												c0.13-0.069,0.259-0.133,0.393-0.194c1.238-0.603,2.52-1.111,3.819-1.564c0.146-0.053,0.291-0.106,0.437-0.151
												c0.913-0.315,1.838-0.602,2.76-0.877c0.177-0.053,0.354-0.107,0.528-0.156c0.331-0.099,0.657-0.197,0.984-0.292
												l-0.414-0.288c-0.346,0.103-0.693,0.201-1.043,0.308l-0.004,0l-0.543,0.164c-3.201,0.973-6.408,2.099-9.264,3.929
												c-1.718,1.102-3.322,2.471-4.79,4.088c-0.094,0.1-0.183,0.2-0.273,0.299c-0.893,1.01-1.734,2.114-2.531,3.308
												l-0.214,0.33c-0.202,0.311-0.4,0.625-0.594,0.947c-0.632,1.05-1.236,2.167-1.807,3.371v0.004
												c-0.058,0.119-0.116,0.234-0.174,0.357C398.118,84.214,397.377,86.076,396.658,88.162z"/>
										</g>
									</g>
									<g>
										<g>
											<path style="fill:#D43695;" d="M418.55,65.888c0.167,0.085,0.33,0.17,0.493,0.263c1.646,0.906,3.106,2.154,4.261,3.638
												c0.106-0.057,0.22-0.129,0.329-0.217c-1.111-1.433-2.499-2.658-4.062-3.577c-0.155-0.093-0.314-0.182-0.473-0.271
												l-0.004,0L418.55,65.888z"/>
										</g>
									</g>
									<g>
										<g>
											<path style="fill:#D43695;" d="M419.778,70.873l0.289-0.27c-1.271-1.361-2.645-2.649-4.085-3.828l-0.25,0.306
												C417.157,68.249,418.519,69.525,419.778,70.873z"/>
										</g>
									</g>
									<g>
										<g>
											<path style="fill:#D43695;" d="M415.624,72.538l0.289-0.269c-1.288-1.385-2.711-2.659-4.229-3.787l-0.236,0.317
												C412.948,69.913,414.352,71.171,415.624,72.538z"/>
										</g>
									</g>
									<g>
										<g>
											<path style="fill:#D43695;" d="M407.788,71.13c0.052,0.039,0.104,0.082,0.155,0.121c1.244,0.966,2.425,2.031,3.505,3.176
												c0.11-0.076,0.224-0.149,0.337-0.221c-1.088-1.153-2.269-2.23-3.521-3.204c-0.076-0.066-0.156-0.125-0.235-0.187
												L407.788,71.13z"/>
										</g>
									</g>
									<g>
										<g>
											<path style="fill:#D43695;" d="M404.224,74.205c0.115,0.066,0.227,0.14,0.342,0.209c1.297,0.839,2.521,1.793,3.647,2.851
												c0.098-0.096,0.191-0.188,0.281-0.276c-1.13-1.066-2.358-2.028-3.659-2.87c-0.112-0.074-0.223-0.148-0.338-0.214
												C404.403,74.005,404.314,74.105,404.224,74.205z"/>
										</g>
									</g>
									<g>
										<g>
											<path style="fill:#D43695;" d="M401.48,77.843c0.104,0.078,0.207,0.16,0.311,0.241c1.124,0.856,2.201,1.781,3.22,2.757
												c0.082-0.108,0.164-0.211,0.245-0.315c-1.026-0.98-2.116-1.912-3.247-2.776c-0.104-0.082-0.211-0.163-0.315-0.237
												L401.48,77.843z"/>
										</g>
									</g>
									<g>
										<g>
											<path style="fill:#D43695;" d="M398.905,82.522c0.119,0.062,0.234,0.128,0.35,0.194c1.062,0.608,2.085,1.296,3.042,2.048
												c0.07-0.115,0.136-0.231,0.206-0.342c-0.973-0.759-2.004-1.451-3.077-2.063c-0.115-0.066-0.231-0.132-0.346-0.194
												C399.021,82.284,398.963,82.399,398.905,82.522z"/>
										</g>
									</g>
									<g>
										<g>
											<path style="fill:#D43695;" d="M397.185,87.279l0.179,0.081l1.338,0.597c0.038-0.127,0.08-0.254,0.13-0.373l-1.334-0.597
												l-0.155-0.069L397.185,87.279z"/>
										</g>
									</g>
								</g>
							</g>
						</g>
						<g>
							<g>
								<g>
									<g>
										<g>
											<g>
												<path style="fill:#E89A5C;" d="M400.926,96.014c1.4,2.75,3.776,4.133,5.307,3.094c1.531-1.039,1.64-4.108,0.24-6.858
													c-1.4-2.746-3.776-4.133-5.307-3.094c-0.541,0.37-0.906,0.996-1.087,1.772c-0.032,0.125-0.055,0.257-0.074,0.388
													C399.801,92.676,400.102,94.4,400.926,96.014z M401.907,94.126c0.104-0.48,0.748-0.683,1.181-0.703
													c0.099-0.004,0.196,0.001,0.291,0.018c-0.36-0.327-0.772-0.605-1.181-0.841c-0.149-0.084-0.166-0.418,0.063-0.362
													c0.981,0.232,1.798,0.847,2.318,1.728c0.247,0.421,0.564,1.563-0.219,1.623c-0.166,0.014-0.286-0.139-0.239-0.298
													c0.142-0.515,0.092-0.835-0.172-1.213c-0.267-0.118-0.566-0.138-0.855-0.096c-0.36,0.053-0.575,0.311-0.897,0.422
													C402.013,94.469,401.871,94.304,401.907,94.126z"/>
											</g>
											<g>
												<path style="fill:#E89A5C;" d="M402.195,94.404c0.322-0.111,0.537-0.369,0.897-0.422
													c0.289-0.042,0.589-0.021,0.855,0.096c0.264,0.378,0.315,0.698,0.172,1.213c-0.047,0.159,0.074,0.312,0.239,0.298
													c0.782-0.06,0.465-1.202,0.219-1.623c-0.52-0.882-1.337-1.496-2.318-1.728c-0.229-0.056-0.212,0.278-0.063,0.362
													c0.409,0.235,0.822,0.514,1.181,0.841c-0.095-0.017-0.191-0.022-0.291-0.018c-0.433,0.021-1.077,0.223-1.181,0.703
													C401.871,94.304,402.013,94.469,402.195,94.404z"/>
											</g>
										</g>
									</g>
								</g>
								<g>
									<g>
										<g>
											<g>
												<g>
													<path style="fill:#B0331F;" d="M402.197,92.6c0.409,0.235,0.822,0.514,1.181,0.841
														c0.135,0.123,0.264,0.254,0.378,0.392c0.074,0.088,0.138,0.166,0.191,0.246c0.264,0.378,0.315,0.698,0.172,1.213
														c-0.047,0.159,0.074,0.312,0.239,0.298c0.782-0.06,0.465-1.202,0.219-1.623c-0.52-0.882-1.337-1.496-2.318-1.728
														C402.031,92.182,402.047,92.516,402.197,92.6z"/>
												</g>
											</g>
										</g>
									</g>
								</g>
								<g>
									<g>
										<g>
											<g>
												<g>
													<path style="fill:#B0331F;" d="M402.195,94.404c0.322-0.111,0.537-0.369,0.897-0.422
														c0.289-0.042,0.589-0.021,0.855,0.096c0.081,0.031,0.16,0.075,0.232,0.127c0.14,0.102,0.305-0.096,0.185-0.221
														c-0.276-0.28-0.609-0.487-0.986-0.544c-0.095-0.017-0.191-0.022-0.291-0.018c-0.433,0.021-1.077,0.223-1.181,0.703
														C401.871,94.304,402.013,94.469,402.195,94.404z"/>
												</g>
											</g>
										</g>
									</g>
								</g>
							</g>
							<g>
								<path style="fill:#FFFFFF;" d="M404.029,98.035c0.076,0.481,0.528,0.809,1.009,0.733c0.481-0.076,0.809-0.528,0.733-1.009
									c-0.076-0.481-0.528-0.809-1.009-0.733C404.28,97.103,403.952,97.554,404.029,98.035z"/>
							</g>
						</g>
						<g>
							<g>
								<g>
									<g>
										<g>
											<g>
												<g>
													<path style="fill:#131428;" d="M419.274,85.176c0.223,0.891,0.702,1.538,1.07,1.446
														c0.368-0.092,0.487-0.889,0.264-1.779c-0.223-0.891-0.702-1.538-1.07-1.446
														C419.17,83.489,419.051,84.286,419.274,85.176z"/>
												</g>
											</g>
										</g>
									</g>
								</g>
								<g>
									<g>
										<g>
											<g>
												<g>
													<path style="fill:#131428;" d="M409.096,89.049c0.223,0.891,0.702,1.538,1.07,1.446
														c0.368-0.092,0.487-0.889,0.264-1.779c-0.223-0.891-0.702-1.538-1.07-1.446S408.874,88.158,409.096,89.049z"/>
												</g>
											</g>
										</g>
									</g>
								</g>
							</g>
							<g>
								<g>
									<path style="fill:#B0331F;" d="M418.802,92.815l1.858-0.337c0.761-0.138,1.67-0.397,1.936-1.188
										c0.336-1.001-0.668-1.889-1.151-2.315c-1.262-1.115-2.369-2.396-3.29-3.807c-0.198-0.304-0.395-0.629-0.423-0.97
										l-0.473,0.04c0.038,0.451,0.267,0.835,0.499,1.19c0.944,1.446,2.079,2.759,3.373,3.903c0.619,0.547,1.224,1.19,1.016,1.809
										c-0.187,0.555-0.938,0.758-1.571,0.873l-1.858,0.337L418.802,92.815z"/>
								</g>
							</g>
							<g>
								<g>
									<path style="fill:#3E1B39;" d="M401.591,88.424l0.355-0.693l6.646,3.777c0.396-0.949,1.373-2.001,2.702-2.795
										c1.671-0.999,3.397-1.289,4.36-0.831c0.41-0.486,0.918-0.881,1.494-1.141c0.901-0.406,1.92-0.468,2.865-0.19
										c0.269-0.968,1.179-2.057,2.485-2.838c1.938-1.159,4.008-1.197,4.624-0.087c0.615,1.111-0.458,2.951-2.396,4.11
										c-1.938,1.159-4.008,1.197-4.623,0.087c-0.08-0.145-0.13-0.303-0.155-0.469c-0.809-0.271-1.721-0.234-2.493,0.114
										c-0.462,0.208-0.877,0.532-1.215,0.927c0.006,0.01,0.014,0.019,0.02,0.029c0.615,1.111-0.61,3.042-2.737,4.313
										c-2.126,1.271-4.349,1.401-4.964,0.29c-0.12-0.216-0.168-0.464-0.155-0.732L401.591,88.424z"/>
								</g>
							</g>
							<g>
								<g>
									<g>
										<g>
											<path style="fill:#3E1B39;" d="M417.367,80.914c-0.525-0.537,0.147-1.404,0.543-1.822
												c0.403-0.425,0.925-0.774,1.477-0.973c0.635-0.23,1.312-0.3,1.98-0.184c0.674,0.118,1.527,0.386,1.866,1.027
												c0.192,0.363-0.149,0.86-0.549,0.817c-0.29-0.03-0.554-0.215-0.82-0.326c-0.236-0.099-0.474-0.164-0.727-0.198
												c-0.466-0.063-0.995-0.011-1.405,0.137c-0.458,0.166-0.804,0.412-1.149,0.751c-0.168,0.165-0.285,0.323-0.43,0.51
												C418.001,80.851,417.617,81.17,417.367,80.914L417.367,80.914z"/>
										</g>
									</g>
								</g>
								<g>
									<g>
										<g>
											<path style="fill:#3E1B39;" d="M412.696,82.257c-0.292,0.181-0.637,0.288-0.954,0.419
												c-0.302,0.124-0.603,0.252-0.902,0.384c-0.599,0.264-1.212,0.524-1.781,0.849c-0.439,0.25-0.789,0.581-1.028,1.029
												c-0.262,0.491-0.371,1.045-0.582,1.556c-0.265,0.64-1.153,0.326-1.069-0.331c0.165-1.302,0.799-2.585,1.934-3.29
												c0.591-0.367,1.265-0.616,1.907-0.877c0.341-0.138,0.683-0.272,1.027-0.401c0.379-0.142,0.776-0.319,1.178-0.376
												c0.257-0.037,0.483,0.163,0.542,0.401C413.033,81.889,412.926,82.114,412.696,82.257L412.696,82.257z"/>
										</g>
									</g>
								</g>
							</g>
							<g>
								<path style="fill:#B0331F;" d="M423.296,98.213c-1.319,1.841-4.526,1.973-6.414,1.684c-2.35-0.362-4.025-1.581-4.953-2.431
									c-0.143-0.122-0.27-0.243-0.374-0.348c0,0,0.354,0.068,0.865,0.08l0.008,0c0.642,0.025,1.544-0.034,2.264-0.409
									c0.063-0.029,0.126-0.065,0.19-0.101c0.675-0.424,1.733-0.716,2.761-1.235c0.039-0.014,0.079-0.036,0.111-0.05
									c2.064-1.053,4.034-1.48,5.199-0.932c0.206,0.093,0.379,0.216,0.528,0.377c0.186,0.201-0.572,0.955-0.508,1.329
									C423.077,96.832,423.77,97.557,423.296,98.213z"/>
							</g>
							<g>
								<path style="fill:#FFFFFF;" d="M422.951,94.471c-0.405,0.465-0.361,0.932-0.688,1.346c-0.408,0.519-1.001,0.636-1.338,0.732
									c-2.413,0.667-4.319,0.632-6.614,0.831c0,0-0.646,0.053-1.469-0.095c-0.154-0.029-0.285-0.057-0.415-0.086
									c0.642,0.025,1.544-0.034,2.264-0.409c0.063-0.029,0.126-0.065,0.19-0.101c0.675-0.424,1.733-0.716,2.761-1.235
									c0.039-0.014,0.079-0.036,0.111-0.05C419.816,94.35,421.786,93.922,422.951,94.471z"/>
							</g>
						</g>
					</g>
				</g>
				<g>
					<g>
						<g>
							<g>
								<path style="fill:#FFFFFF;" d="M420.701,113.045c-1.931-3.267-10.818-3.279-11.426-3.279
									c0.555-0.14-1.196-3.881-1.315-4.084c-0.842-1.402-1.86-2.705-3.031-3.848c-2.263-2.21-5.205-3.698-8.299-4.324
									c-1.055-0.214-7.072-0.152-6.933,1.194c-0.528-5.094-4.747-11.611-4.747-11.611c-6.809,4.936-6.842,14.979-6.617,18.414
									c0.159,2.471-1.41,13.369-2.304,19.294c-0.185,1.239-0.345,2.263-0.45,2.945c-0.091,0.59-0.145,0.928-0.145,0.928
									s-6.01,8.169-9.551,16.866c6.022,9.81,14.76,17.808,25.213,22.907c5.041,2.463,10.479,4.252,16.208,5.241
									c0.724-0.068,1.134-0.193,1.151-0.375c0.188-1.768-0.21-22.106-0.221-24.942c-0.003-1.792-1.699-10.079-2.944-15.929
									c-0.206-0.973-0.401-1.883-0.577-2.679c-0.428-1.987-0.717-3.299-0.717-3.299s2.06-1.339,4.677-1.828
									c2.621-0.49,9.88-1.865,10.88-3.244C420.55,120.012,420.701,113.045,420.701,113.045z"/>
							</g>
						</g>
						<g>
							<g>
								<g>
									<path style="fill:#3E1B39;" d="M375.578,127.746c5.788,3.477,12.487,5.41,19.24,5.67c3.517,0.135,7.045-0.182,10.47-0.974
										c-0.206-0.973-0.401-1.883-0.577-2.679c-9.696,2.257-20.32,0.44-28.684-4.962
										C375.843,126.04,375.684,127.064,375.578,127.746z"/>
								</g>
							</g>
						</g>
					</g>
					<g>
						<g>
							<path style="fill:#B0331F;" d="M366.299,146.206c4.747,7.516,11.102,13.936,18.606,18.756
								c0.677,0.438,1.364,0.859,2.059,1.267c1.45-2.258,0.911-6.371,0.244-8.566c-0.63-2.088-1.618-3.275-2.883-4.025
								c-1.718-1.024-3.941-1.243-6.457-1.811c-0.395-0.087-0.796-0.202-1.105-0.465c-0.449-0.374-0.618-0.978-0.733-1.552
								c-0.458-2.294-0.395-4.729-1.374-6.854c-0.983-2.122-3.592-3.794-5.65-2.682c-1.455,0.785-2.001,2.566-2.358,4.18
								C366.52,145.03,366.401,145.616,366.299,146.206z"/>
						</g>
					</g>
					<g>
						<g>
							<path style="fill:#B0331F;" d="M393.231,111.792c0.923,3.43,4.01,5.581,6.895,4.805c2.886-0.776,4.477-4.186,3.554-7.616
								c-0.923-3.43-4.01-5.581-6.895-4.805C393.9,104.952,392.309,108.362,393.231,111.792z"/>
						</g>
					</g>
					<g>
						<g>
							<g>
								<g>
									<g>
										<path style="fill:#131428;" d="M399.59,109.965c0.451,1.024,1.115,1.721,1.481,1.556c0.367-0.165,0.298-1.13-0.153-2.154
											c-0.451-1.024-1.115-1.721-1.481-1.555C399.07,107.976,399.139,108.94,399.59,109.965z"/>
									</g>
								</g>
							</g>
						</g>
					</g>
					<g>
						<g>
							<path style="fill:#3E1B39;" d="M417.909,116.632c-0.017,0.048-0.037,0.092-0.055,0.139c0.319-0.239,0.643-0.465,0.985-0.687
								c-0.001-0.057-0.005-0.114-0.005-0.171c0.737-0.957,1.813-2.419,1.865-2.867c0.08-0.684-3.028-2.39-5.044-1.515
								c-2.017,0.874-1.688,2.632-1.688,2.632L417.909,116.632z"/>
						</g>
					</g>
					<g>
						<g>
							<path style="fill:#3E1B39;" d="M415.358,123.18c0.992-0.791,1.817-1.891,2.401-3.179c0.289-0.648,0.517-1.344,0.693-2.105
								l0-0.008c0.13-0.545,0.229-1.123,0.3-1.741c0.021-0.146,0.035-0.301,0.049-0.463c0.015-0.186,0.03-0.379,0.046-0.58
								l-0.773-0.045c-0.037,0.557-0.088,1.074-0.169,1.575c0,0.008,0,0.016-0.001,0.023c-0.001,0.031-0.01,0.054-0.011,0.085
								c-0.174,1.102-0.452,2.076-0.842,2.945c-0.678,1.517-1.749,2.747-3.001,3.458l0.189,0.325L415.358,123.18z"/>
						</g>
					</g>
					<g>
						<g>
							<path style="fill:#3E1B39;" d="M420.045,120.035c-0.226-0.365-0.383-0.736-0.502-1.066c-0.349-0.99-0.48-2.042-0.598-3.201
								c-0.007-0.031-0.005-0.062-0.012-0.093l-0.132,0.01l-0.638,0.068c0.029,0.249,0.051,0.498,0.08,0.74
								c0.059,0.483,0.126,0.943,0.21,1.396c0.091,0.453,0.206,0.9,0.359,1.34c0.189,0.527,0.482,1.166,0.948,1.757
								c-0.008,0.007,0,0.008,0,0.008L420.045,120.035z"/>
						</g>
					</g>
					<g>
						<g>
							<path style="fill:#FFFFFF;" d="M393.438,97.447c-0.665-3.2-0.824-6.505-0.469-9.754c0.009-0.084,0.023-0.176,0.087-0.231
								c0.105-0.089,0.264-0.023,0.382,0.047c3.18,1.9,5.219,5.264,6.549,8.721c0.305,0.794,0.58,1.599,0.888,2.392
								c0.007,0.019,0.014,0.037,0.022,0.056c0.193,0.096-0.041,0.559-0.198,0.706c-0.156,0.148-0.386,0.18-0.6,0.205
								c-0.645,0.075-1.292,0.15-1.941,0.156c-0.828,0.008-1.654-0.098-2.465-0.263c-0.549-0.112-1.102-0.256-1.578-0.55
								C393.639,98.637,393.552,97.995,393.438,97.447z"/>
						</g>
					</g>
				</g>
				<g>
					<g>
						<g>
							<path style="fill:#E89A5C;" d="M363.623,129.62l7.136,15.44c0,0,0.705,1.453,2.559,2.043c1.774,0.565,0.921-1.788,1.84-1.307
								l0.005-0.001c0.042,0.022,0.084,0.049,0.133,0.084c0.242,0.167,0.467,0.261,0.698,0.296c0.705,0.098,1.416-0.393,2.519-1.281
								c0.139-0.118,0.288-0.237,0.444-0.367c0.115-0.09,0.238-0.191,0.36-0.292c0.499-0.41,1.018-1.243,1.519-2.333
								c-0.97-2.97-2.13-5.178-3.026-6.663c-0.26-0.432-2.308-3.801-4.104-7.362c-0.203-0.403-0.516-0.808-0.705-1.151
								c-0.175-0.321-0.242-0.588-0.021-0.762c0.152-0.125,0.627-0.66,0.627-0.66s0.02,0.035,0.054,0.097
								c0.04,0.07,0.1,0.18,0.181,0.325c0.738,1.299,3.034,5.293,4.678,7.572c1.32,1.833,3.174,6.084,4.656,6.982
								c0.741,0.447,1.393,0.061,1.834-1.885c0.666-2.91-2.303-9.003-5.451-14.383c-1.033-1.773-2.094-3.476-3.042-4.957
								c-0.05-0.073-0.095-0.143-0.145-0.216c-0.039-0.066-0.082-0.126-0.125-0.186l-0.001-0.005
								c-1.505-2.33-2.707-4.053-3.078-4.578c-0.075-0.112-0.118-0.168-0.118-0.168c-0.123,0.096-0.252,0.188-0.37,0.293
								C365.81,119.64,363.623,129.62,363.623,129.62z"/>
						</g>
					</g>
					<g>
						<path style="fill:#E89A5C;" d="M376.045,118.916c0.007-0.002,0.013-0.003,0.02-0.005c1.539-0.364,3.079-0.727,4.618-1.091
							c0.246-0.058,0.513-0.115,0.738-0.028c2.476,0.96,5.475,0.883,8.022-0.206c0.624-0.267,1.146-0.781,1.306-1.381
							c-1.63-0.412-3.261-0.823-4.892-1.235c-0.379-0.096-0.759-0.192-1.138-0.287c-1.753-0.443-3.508-0.885-5.293-1.233
							c-1.653-0.322-3.426-0.554-5.062-0.002c-1.636,0.552-3.022,2.149-2.618,3.63C372.161,118.592,374.326,119.322,376.045,118.916
							z"/>
					</g>
					<g>
						<g>
							<path style="fill:#B0331F;" d="M367.836,135.381l0.542,0.158c0.174-0.592,0.368-1.173,0.588-1.749
								c0.087-0.234,0.179-0.469,0.276-0.699c0.396-0.972,0.857-1.921,1.371-2.84c0.108-0.194,0.22-0.389,0.334-0.579
								c0.617-1.026,1.301-2.016,2.053-2.944c0.215-0.273,0.441-0.539,0.667-0.8c0.056-0.066,0.117-0.134,0.174-0.2
								c0.074-0.079,0.147-0.162,0.22-0.241c0.257-0.28,0.519-0.556,0.788-0.824l-0.403-0.4
								C371.357,127.347,369.074,131.193,367.836,135.381z"/>
						</g>
					</g>
					<g>
						<g>
							<path style="fill:#B0331F;" d="M370.367,129.782c0.082,0.154,0.16,0.314,0.247,0.468c2.541,4.902,5.194,9.82,7.899,14.644
								c0.139-0.118,0.288-0.237,0.444-0.367c-2.745-4.894-5.434-9.883-8.01-14.856c-0.027-0.048-0.05-0.102-0.077-0.15
								L370.367,129.782z"/>
						</g>
					</g>
					<g>
						<g>
							<polygon style="fill:#B0331F;" points="375.994,146.175 369.242,133.09 369.132,132.878 368.627,133.135 368.966,133.79 
								375.158,145.796 375.163,145.795 							"/>
						</g>
					</g>
					<g>
						<g>
							<path style="fill:#B0331F;" d="M386.368,118.802c1.842-0.293,3.608-1.092,4.696-2.159l-0.397-0.405
								c-2.017,1.979-6.522,2.976-9.092,1.245l-0.118-0.08l-0.134,0.048c-1.09,0.383-2.13,0.557-3.233,0.742
								c-0.602,0.101-1.224,0.205-1.865,0.347l0.123,0.553c0.627-0.138,1.241-0.241,1.836-0.341
								c1.083-0.181,2.108-0.353,3.195-0.721C382.752,118.897,384.595,119.085,386.368,118.802z"/>
						</g>
					</g>
					<g>
						<g>
							<path style="fill:#B0331F;" d="M379.281,124.163l0.499-0.27c-2.355-4.354-4.634-7.78-6.774-10.184l-0.423,0.377
								C374.694,116.456,376.948,119.847,379.281,124.163z"/>
						</g>
					</g>
					<g>
						<g>
							<path style="fill:#B0331F;" d="M373.429,125.543l0.238,0.383c0.056-0.066,0.117-0.134,0.174-0.2
								c0.738,1.299,3.034,5.293,4.678,7.572c1.32,1.833,3.174,6.084,4.656,6.982l-9.115-14.795l-0.148-0.24l-0.253,0.155
								L373.429,125.543z"/>
						</g>
					</g>
				</g>
				<g>
					<g>
						<path style="fill:#3E1B39;" d="M433.5,102.447c-0.126,3.286-2.686,5.856-5.716,5.739c-3.03-0.117-5.385-2.875-5.258-6.162
							s2.686-5.856,5.716-5.74S433.626,99.161,433.5,102.447z"/>
					</g>
					<g>
						<path style="fill:#C0BCCF;" d="M427.598,107.53l11.028,19.076l4.959-2.389l-10.085-21.77
							c-0.602,0.822-1.438,1.809-2.565,2.793C429.727,106.294,428.549,107.027,427.598,107.53z"/>
					</g>
					<g>
						<g>
							<path style="fill:#C0BCCF;" d="M423.065,105.159c-0.194-0.007-0.389-0.045-0.579-0.125l0.3-0.714
								c0.405,0.17,0.925-0.014,1.38-0.216c3.032-1.346,5.585-3.688,7.187-6.594l0.678,0.374c-1.684,3.053-4.365,5.513-7.552,6.928
								C424.068,104.995,423.567,105.178,423.065,105.159z"/>
						</g>
					</g>
				</g>
				<g>
					<g>
						<g>
							<g>
								<g>
									<path style="fill:#E89A5C;" d="M443.692,116.857c0.375-0.164,0.015-0.039,0.015-0.039l0.261,0.666
										c0,0-0.239,0.127-0.644,0.341c-0.293,0.158-0.677,0.363-1.12,0.597c-2.587,1.391-7.133,3.874-7.368,4.268
										c-0.326,0.55-0.308,1.426,0.871,1.35c1.177-0.079,7.109-2.947,8.617-2.829c1.51,0.117,5.576,3.775,9.818,3.901
										c4.247,0.127,5.258-4.756,4.178-5.902l-13.146-12.129l-15.795,6.298c-1.398,0.277-2.246,0.984-2.19,1.51
										c0.035,0.325,0.424,0.656,0.699,0.817c0.093,0.055,0.391,0.218,0.826,0.249c2,0.139,9.802-2.343,10.225-2.463
										c0.162-0.046,0.323-0.087,0.485-0.133c0.154-0.04,0.308-0.086,0.462-0.126c0.319-0.088,0.634-0.175,0.955-0.26
										c0.238-0.068,0.481-0.134,0.72-0.199c0.169-0.047,0.001,0.018,0.17-0.029l-0.039,0.328l-0.013,0.016l-0.455,0.235
										l-1.572,0.819l-0.292,0.153l-9.08,4.711c0,0-0.56,2.411,3.045,1.653c2.129-0.446,5.559-1.779,8.014-2.8
										c0.076-0.034,0.151-0.062,0.225-0.094c0.632-0.263,1.193-0.503,1.636-0.695
										C443.385,116.993,443.548,116.919,443.692,116.857z"/>
								</g>
							</g>
						</g>
						<g>
							<g>
								<g>
									<path style="fill:#E89A5C;" d="M428.149,102.111c0,0,0.532,2.927,5.737,4.195l3.848,1.266l3.148,2.037l4.938-1.989
										l-2.827-2.404l-13.762-3.406C429.231,101.811,428.454,101.595,428.149,102.111z"/>
								</g>
							</g>
						</g>
						<g>
							<g>
								<g>
									<path style="fill:#E89A5C;" d="M458.688,119.444c-1.458-0.492-3.063-0.134-4.128,0.923c-1.189,1.18-1.503,3.03-0.765,4.595
										c4.175,7.499,8.349,14.998,12.524,22.498l12.087-8.046L458.688,119.444z"/>
								</g>
							</g>
						</g>
					</g>
					<g>
						<g>
							<path style="fill:#B0331F;" d="M441.722,112.813l-0.128-0.373c-3.645,1.252-7.388,2.359-11.126,3.292
								c-0.813,0.202-1.432,0.146-2.072-0.188l-0.183,0.349c0.723,0.378,1.448,0.447,2.35,0.222
								C434.312,115.179,438.066,114.069,441.722,112.813z"/>
						</g>
					</g>
					<g>
						<g>
							<g>
								<path style="fill:#B0331F;" d="M443.653,117.003l-0.15-0.365l-4.6,1.891c-2.207,0.907-4.709,1.935-7.25,1.79l-0.022,0.394
									c2.63,0.15,5.176-0.896,7.422-1.82L443.653,117.003z"/>
							</g>
						</g>
					</g>
					<g>
						<g>
							<g>
								<path style="fill:#B0331F;" d="M444.421,119.416c0.042-0.629,0.012-0.977-0.039-1.552l-0.013-0.151
									c-0.28-3.217-1.617-6.317-3.765-8.728l-0.295,0.262c2.092,2.348,3.394,5.367,3.667,8.5l0.013,0.151
									c0.051,0.576,0.079,0.893,0.038,1.491L444.421,119.416z"/>
							</g>
						</g>
					</g>
					<g>
						<g>
							<path style="fill:#B0331F;" d="M455.658,124.849l-0.19-0.345c-1.038,0.572-2.358,0.257-3.512-0.127
								c-1.871-0.622-3.705-1.4-5.452-2.313c-0.215-0.112-0.427-0.244-0.632-0.372c-0.427-0.266-0.869-0.541-1.384-0.672
								c-0.603-0.152-1.13,0.112-1.641,0.367c-0.212,0.106-0.43,0.215-0.648,0.291l-6.452,2.24l0.129,0.373l6.452-2.24
								c0.243-0.084,0.473-0.199,0.695-0.311c0.467-0.234,0.908-0.454,1.368-0.338c0.455,0.115,0.852,0.362,1.272,0.624
								c0.211,0.132,0.43,0.268,0.658,0.387c1.765,0.922,3.619,1.709,5.51,2.338C453.066,125.162,454.487,125.495,455.658,124.849z"
								/>
						</g>
					</g>
				</g>
				<g>
					<g>
						<path style="fill:#3E1B39;" d="M382.6,77.173c0.4,0.117,0.704,0.398,0.911,0.841c0.063,0.135,0.111,0.267,0.143,0.395
							c0.167,0.62,0.1,1.167-0.198,1.642c-0.299,0.474-0.76,0.864-1.384,1.169l0.287,1.076l-0.733,0.342l-0.438-1.642l0.337-0.157
							c0.5-0.233,0.886-0.515,1.16-0.845c0.274-0.329,0.345-0.737,0.214-1.223c-0.028-0.104-0.061-0.198-0.101-0.282
							c-0.133-0.286-0.321-0.469-0.563-0.547c-0.242-0.079-0.514-0.048-0.818,0.094c-0.354,0.165-0.593,0.394-0.717,0.684
							c-0.124,0.291-0.154,0.623-0.089,0.996l-0.733,0.342c-0.132-0.575-0.082-1.102,0.149-1.582c0.23-0.481,0.64-0.858,1.23-1.134
							C381.752,77.112,382.2,77.055,382.6,77.173z M382.692,83.095l0.261,0.976l-0.926,0.433l-0.261-0.976L382.692,83.095z"/>
					</g>
				</g>
			</g>
		</g>
	</g>
	<g>
		<g>
			<g>
				<g>
					<path style="fill:#E89A5C;" d="M137.814,332.471v87.1c0,9.64-7.81,17.45-17.45,17.45h-63.1c-9.64,0-17.45-7.81-17.45-17.45
						v-87.1c0-9.64,7.81-17.45,17.45-17.45h63.1C130.004,315.021,137.814,322.831,137.814,332.471z"/>
				</g>
			</g>
		</g>
		<g>
			<g>
				<g>
					<path style="fill:#FB43B2;" d="M64.667,422.786L64.667,422.786c-0.156,0.682-0.433,1.346-0.807,1.993
						c-0.077,0.133-0.156,0.263-0.238,0.392c-0.011,0.018-0.022,0.036-0.034,0.054c-0.544,0.851-1.182,1.615-1.874,2.323
						c-0.02,0.021-0.041,0.041-0.061,0.062c-0.53,0.537-1.091,1.041-1.665,1.529c-0.294,0.249-0.592,0.493-0.893,0.732
						c-0.048,0.039-0.097,0.077-0.145,0.115c-0.866,0.684-1.752,1.34-2.621,2.019c-0.008,0.006-0.015,0.012-0.023,0.017h-0.423
						c-0.919-0.652-1.822-1.324-2.695-2.036c-0.047-0.038-0.094-0.076-0.14-0.115c-0.859-0.708-1.689-1.456-2.475-2.261
						c-0.02-0.02-0.04-0.041-0.06-0.062c-0.145-0.149-0.287-0.3-0.428-0.452c-0.482-0.523-0.943-1.064-1.346-1.65
						c-0.05-0.072-0.099-0.146-0.147-0.22c-0.012-0.018-0.023-0.036-0.034-0.054c-0.017-0.027-0.034-0.053-0.05-0.08
						c-0.075-0.119-0.148-0.241-0.217-0.365c-0.069-0.124-0.136-0.25-0.199-0.378c-0.055-0.112-0.108-0.225-0.158-0.341
						c-0.037-0.085-0.072-0.169-0.105-0.254c-0.054-0.139-0.103-0.277-0.148-0.417c-0.046-0.145-0.087-0.29-0.122-0.434
						c-0.009-0.038-0.019-0.076-0.027-0.115v0c-0.025-0.113-0.048-0.226-0.066-0.339c-0.11-0.654-0.112-1.307-0.001-1.938
						c0.009-0.054,0.02-0.107,0.03-0.161c0.167-0.808,0.52-1.578,1.07-2.264c0.003-0.004,0.007-0.009,0.01-0.013
						c0.057-0.072,0.117-0.142,0.179-0.212c1.866-2.1,5.149-2.132,7.05-0.053c0.076,0.084,0.155,0.165,0.25,0.264
						c0.004,0.004,0.009,0.009,0.013,0.013c0.014,0.014,0.027,0.028,0.041,0.043c0.012-0.014,0.024-0.029,0.036-0.043
						c0.004-0.004,0.007-0.009,0.011-0.013c0.558-0.66,1.202-1.136,1.956-1.464c1.747-0.759,3.788-0.254,5.142,1.055
						c0.104,0.1,0.203,0.205,0.299,0.315c0.027,0.031,0.054,0.062,0.08,0.094c0.003,0.005,0.007,0.009,0.011,0.013
						c0.06,0.073,0.118,0.148,0.174,0.225c0.083,0.113,0.161,0.23,0.234,0.351c0.109,0.179,0.206,0.366,0.291,0.561
						c0.053,0.12,0.101,0.243,0.144,0.369c0.003,0.009,0.007,0.019,0.009,0.028c0.047,0.139,0.089,0.276,0.125,0.414
						c0.028,0.105,0.053,0.21,0.075,0.315c0.008,0.038,0.015,0.076,0.022,0.113c0.003,0.016,0.006,0.032,0.009,0.048
						C64.864,421.291,64.836,422.049,64.667,422.786z"/>
				</g>
			</g>
		</g>
		<g>
			<g>
				<g>
					<path style="fill:#FFFFFF;" d="M137.814,332.471v79.05h-98v-79.05c0-9.64,7.81-17.45,17.45-17.45h63.1
						C130.004,315.021,137.814,322.831,137.814,332.471z"/>
				</g>
			</g>
		</g>
		<g style="opacity:0.49;">
			<g>
				<path style="fill:#C0BCCF;" d="M122.124,406.443H55.028c-4.479,0-8.11-3.631-8.11-8.111v-66.229c0-4.479,3.631-8.111,8.11-8.111
					h67.097c4.479,0,8.111,3.631,8.111,8.111v66.229C130.235,402.812,126.604,406.443,122.124,406.443z"/>
			</g>
		</g>
		<g>
			<defs>
				<path id="SVGID_00000037654411952432031970000013236009567474706312_" d="M122.124,406.443H55.028
					c-4.479,0-8.11-3.631-8.11-8.111v-66.229c0-4.479,3.631-8.111,8.11-8.111h67.097c4.479,0,8.111,3.631,8.111,8.111v66.229
					C130.235,402.812,126.604,406.443,122.124,406.443z"/>
			</defs>
			<clipPath id="SVGID_00000006708482598506956030000017265166736875955122_">
				<use xlink:href="#SVGID_00000037654411952432031970000013236009567474706312_"  style="overflow:visible;"/>
			</clipPath>
			<g style="clip-path:url(#SVGID_00000006708482598506956030000017265166736875955122_);">
				<g>
					<g>
						<path style="fill:#FFFFFF;" d="M114.382,381.626c0,0-0.055-0.451-0.146-1.239c-0.105-0.911-0.264-2.278-0.446-3.931
							c-0.884-7.908-2.41-22.448-2.073-25.719c0.474-4.546,0.943-17.875-7.84-24.772c0,0-5.931,8.432-6.892,15.164
							c0-0.708-2.316-1.204-4.583-1.507c-0.194-0.605-0.39-1.209-0.597-1.809c-0.577-0.985-1.084-2.011-1.743-2.939
							c-0.879-1.237-1.965-2.336-3.243-3.162c-1.503-0.971-3.29-1.646-4.984-2.208c-0.533-0.177-1.135-0.304-1.602-0.144
							c-0.467,0.16-0.63,0.468-0.804,0.849c-1.248,2.736-2.606,5.341-4.114,7.926c-0.387,0.663,0,1.431,0.982,1.21
							c2.231-0.501,4.895-1.301,7.211-1.866c-0.561,1.131-1.572,2.329-1.813,3.551c-1.847,0.905-3.562,2.1-5.082,3.475
							c-1.613,1.458-3.029,3.134-4.218,4.952c-0.169,0.264-2.683,5.138-1.954,5.352c-0.806-0.032-12.6-0.469-15.329,3.767
							c0,0-0.155,9.252,1.098,11.133c1.257,1.881,10.819,4.077,14.272,4.86c3.448,0.784,6.113,2.665,6.113,2.665
							s-0.451,1.727-1.121,4.341c-0.273,1.048-0.578,2.246-0.902,3.526c-1.95,7.698-4.624,18.608-4.719,20.986
							c-0.16,3.763-1.727,30.73-1.567,33.085c0.014,0.241,0.551,0.428,1.508,0.556c7.653-1.02,14.96-3.116,21.774-6.127
							c14.131-6.232,26.134-16.399,34.625-29.108c0,0,0,0,0-0.004C121.939,392.773,114.382,381.626,114.382,381.626z"/>
					</g>
					<g>
						<g>
							<path style="fill:#3E1B39;" d="M114.236,380.388c-7.858,4.318-16.845,6.541-25.819,6.541c-4.674,0-9.338-0.601-13.843-1.827
								c0.323-1.28,0.629-2.478,0.902-3.526c12.75,3.489,26.94,1.622,38.314-5.12C113.972,378.11,114.132,379.477,114.236,380.388z"
								/>
						</g>
					</g>
				</g>
				<g>
					<path style="fill:#B0331F;" d="M125.606,405.355c-6.683,9.73-15.442,17.925-25.646,23.938c-0.92,0.547-1.854,1.07-2.797,1.576
						c-1.808-3.07-0.884-8.5,0.114-11.379c0.943-2.738,2.314-4.264,4.031-5.193c2.332-1.271,5.293-1.449,8.66-2.073
						c0.528-0.096,1.066-0.228,1.49-0.56c0.615-0.474,0.87-1.266,1.052-2.022c0.724-3.02,0.765-6.254,2.173-9.024
						c1.412-2.765,4.961-4.851,7.635-3.271c1.891,1.116,2.524,3.508,2.915,5.667C125.374,403.783,125.502,404.567,125.606,405.355z"
						/>
				</g>
				<g>
					<g>
						<g>
							<g>
								<g>
									<g>
										<g>
											<path style="fill:#131428;" d="M72.744,351.99c-0.314,1.011-0.835,1.743-1.163,1.636
												c-0.328-0.107-0.34-1.014-0.026-2.024c0.314-1.011,0.835-1.743,1.163-1.636C73.046,350.073,73.058,350.979,72.744,351.99
												z"/>
										</g>
									</g>
								</g>
							</g>
							<g>
								<ellipse style="fill:#B0331F;" cx="88.146" cy="355.433" rx="7.184" ry="8.54"/>
							</g>
							<g>
								<g>
									<g>
										<g>
											<path style="fill:#131428;" d="M87.885,355.276c-0.092,1.055-0.521,1.878-0.957,1.84
												c-0.436-0.038-0.715-0.924-0.622-1.979c0.093-1.055,0.521-1.878,0.957-1.84
												C87.699,353.336,87.978,354.222,87.885,355.276z"/>
										</g>
									</g>
								</g>
							</g>
						</g>
						<g>
							<path style="fill:#3E1B39;" d="M77.8,364.938c-0.217-0.129-0.496-0.057-0.625,0.158c-1.845,3.101-5.366,5.028-9.188,5.028
								c-4.568,0-8.107-2.569-9.353-6.645l5.356-3.075c0,0,0.526-2.316-2.105-3.579c-2.631-1.263-6.842,0.842-6.771,1.753
								c0.047,0.597,1.399,2.591,2.329,3.899c-0.035,0.927-0.128,1.854-0.285,2.769c-0.107,0.623-0.258,1.346-0.57,1.983
								c-0.226,0.462-0.527,0.848-0.872,1.121c-0.142-0.055-0.311-0.038-0.442,0.062c-0.133,0.102-0.219,0.258-0.237,0.428
								c-0.018,0.17,0.035,0.341,0.144,0.468c0.089,0.103,0.216,0.158,0.345,0.158c0.069,0,0.139-0.016,0.204-0.048
								c0.879-0.441,1.397-1.216,1.677-1.789c0.361-0.74,0.531-1.541,0.649-2.228c0.034-0.197,0.059-0.396,0.088-0.594
								c1.618,3.851,5.256,6.229,9.843,6.229c4.142,0,7.962-2.097,9.971-5.473C78.087,365.346,78.016,365.066,77.8,364.938z"/>
						</g>
					</g>
				</g>
			</g>
		</g>
	</g>
</g>
</svg>
