<?xml version="1.0" encoding="utf-8"?>
<!-- Generator: Adobe Illustrator 27.5.0, SVG Export Plug-In . SVG Version: 6.00 Build 0)  -->
<svg version="1.1" xmlns="http://www.w3.org/2000/svg" xmlns:xlink="http://www.w3.org/1999/xlink" x="0px" y="0px"
	 viewBox="0 0 500 500" style="enable-background:new 0 0 500 500;" xml:space="preserve">
<g id="BACKGROUND">
	<rect style="fill:#F7EFE4;" width="500" height="500"/>
	
		<ellipse transform="matrix(0.7071 -0.7071 0.7071 0.7071 -85.1548 242.3791)" style="fill:#FFFFFF;" cx="250" cy="223.98" rx="199.02" ry="199.02"/>
</g>
<g id="OBJECTS">
	<g>
		<path style="fill:#B7B2AE;" d="M256.606,457.184c-148.758,0-227.898-6.864-227.898-20.698s124.177-17.937,217.008-17.937
			s231.903,5.61,231.903,17.937C477.619,448.813,430.346,457.184,256.606,457.184z"/>
		<g>
			<g>
				<path style="fill:#191919;" d="M281.064,148.369c0,0-3.741,15.249,19.195,22.427s36.275,4.576,45.873-1.443
					s9.598-6.019,9.598-6.019s5.937,1.996,10.411-5.387c4.473-7.383-0.813-14.784-0.813-14.784s11.712-2.847,10.736-16.755
					c-0.976-13.908-11.55-14.966-11.55-14.966s5.449-15.372-8.459-21.96c-13.908-6.588-20.008,0-20.008,0
					s-1.789-14.396-13.339-14.478c-11.55-0.081-15.616,10.411-15.616,10.411s-7.108-8.052-15.266-3.091
					c-8.158,4.961-5.881,13.176-5.881,13.176s-10.98-1.952-16.755,9.272c-5.775,11.224,3.579,22.774,3.579,22.774
					s-6.1,5.287-3.579,12.2C271.71,146.661,281.064,148.369,281.064,148.369z"/>
				<g>
					<path style="fill:#36BCC6;" d="M311.889,430.926v-3.091l15.942-6.019c0,0-16.267-16.999-33.998-31.232
						c-7.672-6.159-17.348-12.62-25.859-17.971c-6.509,2.992-13.169,6.294-19.041,9.675c-20.412,11.753-17.24,37.617-13.579,43.107
						c2.637,3.956,29.39,9.221,44.133,11.855c3.553-1.532,15.012-2.616,19.926-3.432
						C306.245,432.684,311.889,430.926,311.889,430.926z"/>
					<path style="fill:#258399;" d="M315.541,435.758l0.09-0.602l0,0l0.77-3.346c0,0,29.73-9.667,49.495-16.987
						c19.764-7.32,52.379-15.128,52.379-15.128c-9.679-7.564-30.257-17.3-30.257-17.3l17.75-20.523
						c-11.361-4.476-20.05-7.48-20.05-7.48l-86.437,5.323c0,0-15.191,5.493-31.309,12.9c8.512,5.351,18.187,11.812,25.859,17.971
						c17.731,14.233,33.998,31.232,33.998,31.232l-15.942,6.019v3.091c0,0-5.645,1.758-12.477,2.892
						c-4.914,0.816-16.373,1.9-19.926,3.432c5.716,1.021,9.629,1.647,9.629,1.647s11.095,1.824,18.496-0.128
						C315.013,436.817,315.541,435.758,315.541,435.758z"/>
					<path style="fill:#36BCC6;" d="M455.689,387.819c-7.816-8.337-32.141-18.944-49.92-25.948l-17.75,20.523
						c0,0,20.578,9.736,30.257,17.3c0,0-32.615,7.808-52.379,15.128c-19.764,7.32-49.495,16.987-49.495,16.987l-0.77,3.346
						c-0.981,3.629-0.722,9.778-0.488,12.688c0,0,0,5.246,2.44,5.612c2.44,0.366,103.702-0.79,129.81-13.754
						C473.502,426.737,468.5,401.483,455.689,387.819z"/>
					<path style="fill:#C16240;" d="M315.143,448.569c0,0-0.431,1.623-2.105,2.858c-1.976,1.457-3.9,3.344-8.766,2.313
						c-4.867-1.031-11.823-0.443-15.797,1.609s-7.806-1.054-7.806-1.054s-4.01,0.97-4.151-0.952
						c-0.14-1.922,1.954-3.036,3.366-3.054c0,0-4.751,0.166-3.673-2.624c1.078-2.79,3.837-2.666,3.837-2.666
						s-4.139,0.256-4.014-2.15c0.125-2.406,5.492-1.995,5.492-1.995s-7.323-1.675-4.482-5.381c2.841-3.706,6.977-0.124,9.503,0.559
						c2.526,0.682,21.641,2.53,28.995-0.273L315.143,448.569z"/>
				</g>
				<path style="fill:#C16240;" d="M363.212,376.594c0,0,0.671,8.296-2.074,13.054c-2.745,4.758-2.745,4.758-2.745,4.758
					s1.952,17.141,0,17.446s-3.721-13.054-3.721-13.054s0.488,14.762-2.196,15.25c-2.684,0.488-2.196-14.681-2.196-14.681
					s-2.603,15.779-5.602,15.535c-2.999-0.244,0.966-17.324,0.966-17.324s-4.006,16.47-7.096,15.982s4.006-25.214,6.131-29.321
					c2.125-4.108,8.774-11.55,8.774-11.55L363.212,376.594z"/>
				<g>
					<path style="fill:#E57428;" d="M376.469,268.582c-2.033,0.407-6.995,44.246-6.995,44.246s-9.679,10.248-31.558,17.894
						c-16.294,5.694-37.991,2.006-48.012-0.249c-0.513,14.333-0.586,27.829,0.838,29.604c3.172,3.951,29.255,6.699,44.316,5.538
						c15.061-1.161,20.914-4.148,20.914-4.148s25.946-37.821,29.118-42.131C388.263,315.024,378.503,268.175,376.469,268.582z"/>
					<path style="fill:#893820;" d="M333.525,211.16c3.444-0.678,6.71-3.159,9.509-6.109c-2.963-9.751-5.686-20.517-5.686-20.517
						l-16.836,5.03c0,0,2.176,11.667,2.89,21.597C326.71,211.65,330.265,211.801,333.525,211.16z"/>
					<path style="fill:#C16240;" d="M334.826,242.88c3.293-0.599,12.027-12.231,18.293-21.14c-3.503-2.239-6.103-4.874-7.231-7.979
						c-0.921-2.535-1.9-5.571-2.854-8.71c-2.799,2.95-6.065,5.431-9.509,6.109c-3.259,0.641-6.815,0.49-10.123,0.002
						c0.385,5.36,0.346,10.216-0.694,12.455c-0.699,1.505-2.269,3.089-4.372,4.697C323.799,234.964,331.525,243.48,334.826,242.88z"
						/>
					<path style="fill:#FFA440;" d="M411.281,256.69c-6.588-12.346-9.763-22.45-25.561-24.901
						c-11.086-1.72-24.358-4.781-32.601-10.049c-6.266,8.909-15,20.542-18.293,21.14c-3.301,0.6-11.027-7.916-16.491-14.566
						c-6.827,5.221-19.341,10.702-26.51,14.596c-9.378,5.094-40.465,17.942-40.465,17.942l10.834,40.191l29.631-7.012
						c0,0-1.291,18.852-1.921,36.442c10.021,2.255,31.719,5.942,48.012,0.249c21.879-7.645,31.558-17.894,31.558-17.894
						s4.961-43.839,6.995-44.246c2.033-0.407,11.793,46.442,8.621,50.753c-3.172,4.311-29.118,42.131-29.118,42.131
						s-8.5,9.394-7.646,12.2c0.854,2.806,14.884,8.548,18.056,8.727c3.172,0.179,53.803-47.646,58.317-56.064
						S417.869,269.036,411.281,256.69z"/>
				</g>
				<path style="fill:#C16240;" d="M302.699,131.939c0,0-1.301,6.425-5.205,10.736c-3.904,4.311-6.669,5.531-6.669,5.531
					s2.521,33.263,6.669,44.082c4.148,10.819,22.936,11.145,33.917,4.556c10.98-6.588,13.827-10.167,14.234-15.779
					c0.407-5.612,0-7.157,0-7.157s12.038-2.033,13.176-9.598c1.139-7.564-5.612-13.502-11.224-11.55
					c-5.612,1.952-7.157,11.224-7.157,11.224s1.789,7.239-1.789,7.32c-3.579,0.081-4.88-12.444-4.717-19.52
					c0.163-7.076-0.163-12.851-0.163-12.851s-2.359,0.976-6.669-0.488c-4.311-1.464-7.971-8.947-7.971-8.947
					S310.995,142.432,302.699,131.939z"/>
				<g>
					<path style="fill:#893820;" d="M308.238,161.894c3.781-0.235,7.358,11.361,5.838,12.229c-1.52,0.868-7.068,2.006-7.949,0.852
						C305.246,173.82,304.557,162.123,308.238,161.894z"/>
					<path style="fill:#FF888E;" d="M324.525,168.462c-0.743-3.152,7.319-5.746,8.398-2.197
						C334.003,169.813,325.267,171.613,324.525,168.462z"/>
					<path style="fill:#FF888E;" d="M295.116,171.372c0.017-3.238,8.462-3.87,8.68-0.167
						C304.013,174.908,295.099,174.61,295.116,171.372z"/>
					<path style="fill:#893820;" d="M347.104,165.632c-0.061-1.408,2.476-7.192,4.189-7.038c1.713,0.154-1.624,5.705-1.624,5.705
						s3.027-0.823,3.021,0.357C352.684,165.835,347.165,167.027,347.104,165.632z"/>
					<path style="fill:#191919;" d="M324.038,153.016c2.825-0.772,3.201,6.66,0.645,6.898
						C322.126,160.15,321.539,153.699,324.038,153.016z"/>
					<path style="fill:#191919;" d="M299.079,156.496c2.825-0.772,3.201,6.66,0.645,6.898
						C297.167,163.63,296.58,157.179,299.079,156.496z"/>
					<path style="fill:#191919;" d="M328,145.503c0.929-1.252-4.671-6.74-6.041-6.252c-1.369,0.487-1.358,2.007-1.082,3.232
						C321.153,143.709,326.982,146.875,328,145.503z"/>
					<path style="fill:#191919;" d="M297.138,147.763c0.953,1.234,7.755-2.666,7.658-4.116c-0.097-1.45-1.563-1.852-2.817-1.919
						C300.724,141.661,296.094,146.411,297.138,147.763z"/>
					<g>
						<path style="fill:#FF888E;" d="M319.654,184.534c-1.917,2.956-3.126,5.788-3.893,8.194c1.222,0.06,2.558-0.064,4.018-0.44
							c10.797-2.784,13.719-8.776,13.236-13.276c-0.07-0.652-0.252-1.277-0.504-1.872
							C328.649,177.754,322.91,179.514,319.654,184.534z"/>
						<path style="fill:#191919;" d="M324.476,172.79c-2.684,1.708-3.538,5.856-7.869,7.503c-3.243,1.234-7.869-0.61-9.882,1.769
							c-1.741,2.057,1.221,10.279,9.036,10.667c0.767-2.406,1.976-5.238,3.893-8.194c3.256-5.02,8.995-6.78,12.857-7.395
							C331.022,173.63,326.772,171.329,324.476,172.79z"/>
					</g>
				</g>
			</g>
			<g>
				<path style="fill:#191919;" d="M159.37,121.041c0,0-14.5-3.741-25.623,12.037s-9.659,33.093-20.396,43.062
					s-20.984,14.209-22.774,24.045c-1.789,9.836,5.043,17.076,0,23.135c-5.043,6.059-21.635,9.855-26.353,25.851
					c-4.717,15.995,1.952,22.153,1.952,22.153s-15.616,9.428-17.243,26.117c-1.627,16.689,13.664,27.027,13.664,27.027
					s-0.658,18.439,23.099,16.708c23.757-1.731,23.757-1.731,23.757-1.731s7.344,30.143,45.149,30.962
					c37.805,0.819,51.632-28.298,51.632-28.298s35.148-0.532,39.48-30.753c4.333-30.22-9.98-38.739-9.98-38.739
					s14.583-4.603,11.492-31.566c-3.091-26.963-16.592-27.44-18.544-40.866c-1.952-13.426-9.272-10.264-13.827-24.045
					c-4.555-13.781-2.928-43.022-16.592-55.486C184.601,108.19,163.094,111.606,159.37,121.041z"/>
				<g>
					<path style="fill:#E5906E;" d="M152.598,443.345c0,0,2.544-2.167,5.21-0.057c2.666,2.11,5.648,4.639,9.867,3.775
						c4.219-0.865,10.232-0.313,13.652,1.49c3.42,1.802,6.762-0.867,6.762-0.867s3.461,0.865,3.598-0.801
						c0.137-1.665-1.665-2.644-2.886-2.668c0,0,4.109,0.172,3.2-2.253c-0.909-2.425-3.297-2.334-3.297-2.334s3.579,0.247,3.491-1.84
						c-0.088-2.087-4.734-1.763-4.734-1.763s6.349-1.408,3.923-4.639s-6.034-0.149-8.225,0.427
						c-2.191,0.576-21.814-0.545-30.106,0.184L152.598,443.345z"/>
					<g>
						<path style="fill:#9FD85D;" d="M76.263,396.535c0,0,0.813,0.149,6.152-5.137c5.339-5.287,14.263-16.023,13.96-17.08
							c-0.303-1.057-2.137-3.253-6.936-7.645c-2.067-1.892-6.245-4.377-10.333-6.595c-8.069,4.362-16.615,9.922-23.665,16.68
							c-19.683,18.87-20.496,34.811-8.459,49.452c12.038,14.64,36.275,18.202,66.694,22.603s43.895,0,43.895,0
							s3.408-9.277,1.798-16.835c0,0-21.098-10.817-39.349-18.619C101.77,405.555,76.263,396.535,76.263,396.535z"/>
						<path style="fill:#6EB545;" d="M185.252,348.308h-78.766c0,0-12.922,3.953-27.381,11.769
							c4.088,2.218,8.267,4.703,10.333,6.595c4.799,4.392,6.633,6.588,6.936,7.645c0.303,1.057-8.621,11.794-13.96,17.08
							c-5.339,5.287-6.152,5.137-6.152,5.137s25.507,9.021,43.758,16.823c18.251,7.802,39.349,18.619,39.349,18.619l20.635-10.01
							L185.252,348.308z"/>
					</g>
				</g>
				<g>
					<g>
						<path style="fill:#FFCCB3;" d="M165.162,223.32c0-1.701,0.055-3.85,0.137-6.121c-8.202,2.667-15.79-0.999-18.827-5.361
							c-1.153,3.884-2.752,7.523-4.978,10.058c-3.743,4.261-9.126,6.651-15.195,9.559c3.221,8.139,10.582,19.312,26.5,17.525
							c12.6-1.414,18.048-9.341,20.372-16.753C168.335,229.64,165.162,226.68,165.162,223.32z"/>
						<path style="fill:#E5906E;" d="M165.299,217.199c0.251-6.908,0.758-14.945,0.758-14.945l-16.632-10.777
							c0,0-0.148,10.908-2.954,20.362C149.509,216.2,157.097,219.865,165.299,217.199z"/>
					</g>
					<path style="fill:#5A56B7;" d="M192.084,239.139c-6.985-1.912-13.858-4.208-18.914-6.912
						c-2.324,7.412-7.772,15.34-20.372,16.753c-15.919,1.786-23.279-9.386-26.5-17.525c-6.326,3.032-13.397,6.626-20.144,13.497
						c-13.218,13.463-27.678,58.047-29.404,64.952l32.704,29.54c0,0,19.35,15.027,47.574,14.945
						c28.223-0.081,49.207-12.282,49.207-12.282l16.755-91.216C222.991,250.892,205.749,242.88,192.084,239.139z"/>
				</g>
				<g>
					<g>
						<path style="fill:#E57428;" d="M185.259,312.473c0,0,7.82-1.78,8.199-13.031c0.378-11.251-5.487-17.116-11.1-25.568
							c-5.613-8.451-3.595-21.506,7.064-22.831c10.659-1.324,6.055,10.343,5.55,16.65c-0.505,6.307,11.226,11.605,11.1,28.759
							c-0.126,17.155-15.2,30.021-25.228,31.534l-0.126-13.497L185.259,312.473z"/>
						<g>
							<path style="fill:#FFA440;" d="M160.095,323.573c0.495-0.231,0.891-0.479,1.244-0.736c-0.989-0.733-1.749-1.156-1.749-1.156
								s0.76,0.424,1.749,1.156c3.602-2.618,0.139-6.505-3.767-10.238c0,0-3.406-4.478-9.523-5.298
								c-6.118-0.82-8.073,4.163-9.145,6.055c0,0,3.91,1.766,7.694,5.55C150.382,322.69,154.545,326.159,160.095,323.573z"/>
							<path style="fill:#FFA440;" d="M170.564,318.023c0,0,2.081-7.694,5.802-12.614c2.072-2.739,4.063-3.794,5.424-4.194
								c0.179-1.434,0.315-2.829,0.315-3.775c0-2.816,0-2.816,0-2.816s4.667-0.424,4.793-3.492c0.126-3.068-2.46-8.617-8.704-6.662
								c-6.244,1.955-6.622,18.795-6.622,18.795s-5.704,0.819-10.3,4.778C168.064,311.42,170.564,318.023,170.564,318.023z"/>
							<path style="fill:#E57428;" d="M161.339,322.837c1.453,1.076,3.4,2.827,4.204,4.934c4.289-0.07,7.67,2.108,7.67,2.108
								s0.568-5.046,1.766-13.118c1.198-8.073,5.928-9.713,5.928-9.713s0.528-2.996,0.883-5.834
								c-1.36,0.399-3.352,1.455-5.424,4.194c-3.721,4.919-5.802,12.614-5.802,12.614s-2.5-6.603-9.291-9.98
								c-1.4,1.206-2.699,2.701-3.701,4.557C161.478,316.332,164.941,320.219,161.339,322.837z"/>
							<path style="fill:#FFD150;" d="M123.262,321.302c0,0,5.172-4.415,8.704-4.793c3.532-0.378,6.748,2.964,10.091,7.947
								c3.343,4.983,6.118,10.722,0.883,12.614c-5.235,1.892-12.362-9.082-12.362-9.082c-0.063,4.226,4.099,10.974,10.974,12.109
								c6.875,1.135,9.713,0,9.713,0s2.018-6.811,8.577-10.722c1.94-1.157,3.899-1.574,5.7-1.604
								c-0.804-2.107-2.751-3.858-4.204-4.934c-0.353,0.256-0.749,0.505-1.244,0.736c-5.55,2.586-9.713-0.883-13.497-4.667
								c-3.784-3.784-7.694-5.55-7.694-5.55l-8.01-3.296l-14.007,0.57c0.625,1.532,1.283,3.054,1.835,4.113
								C120.298,317.77,123.262,321.302,123.262,321.302z"/>
							<path style="fill:#FFA440;" d="M180.908,307.049c0,0-4.73,1.64-5.928,9.713c-1.198,8.073-1.766,13.118-1.766,13.118
								s-3.382-2.178-7.67-2.108c0.182,0.476,0.309,0.969,0.354,1.478c-0.045-0.508-0.173-1.001-0.354-1.478
								c-1.802,0.03-3.76,0.447-5.7,1.604c-6.559,3.91-8.577,10.722-8.577,10.722s-2.838,1.135-9.713,0
								c-6.875-1.135-11.037-7.884-10.974-12.109c0,0,7.127,10.974,12.362,9.082c5.235-1.892,2.46-7.631-0.883-12.614
								c-3.343-4.982-6.559-8.325-10.091-7.947c-3.532,0.378-8.704,4.793-8.704,4.793s-2.964-3.532-4.541-6.559
								c-0.552-1.059-1.21-2.582-1.835-4.113l-14.282,0.581c0,0-4.569,12.361,6.468,26.867
								c11.037,14.506,27.183,24.408,48.311,20.939c21.128-3.469,25.858-25.228,26.174-29.012c0.315-3.784,0-9.839,0-9.839
								s5.676-0.907,6.37-3.954C190.62,313.166,187.277,303.391,180.908,307.049z"/>
						</g>
						<path style="fill:#FF485E;" d="M101.188,306.271c0,0-1.261,7.568-0.589,8.241s6.949,2.753,18.569,1.04
							c11.62-1.713,14.353-5.235,14.563-5.492c0.21-0.257-1.85-6.228-1.85-6.228L101.188,306.271z"/>
						<g>
							<g>
								<path style="fill:#E57428;" d="M125.848,274.883c0.189,0.505,4.036,1.388,5.739,3.658c0,0,1.724-4.73,1.135-8.514
									c-0.325-2.087-1.532-4.324-2.726-5.921c-1.187,2.402-2.412,5.068-2.95,6.837
									C125.848,274.883,125.659,274.379,125.848,274.883z"/>
								<path style="fill:#FFA440;" d="M131.588,278.542c-1.703-2.271-5.55-3.154-5.739-3.658c-0.189-0.504,0,0,1.198-3.94
									c0.538-1.77,1.763-4.435,2.95-6.837c-0.97-1.298-1.932-2.173-2.403-2.193c-1.051-0.043-5.382,7.315-5.886,12.487
									c0,0-5.573-0.883-9.997,0.505c0,0-3.71-11.395-6.148-12.866c-0.76-0.458-2.029,0.375-3.269,2.005
									c1.142,2.017,2.442,4.507,2.932,6.173c0.946,3.216,1.261,5.613,1.261,5.928c0,0.315-3.847,1.324-6.181,5.046
									c0,0-3.742,5.361-3.91,12.971c-0.168,7.61,0.715,12.109,2.775,13.371c2.06,1.261,9.418,3.601,20.266,1.969
									s16.356-6.258,17.323-7.75C137.726,300.258,138.862,285.206,131.588,278.542z"/>
								<path style="fill:#E57428;" d="M106.486,276.145c0-0.315-0.315-2.712-1.261-5.928c-0.49-1.666-1.791-4.156-2.932-6.173
									c-2.74,3.601-5.338,11.094-1.987,17.147C102.639,277.469,106.486,276.46,106.486,276.145z"/>
							</g>
							<g>
								<path style="fill:#2B2B2B;" d="M118.122,294.613c-1.263-0.243-2.852-1.917-2.898-2.566
									c-0.047-0.649,4.336-1.235,4.674-0.715C120.237,291.852,118.737,294.732,118.122,294.613z"/>
								<path style="fill:#2B2B2B;" d="M126.646,287.148c-1.821,0.181-2.788,2.13-3.331,1.924c-0.543-0.206-0.862-1.162-0.57-1.645
									c0.292-0.483,2.056-1.833,3.789-1.849c1.733-0.015,4.116,2.712,3.785,3.014
									C129.988,288.893,128.592,286.954,126.646,287.148z"/>
								<path style="fill:#2B2B2B;" d="M107.139,289.311c2.046-0.096,3.412,1.686,3.982,1.401c0.57-0.286,0.78-1.28,0.384-1.713
									c-0.397-0.434-2.555-1.503-4.479-1.256c-1.924,0.247-4.152,3.304-3.74,3.553
									C103.698,291.543,104.952,289.414,107.139,289.311z"/>
								<path style="fill:#2B2B2B;" d="M118.764,297.777c-0.835-0.056-0.838,2.271-3.541,2.523
									c-2.703,0.252-2.598-2.292-3.145-1.808c-0.547,0.483,0.298,3.111,3.145,2.943c2.847-0.168,3.541-2.439,3.541-2.439
									s0.946,1.934,3.322,1.388s2.313-2.901,2.018-2.943c-0.294-0.042-0.736,2.068-2.228,2.001
									C120.382,299.375,119.394,297.819,118.764,297.777z"/>
							</g>
						</g>
					</g>
					<g>
						<g>
							<path style="fill:#FFCCB3;" d="M172.58,360.843c1.505-1.377,2.818-2.819,2.818-2.819s1.473-0.961,2.306-3.344
								c0.361-1.032,0.432-2.2,0.398-3.193c-3.425,6.639-8.422,7.37-8.422,7.37s5.749-4.356,6.486-5.829
								c0.737-1.473,1.666-3.843,1.666-3.843c0.961-2.242,1.977-7.339,0.641-7.077c-1.336,0.262-4.676,6.884-5.303,8.23
								c-0.626,1.345-8.278,6.043-8.278,6.043s5.317-6.043,6.278-8.073c0.961-2.03,2.883-10.077,1.537-10.353
								c-1.345-0.276-3.715,6.874-5.381,9.564c-1.665,2.69-9.608,9.288-10.505,8.84s-0.512-2.562,0.75-5.536
								c1.262-2.974,4.054-7.788,2.23-8.715c-1.824-0.927-5.03,3.297-6.183,4.771s-4.64,7.125-6.918,7.802
								c-2.279,0.677-5.486-0.756-5.486-0.756l-3.746,12.555c0,0,13.268,4.612,18.072,3.943c4.804-0.669,13.836-3.879,16.655-6.506
								c1.368-1.275,2.16-2.698,2.615-3.828c-3.21,2.856-5.626,3.316-5.626,3.316S171.075,362.221,172.58,360.843z"/>
							<path style="fill:#E5906E;" d="M169.681,358.858c0,0,4.997-0.731,8.422-7.37c-0.044-1.301-0.27-2.303-0.27-2.303
								s-0.929,2.37-1.666,3.843C175.431,354.502,169.681,358.858,169.681,358.858z"/>
							<path style="fill:#E5906E;" d="M172.58,360.843c-1.505,1.377-3.395,2.562-3.395,2.562s2.416-0.459,5.626-3.316
								c0.483-1.198,0.588-2.065,0.588-2.065S174.085,359.466,172.58,360.843z"/>
						</g>
						<path style="fill:#806BCE;" d="M76.751,309.905c0,0,30.256,15.449,44.653,24.965c14.396,9.516,23.425,18.544,23.425,18.544
							s-1.098,11.712-8.296,19.032c0,0-23.424-3.05-43.921-16.836C72.115,341.824,71.749,326.786,76.751,309.905z"/>
					</g>
				</g>
				<path style="fill:#FFCCB3;" d="M163.547,144.262c0,0-1.11,6.344-3.998,10.655c-2.887,4.311-6.344,5.937-6.344,5.937
					s2.196,24.965,0,25.191c-2.196,0.226-3.497-10.388-3.497-10.388s-5.327-10.492-11.631-6.67
					c-6.303,3.823-4.473,15.454,0.976,17.894c5.449,2.44,6.913,2.115,6.913,2.115s1.911,10.579,9.028,15.761
					c7.117,5.182,12.453,9.818,19.85,8.883c7.397-0.935,20.126-15.128,22.606-23.018c2.481-7.889,2.359-23.912,1.952-27.654
					c-0.407-3.741-0.569-6.669-0.569-6.669s-6.425,4.555-16.592,2.359C172.075,156.462,163.547,144.262,163.547,144.262z"/>
				<g>
					<path style="fill:#E5906E;" d="M181.998,172.485c-3.09-0.125-5.734,11.57-4.473,12.393c1.261,0.824,5.816,1.799,6.507,0.62
						C184.723,184.319,185.007,172.607,181.998,172.485z"/>
					<path style="fill:#FF888E;" d="M166.3,182.814c0.651-3.172-7.483-5.531-8.459-1.952
						C156.865,184.441,165.65,185.986,166.3,182.814z"/>
					<path style="fill:#FF888E;" d="M195.781,184.867c-0.111-3.236-8.571-3.622-8.681,0.086
						C186.991,188.661,195.893,188.104,195.781,184.867z"/>
					<path style="fill:#E5906E;" d="M145.967,183.058c0.02-1.409-2.684-7.117-4.392-6.913c-1.708,0.203,1.789,5.656,1.789,5.656
						s-3.05-0.735-3.009,0.445C140.395,183.424,145.947,184.455,145.967,183.058z"/>
					<path style="fill:#191919;" d="M166.337,167.361c-2.846-0.69-3.006,6.751-0.444,6.913
						C168.456,174.437,168.855,167.971,166.337,167.361z"/>
					<path style="fill:#191919;" d="M192.365,167.361c-2.847-0.69-3.006,6.751-0.444,6.913
						C194.483,174.437,194.882,167.971,192.365,167.361z"/>
					<g>
						<path style="fill:#FF888E;" d="M171.302,196.031c-3.044-0.609-5.669-0.478-7.755-0.089c0.709,3.63,2.626,7.701,7.064,8.589
							c2.903,0.581,5.606-0.017,7.882-1.089C177.955,200.796,176.305,197.032,171.302,196.031z"/>
						<path style="fill:#191919;" d="M185.251,197.089c-0.081-1.465-5.368-3.539-9.354-5.084
							c-6.526-2.531-11.631-2.806-12.363-2.115c-0.333,0.314-0.578,3.03,0.012,6.052c2.086-0.389,4.711-0.52,7.755,0.089
							c5.002,1,6.652,4.765,7.191,7.41C182.595,201.51,185.304,198.031,185.251,197.089z"/>
					</g>
					<path style="fill:#191919;" d="M159.305,161.017c-0.965-1.224,4.474-6.873,5.856-6.426c1.383,0.447,1.416,1.966,1.176,3.2
						C166.097,159.024,160.363,162.359,159.305,161.017z"/>
				</g>
			</g>
			<g>
				<path style="fill:#DBA85E;" d="M165.812,389.527c0,0-11.956,11.346-30.989,5.368c-19.032-5.978-6.387-43.458-11.49-44.055
					c-5.103-0.598-8.729,15.822-8.729,15.822s-0.019-7.876-5.15-8.732s-7.144,15.257-6.443,24.464
					c0.701,9.207,8.195,12.745,8.195,12.745s-9.127-4.514-9.714-0.488c-0.586,4.026,4.649,11.468,14.903,12.2
					c0,0-13.146,4.514-4.984,8.052c8.162,3.538,15.116-2.243,15.116-2.243s-12.417,6.513-1.023,8.831
					c11.394,2.318,30.67-4.026,36.648-15.128L165.812,389.527z"/>
				<g>
					<path style="fill:#DBA85E;" d="M218.843,439.71c-1.089-0.272-0.918,5.938-0.759,9.135c0.67-0.007,1.339-0.018,1.993-0.031
						C220.086,446.083,219.977,439.994,218.843,439.71z"/>
					<path style="fill:#DBA85E;" d="M211.369,439.71c-1.073-0.268-0.923,5.747-0.766,8.984c0.505,0.053,1.195,0.091,2.001,0.117
						C212.612,446.079,212.503,439.993,211.369,439.71z"/>
					<path style="fill:#EDE8E4;" d="M204.454,396.535c0.207,1.082,0.372,2.188,0.48,3.321c1.627,17.08-3.335,28.548-4.717,31.883
						c0,0,6.466,1.342,14.64-1.464c0,0-2.77-18.971-4.916-37.015C208.664,394.188,206.527,395.628,204.454,396.535z"/>
					<path style="fill:#FFFFFF;" d="M239.42,378.953c0,0,4.304,4.148,9.513,3.335c3.453-0.539,6.86-3.36,8.77-5.205
						c0.241-3.664,0.099-6.67,0.099-6.67s1.301,3.335,3.904,2.033c2.603-1.301-1.789-11.305-1.789-11.305s2.521,3.497,3.904,1.627
						c1.383-1.871-2.115-6.019-2.115-6.019s6.914,4.07,8.947,1.181c2.033-2.889-3.904-9.965-3.904-9.965s2.277,1.464,3.416-1.301
						c1.139-2.765-4.392-7.219-4.392-7.219s5.159,0.702,5.304-1.489c0.145-2.191-4.979-5.885-4.979-5.885s3.172-0.657,3.904-2.996
						c0.732-2.338-2.359-13.481-13.827-14.783c-11.468-1.301-18.707,16.094-19.195,23.663c-0.088,1.357-0.196,3.471-0.326,6.105
						c0.001,0.003,2.44,15.536,2.603,25.214C239.42,378.953,239.42,378.953,239.42,378.953z"/>
					<path style="fill:#DBA85E;" d="M208.513,380.336c-2.033-20.415-2.277-38.227-2.277-38.227s-2.684,11.797-5.531,15.821
						c-2.847,4.025-11.172,13.477-11.172,13.477s12.004,9.912,14.921,25.128c2.073-0.907,4.209-2.347,5.487-3.275
						C209.41,388.795,208.916,384.386,208.513,380.336z"/>
					<path style="fill:#F7CF7F;" d="M280.25,307.149c-3.416-11.076-8.54-19.226-8.54-19.226l-56.853-1.302
						c0,0-5.035,1.444-9.76,11.078c-4.725,9.634-10.736,27.945-22.204,41.746c-11.468,13.8-19.429,26.658-22.22,44.226
						c-2.791,17.568-1.324,30.013,6.605,42.457c7.929,12.444,10.138,12.688,10.138,12.688h14.993c0,0,4.514-1.952,7.808-7.076
						c1.383-3.335,6.344-14.803,4.717-31.883c-0.108-1.134-0.273-2.24-0.48-3.321c-0.331,0.145-0.661,0.28-0.984,0.393
						c0.324-0.113,0.653-0.249,0.984-0.393c-2.917-15.216-14.921-25.128-14.921-25.128s8.325-9.453,11.172-13.477
						c2.847-4.024,5.531-15.821,5.531-15.821s0.244,17.812,2.277,38.227c0.403,4.05,0.897,8.459,1.428,12.924
						c0.723-0.525,1.175-0.887,1.175-0.887s-0.452,0.362-1.175,0.887c2.146,18.044,4.916,37.015,4.916,37.015
						s-8.784,6.588-8.784,9.516c0,2.928,2.111,8.296,3.801,8.784c0.159,0.046,0.407,0.085,0.729,0.119
						c-0.157-3.237-0.307-9.252,0.766-8.984c1.134,0.283,1.243,6.369,1.235,9.101c1.537,0.05,3.505,0.056,5.48,0.034
						c-0.159-3.198-0.331-9.407,0.759-9.135c1.134,0.284,1.243,6.373,1.235,9.104c2.619-0.052,4.979-0.146,6.004-0.239
						c2.684-0.244,4.555-24.156,4.555-24.156s1.139-15.698,2.928-31.883c1.469-13.284,2.498-36.419,3.09-48.475v0l-2.114,1.301
						l2.114-1.301v0c0.129-2.634,0.238-4.748,0.326-6.105c0.488-7.569,7.727-24.965,19.195-23.663
						c11.468,1.301,14.559,12.444,13.827,14.783c-0.732,2.338-3.904,2.996-3.904,2.996s5.124,3.694,4.979,5.885
						c-0.145,2.191-5.304,1.489-5.304,1.489s5.531,4.453,4.392,7.219c-1.139,2.765-3.416,1.301-3.416,1.301s5.937,7.076,3.904,9.965
						c-2.033,2.889-8.947-1.181-8.947-1.181s3.497,4.148,2.115,6.019c-1.383,1.871-3.904-1.627-3.904-1.627
						s4.392,10.004,1.789,11.305c-2.603,1.301-3.904-2.033-3.904-2.033s0.143,3.006-0.099,6.67c0.971-0.938,1.563-1.628,1.563-1.628
						s-0.592,0.69-1.563,1.628c-0.121,1.831-0.335,3.823-0.715,5.693c-1.139,5.612-3.579,13.339-3.579,13.339
						s-5.781,49.411-4.477,51.485c0.641,1.019,4.152,1.437,7.861,1.552c0.007-2.908,0.165-8.341,1.235-8.609
						c1.036-0.259,0.932,5.342,0.782,8.643c2.066,0.008,4.038-0.063,5.457-0.16c0.012-2.936,0.18-8.219,1.234-8.482
						c0.994-0.249,0.938,4.898,0.8,8.231c2.504-0.726,5.515-5.281,5.164-9.959c-0.366-4.88-5.487-7.564-5.487-7.564
						s13.613-50.265,16.016-71.737C284.398,338.042,283.666,318.225,280.25,307.149z"/>
					<path style="fill:#DBA85E;" d="M265.503,440.543c-1.054,0.264-1.223,5.546-1.234,8.482c0.745-0.051,1.341-0.109,1.711-0.168
						c0.106-0.017,0.215-0.052,0.323-0.083C266.441,445.441,266.496,440.294,265.503,440.543z"/>
					<path style="fill:#EDE8E4;" d="M257.703,377.083c-1.91,1.844-5.317,4.665-8.77,5.205c-5.209,0.813-9.513-3.335-9.513-3.335
						s0,0-0.163-9.679c-0.163-9.678-2.603-25.211-2.603-25.214c-0.592,12.057-1.622,35.192-3.09,48.475
						c-1.789,16.186-2.928,31.883-2.928,31.883s9.46-9.15,15.08-15.86c5.62-6.71,7.694-12.444,7.694-12.444s2.44-7.727,3.579-13.339
						C257.368,380.906,257.583,378.914,257.703,377.083z"/>
					<path style="fill:#DBA85E;" d="M258.029,440.543c-1.07,0.268-1.227,5.701-1.235,8.609c0.671,0.021,1.348,0.031,2.017,0.034
						C258.96,445.885,259.065,440.284,258.029,440.543z"/>
				</g>
				<g>
					<path style="fill:#C40A4D;" d="M271.222,276.675l-57.341,0.732c0,0-2.257,1.706-2.928,3.659
						c-0.005,0.016-0.011,0.036-0.016,0.052c4.198,3.142,13.268,7.497,31.124,7.148c15.856-0.31,26.071-3.802,32.281-7.146
						c-0.186-0.764-0.381-1.326-0.557-1.516C272.991,278.749,271.222,276.675,271.222,276.675z"/>
					<path style="fill:#FF485E;" d="M210.937,281.117c-0.665,1.989-1.323,7.122-0.96,8.866c0.366,1.758,10.431,8.895,31.843,8.651
						c21.411-0.244,32.209-5.795,33.063-7.93c0.664-1.66,0.111-6.92-0.541-9.586c-6.21,3.344-16.425,6.836-32.281,7.146
						C224.205,288.614,215.135,284.26,210.937,281.117z"/>
				</g>
				<g>
					<path style="fill:#FFA440;" d="M250.049,281.136c-1.829,0.044-1.361,6.102-1.31,9.892c0.05,3.79,0.269,7.383,2.674,7.624
						c2.405,0.241,1.775-5.719,1.675-9.92C252.988,284.53,253.469,281.053,250.049,281.136z"/>
					<path style="fill:#FFA440;" d="M259.996,302.021c-0.371-4.77-4.539-8.335-9.308-7.964c-4.77,0.371-8.335,4.539-7.964,9.308
						c0.371,4.77,4.539,8.335,9.308,7.964C256.802,310.958,260.367,306.791,259.996,302.021z"/>
					<path style="fill:#E57428;" d="M256.59,302.286c-0.225-2.889-2.749-5.048-5.637-4.823c-2.889,0.225-5.048,2.749-4.823,5.637
						c0.225,2.889,2.749,5.048,5.637,4.823C254.656,307.699,256.815,305.175,256.59,302.286z"/>
				</g>
				<g>
					<path style="fill:#DBA85E;" d="M189.533,440.361c-1.25,0.215-1.709,5.997-1.859,8.814c1.009-0.007,1.918-0.019,2.727-0.038
						C190.577,446.202,190.79,440.145,189.533,440.361z"/>
					<path style="fill:#DBA85E;" d="M178.338,439.702c-1.199,0.035-1.136,5.998-1.006,9.344c0.831,0.037,1.728,0.07,2.673,0.094
						C179.903,445.794,179.551,439.666,178.338,439.702z"/>
					<path style="fill:#F7CF7F;" d="M197.696,437.677c-1.262-1.564-6.182-5.49-14.234-5.693c-8.052-0.203-14.234,4.27-14.478,6.588
						c-0.244,2.318,1.586,9.964,2.684,10.086c0.677,0.075,2.779,0.259,5.663,0.389c-0.13-3.346-0.193-9.309,1.006-9.344
						c1.213-0.036,1.565,6.093,1.667,9.439c1.095,0.029,2.253,0.046,3.457,0.046c1.585,0,2.969-0.003,4.213-0.011
						c0.15-2.817,0.608-8.599,1.859-8.814c1.256-0.216,1.044,5.841,0.868,8.777c5.029-0.118,6.438-0.517,6.887-1.863
						C197.899,445.444,198.958,439.241,197.696,437.677z"/>
				</g>
				<g>
					<g>
						<path style="fill:#DBA85E;" d="M265.979,206.034c0,0,9.762-4.999,12.175-3.5c2.413,1.499-1.598,3.097-1.598,3.097
							s7.537,1.87,6.855,3.744c-0.682,1.874-4.969,0.268-4.969,0.268s4.137,2.651,7.302,12.025
							c3.165,9.375,7.281,27.529,5.751,29.581c-1.529,2.052-3.523-2.92-3.523-2.92s0.672,11.842-9.418,12.853L265.979,206.034z"/>
						<path style="fill:#DBA85E;" d="M228.684,208.069c0,0-8.947-6.344-11.549-5.206c-2.603,1.139,1.139,3.294,1.139,3.294
							s-7.727,0.773-7.32,2.725c0.407,1.952,4.88,0.976,4.88,0.976s-4.473,2.032-8.947,10.858
							c-4.473,8.826-11.143,26.205-9.923,28.455c1.22,2.25,3.904-2.386,3.904-2.386s-2.359,11.624,7.483,14.067L228.684,208.069z"/>
						<path style="fill:#F7CF7F;" d="M253.247,199.285c0,0-0.169-13.014-4.314-14.315c-4.145-1.301-0.481,11.712-0.481,11.712
							s-5.941-7.486-9.194-4.394c-3.253,3.092,6.019,8.596,6.019,8.596s-11.288-0.868-19.593,7.673
							c-8.305,8.54-8.468,28.139-11.802,38.104c-3.335,9.965-10.736,19.888-9.76,21.27c0.976,1.383,4.555-1.464,4.555-1.464
							s-3.66,5.775-2.603,7.32c1.057,1.545,4.392-1.349,4.392-1.349s-0.081,5.131,2.44,6.981c2.521,1.85,12.851,5.657,29.24,5.34
							c16.389-0.318,28.914-5.523,31.11-7.556c2.196-2.033,2.765-5.693,2.765-5.693s1.139,3.335,3.904,1.627
							c2.765-1.708-3.091-7.679-3.091-7.679s3.66,2.636,4.88,0.847c1.22-1.789-1.792-5.856-4.027-16.674
							c-2.236-10.818-3.374-31.431-4.432-38.327C272.198,204.409,262.275,199.61,253.247,199.285z"/>
						<path style="fill:#C16240;" d="M263.17,195.611c0,0-0.122-3.118-2.603-3.321c-2.481-0.203-6.63,19.114-4.047,19.52
							c2.583,0.407,3.936-6.222,5.415-10.086c0,0-2.262,12.119,0.503,12.607c2.765,0.488,4.392-10.574,4.392-10.574
							s-1.627,11.306,1.22,11.875c2.847,0.569,4.148-11.224,4.148-11.224s0.203,12.119,2.033,12.119c1.83,0,2.603-4.433,3.091-10.37
							c0.488-5.938,0.691-7.768-0.732-8.825c-1.423-1.057-2.765,0.325-2.765,0.325s-0.569-2.603-2.033-3.009
							c-1.464-0.407-3.091,2.033-3.091,2.033s-0.229-2.806-2.006-3.335C264.919,192.818,263.17,195.611,263.17,195.611z"/>
					</g>
					<path style="fill:#DBA85E;" d="M230.636,249.17c0,0,1.789,16.287,14.64,16.287c12.851,0,15.52-17.536,15.52-17.536
						L230.636,249.17z"/>
					<g>
						<path style="fill:#FFFFFF;" d="M247.313,223.32c-2.606,0-3.42,4.799-3.42,4.799s-5.246,0.122-11.549,3.904
							c-6.303,3.782-8.215,4.392-7.727,7.727c0.488,3.335,4.643,19.114,22.696,19.114s21.469-16.999,21.143-18.87
							c-0.325-1.871-0.305-6.629-6.751-8.947c-3.389-1.219-11.631-3.091-11.631-3.091S249.554,223.32,247.313,223.32z"/>
						<g>
							<path style="fill:#191919;" d="M247.228,241.051c-2.318,0-6.344-3.619-7.076-6.751c-0.732-3.131,4.961-3.253,7.076-3.253
								s9.069,0.081,8.052,3.253C254.264,237.472,249.506,241.051,247.228,241.051z"/>
							<path style="fill:#191919;" d="M240.64,226.085c-1.271,1.856-3.457-2.887-7.483-2.603c-4.026,0.285-5.693,3.172-6.344,2.44
								c-0.651-0.732,1.789-5.124,6.913-5.205C238.851,220.636,242.145,223.889,240.64,226.085z"/>
							<path style="fill:#191919;" d="M258.619,244.955c-0.908-0.122-0.66,4.229-5.282,4.229c-4.622,0-5.159-4.229-6.108-4.229
								c-0.935,0-1.464,4.229-6.019,4.229c-4.555,0-4.311-4.351-5.205-4.229c-0.895,0.122,0.366,5.937,5.124,5.937
								s6.1-2.97,6.1-2.97s1.362,2.97,6.19,2.97C258.247,250.892,259.526,245.077,258.619,244.955z"/>
							<path style="fill:#191919;" d="M253.914,226.085c1.29,1.856,3.508-2.887,7.593-2.603c4.086,0.285,5.778,3.172,6.438,2.44
								c0.66-0.732-1.816-5.124-7.016-5.205C255.73,220.636,252.387,223.889,253.914,226.085z"/>
						</g>
					</g>
				</g>
			</g>
		</g>
	</g>
</g>
</svg>
